<svg width="45" height="45" viewBox="0 0 45 45" fill="none" xmlns="http://www.w3.org/2000/svg">
<circle cx="22.5" cy="22.5" r="21.5" stroke="#FEFEFE" stroke-width="2"/>
<path d="M22.8536 13.9643C22.6583 13.7691 22.3417 13.7691 22.1464 13.9643L18.9645 17.1463C18.7692 17.3416 18.7692 17.6581 18.9645 17.8534C19.1597 18.0487 19.4763 18.0487 19.6716 17.8534L22.5 15.025L25.3284 17.8534C25.5237 18.0487 25.8403 18.0487 26.0355 17.8534C26.2308 17.6581 26.2308 17.3416 26.0355 17.1463L22.8536 13.9643ZM22 30.3179C22 30.594 22.2239 30.8179 22.5 30.8179C22.7761 30.8179 23 30.594 23 30.3179L22 30.3179ZM22 14.3179L22 30.3179L23 30.3179L23 14.3179L22 14.3179Z" fill="#FEFEFE"/>
</svg>
