<svg width="22" height="14" viewBox="0 0 22 14" fill="none" xmlns="http://www.w3.org/2000/svg">
<path d="M20.1 0.399902H1.89998C1.18238 0.399902 0.599976 0.921211 0.599976 1.56354V12.0363C0.599976 12.6786 1.18238 13.1999 1.89998 13.1999H20.1C20.8176 13.1999 21.4 12.6786 21.4 12.0363V1.56354C21.4 0.921211 20.8176 0.399902 20.1 0.399902ZM18.9332 1.56354L11 8.54536L3.12913 1.56354H18.9332ZM1.89998 12.0363V2.14885L8.13283 7.7279L3.23963 12.0363H1.89998ZM5.14023 12.0363L9.09288 8.58783L10.1199 9.50652C10.6275 9.96092 11.4504 9.96092 11.9587 9.50652L12.9539 8.61576L16.9065 12.0363H5.14023ZM20.1 12.0363H18.8396L13.9471 7.7279L20.1 2.21983V12.0363Z" fill="#FEFEFE"/>
</svg>
