<svg width="20" height="19" viewBox="0 0 20 19" fill="none" xmlns="http://www.w3.org/2000/svg">
<path d="M18.82 0.00133818C18.5985 0.0110574 18.3828 0.072715 18.1884 0.150588C17.9959 0.22794 16.8877 0.700913 15.2513 1.40055C13.6149 2.1002 11.4877 3.01128 9.37907 3.9147C5.16177 5.72155 1.01753 7.49936 1.01753 7.49936L1.04774 7.48781C1.04774 7.48781 0.797615 7.57142 0.544022 7.74811C0.417226 7.83646 0.280814 7.95051 0.169121 8.11679C0.0574286 8.28307 -0.0242261 8.51873 0.00654565 8.76798C0.11463 9.64347 1.02198 9.8918 1.02198 9.8918L1.02553 9.89357L5.07482 11.2795C5.17806 11.6239 6.30298 15.3785 6.55044 16.1736C6.6871 16.6132 6.81501 16.8668 6.94844 17.0398C7.0152 17.1264 7.08517 17.1934 7.16254 17.2423C7.19328 17.2618 7.22561 17.2764 7.2576 17.2894C7.25828 17.2897 7.25869 17.2891 7.25937 17.2894C7.2633 17.2912 7.267 17.2913 7.27092 17.293L7.26026 17.2903C7.26769 17.2933 7.27503 17.2984 7.28247 17.301C7.29691 17.306 7.30575 17.3059 7.32423 17.3099C7.78797 17.4718 8.17175 17.1713 8.17175 17.1713L8.18774 17.1588L10.6752 14.8517L14.7121 17.9993L14.7627 18.0224C15.4693 18.3361 16.1083 18.1611 16.4622 17.8731C16.8161 17.5852 16.9553 17.2139 16.9553 17.2139L16.9704 17.1748L19.9367 1.71416C20.0126 1.36827 20.0234 1.06928 19.9518 0.799114C19.8802 0.528944 19.7063 0.294087 19.4881 0.163914C19.2698 0.0337402 19.0415 -0.00838101 18.82 0.00133818ZM18.844 0.926154C18.934 0.921987 19.0007 0.932272 19.0217 0.94481C19.0427 0.957347 19.0521 0.955697 19.0723 1.03187C19.0925 1.10805 19.1034 1.26849 19.0483 1.5196L19.0465 1.52493L16.0971 16.8959C16.0901 16.9113 16.0286 17.0535 15.8883 17.1677C15.7452 17.2842 15.5859 17.3751 15.1634 17.1979L10.749 13.7554L10.6246 13.6577L10.6219 13.6604L9.30178 12.6698L16.7207 3.94135C16.7777 3.87446 16.8142 3.79248 16.8256 3.70533C16.837 3.61819 16.8229 3.5296 16.785 3.45029C16.7471 3.37098 16.6871 3.30433 16.6122 3.25841C16.5372 3.2125 16.4506 3.18927 16.3627 3.19155C16.2769 3.19378 16.1934 3.22027 16.122 3.26795L5.38664 10.4248L1.33114 9.03628C1.33114 9.03628 0.928427 8.81218 0.909151 8.65605C0.908082 8.64739 0.903327 8.65523 0.924254 8.62406C0.94518 8.59291 0.997782 8.54031 1.06373 8.49436C1.19563 8.40246 1.34624 8.34689 1.34624 8.34689L1.36134 8.34156L1.37645 8.33534C1.37645 8.33534 5.52089 6.55743 9.73798 4.75068C11.8465 3.8473 13.9734 2.93689 15.6094 2.23742C17.2449 1.53813 18.4268 1.03479 18.5268 0.99456C18.6408 0.948939 18.754 0.93032 18.844 0.926154ZM13.9241 5.82652L8.2979 12.4459L8.29524 12.4486C8.28645 12.4592 8.27815 12.4701 8.27036 12.4815C8.26144 12.4938 8.25313 12.5065 8.24549 12.5197C8.21388 12.5733 8.19362 12.6329 8.18596 12.6947C8.18596 12.6959 8.18596 12.697 8.18596 12.6982L7.45304 15.9942C7.44086 15.9585 7.43233 15.9455 7.41928 15.9035V15.9027C7.18649 15.1547 6.12515 11.6137 5.97831 11.124L13.9241 5.82652ZM8.9331 13.5306L9.94409 14.2893L8.4587 15.6663L8.9331 13.5306Z" fill="#FEFEFE"/>
</svg>
