<svg width="65" height="50" viewBox="0 0 65 50" fill="none" xmlns="http://www.w3.org/2000/svg">
<path opacity="0.3" d="M31.0333 39.6521H21.2283V41.9883H31.0333V39.6521Z" fill="#528AC8"/>
<path d="M42.134 39.7119H6.623C3.5304 39.7119 1 37.1815 1 34.0889V6.623C1 3.5304 3.5304 1 6.623 1H45.7398C48.8324 1 51.3628 3.5304 51.3628 6.623V17.1462" stroke="#FEFEFE" stroke-miterlimit="10" stroke-linecap="round" stroke-linejoin="round"/>
<path d="M42.134 31.6575H6.65985C4.99845 31.6575 3.63916 30.2982 3.63916 28.6368V6.78175C3.63916 5.12034 4.99845 3.76059 6.66032 3.76059H45.7033C47.3647 3.76059 48.724 5.11988 48.724 6.78128V16.9024" stroke="#FEFEFE" stroke-miterlimit="10" stroke-linecap="round" stroke-linejoin="round"/>
<path opacity="0.3" d="M3.63867 7.73993V6.78175C3.63867 5.12034 4.99796 3.76059 6.65983 3.76059H45.7028C47.3642 3.76059 48.7235 5.11988 48.7235 6.78128V7.73993H3.63867Z" fill="#528AC8"/>
<path d="M3.63867 7.73993V6.78175C3.63867 5.12034 4.99796 3.76059 6.65983 3.76059H45.7028C47.3642 3.76059 48.7235 5.11988 48.7235 6.78128V7.73993H3.63867Z" fill="white" fill-opacity="0.5" stroke="#FEFEFE" stroke-miterlimit="10" stroke-linecap="round" stroke-linejoin="round"/>
<path opacity="0.3" d="M26.1816 37.4841C27.1113 37.4841 27.865 36.7304 27.865 35.8007C27.865 34.8711 27.1113 34.1174 26.1816 34.1174C25.252 34.1174 24.4983 34.8711 24.4983 35.8007C24.4983 36.7304 25.252 37.4841 26.1816 37.4841Z" fill="#528AC8"/>
<path d="M26.1816 37.4841C27.1113 37.4841 27.865 36.7304 27.865 35.8007C27.865 34.8711 27.1113 34.1174 26.1816 34.1174C25.252 34.1174 24.4983 34.8711 24.4983 35.8007C24.4983 36.7304 25.252 37.4841 26.1816 37.4841Z" stroke="#FEFEFE" stroke-miterlimit="10" stroke-linecap="round" stroke-linejoin="round"/>
<path d="M31.1041 39.8324C31.1041 39.8324 30.2151 45.5796 34.5913 45.5796C29.2583 45.5796 25.8393 45.5796 25.8393 45.5796H26.3861C26.3861 45.5796 23.1044 45.5796 17.7709 45.5796C22.1467 45.5796 21.1894 39.8921 21.1894 39.8921" stroke="#FEFEFE" stroke-miterlimit="10" stroke-linecap="round" stroke-linejoin="round"/>
<path d="M23.8114 10.7321H7.02222V17.0051H23.8114V10.7321Z" stroke="#FEFEFE" stroke-miterlimit="10" stroke-linecap="round" stroke-linejoin="round"/>
<path d="M26.5509 11.4923H40.5594" stroke="#FEFEFE" stroke-miterlimit="10" stroke-linecap="round" stroke-linejoin="round"/>
<path d="M26.5509 14.294H42.8941" stroke="#FEFEFE" stroke-miterlimit="10" stroke-linecap="round" stroke-linejoin="round"/>
<path d="M26.5509 16.1619H40.5594" stroke="#FEFEFE" stroke-miterlimit="10" stroke-linecap="round" stroke-linejoin="round"/>
<path d="M15.417 20.4647H7.02222V28.8595H15.417V20.4647Z" fill="#C4C4C4" stroke="#FEFEFE" stroke-miterlimit="10" stroke-linecap="round" stroke-linejoin="round"/>
<path d="M26.8559 20.4647H18.4611V28.8595H26.8559V20.4647Z" stroke="#FEFEFE" stroke-miterlimit="10" stroke-linecap="round" stroke-linejoin="round"/>
<path d="M38.2947 20.4647H29.8999V28.8595H38.2947V20.4647Z" stroke="#FEFEFE" stroke-miterlimit="10" stroke-linecap="round" stroke-linejoin="round"/>
<path d="M62.2104 49H44.4052C43.1668 49 42.1536 47.9867 42.1536 46.7484V19.3955C42.1536 18.1571 43.1668 17.1438 44.4052 17.1438H62.2104C63.4488 17.1438 64.462 18.1571 64.462 19.3955V46.7484C64.462 47.9867 63.4488 49 62.2104 49Z" stroke="#FEFEFE" stroke-miterlimit="10" stroke-linecap="round" stroke-linejoin="round"/>
<path d="M61.4517 43.8748H45.1645C44.3627 43.8748 43.7123 43.2248 43.7123 42.4226V20.4134C43.7123 19.6116 44.3623 18.9612 45.1645 18.9612H61.4517C62.2534 18.9612 62.9039 19.6112 62.9039 20.4134V42.4226C62.9034 43.2248 62.2534 43.8748 61.4517 43.8748Z" stroke="#FEFEFE" stroke-miterlimit="10" stroke-linecap="round" stroke-linejoin="round"/>
<path opacity="0.3" d="M54.1458 47.3993C54.7147 47.3993 55.1759 46.9381 55.1759 46.3692C55.1759 45.8003 54.7147 45.3391 54.1458 45.3391C53.5769 45.3391 53.1157 45.8003 53.1157 46.3692C53.1157 46.9381 53.5769 47.3993 54.1458 47.3993Z" fill="#528AC8"/>
<path d="M54.1458 47.3993C54.7147 47.3993 55.1759 46.9381 55.1759 46.3692C55.1759 45.8003 54.7147 45.3391 54.1458 45.3391C53.5769 45.3391 53.1157 45.8003 53.1157 46.3692C53.1157 46.9381 53.5769 47.3993 54.1458 47.3993Z" stroke="#FEFEFE" stroke-miterlimit="10" stroke-linecap="round" stroke-linejoin="round"/>
<path d="M60.7297 21.3408H46.1432V33.3176H60.7297V21.3408Z" fill="#C4C4C4" stroke="#FEFEFE" stroke-miterlimit="10" stroke-linecap="round" stroke-linejoin="round"/>
<path d="M46.6298 36.7076H57.8365" stroke="#FEFEFE" stroke-miterlimit="10" stroke-linecap="round" stroke-linejoin="round"/>
<path d="M46.6298 38.5754H55.9687" stroke="#FEFEFE" stroke-miterlimit="10" stroke-linecap="round" stroke-linejoin="round"/>
</svg>
