<svg width="41" height="49" viewBox="0 0 41 49" fill="none" xmlns="http://www.w3.org/2000/svg">
<path d="M6.00415 25H27.5902L25.2972 27.293C25.2016 27.3852 25.1255 27.4956 25.0731 27.6176C25.0206 27.7396 24.9931 27.8708 24.9919 28.0036C24.9907 28.1364 25.016 28.2681 25.0663 28.391C25.1166 28.5138 25.1909 28.6255 25.2848 28.7194C25.3787 28.8133 25.4903 28.8875 25.6132 28.9378C25.7361 28.9881 25.8678 29.0134 26.0006 29.0123C26.1333 29.0111 26.2646 28.9835 26.3866 28.9311C26.5086 28.8787 26.6189 28.8025 26.7112 28.707L30.7112 24.707C30.8045 24.6139 30.8782 24.503 30.9282 24.381C31.0293 24.1364 31.0293 23.8616 30.9282 23.617C30.8782 23.495 30.8045 23.3841 30.7112 23.291L26.7112 19.291C26.5226 19.1088 26.2699 19.008 26.0078 19.0103C25.7456 19.0126 25.4947 19.1178 25.3093 19.3032C25.1239 19.4886 25.0188 19.7394 25.0165 20.0016C25.0142 20.2638 25.115 20.5164 25.2972 20.705L27.5902 23H6.00415C5.47321 23.0211 4.94364 22.9321 4.44878 22.7386C3.95392 22.545 3.50448 22.2511 3.12875 21.8754C2.75302 21.4997 2.45913 21.0502 2.26559 20.5554C2.07204 20.0605 1.98303 19.5309 2.00415 19V5C2.00415 4.20435 2.32022 3.44129 2.88283 2.87868C3.44544 2.31607 4.2085 2 5.00415 2H25.5902L36.5902 13H30.0042C29.2085 13 28.4454 12.6839 27.8828 12.1213C27.3202 11.5587 27.0042 10.7956 27.0042 10V7C27.0042 6.73478 26.8988 6.48043 26.7113 6.29289C26.5237 6.10536 26.2694 6 26.0042 6C25.7389 6 25.4846 6.10536 25.297 6.29289C25.1095 6.48043 25.0042 6.73478 25.0042 7V10C25.0057 11.3256 25.533 12.5964 26.4704 13.5338C27.4077 14.4711 28.6786 14.9984 30.0042 15H38.0042V29C38.0042 29.2652 38.1095 29.5196 38.297 29.7071C38.4846 29.8946 38.7389 30 39.0042 30C39.2694 30 39.5237 29.8946 39.7113 29.7071C39.8988 29.5196 40.0042 29.2652 40.0042 29V14C40.0042 13.8677 39.9777 13.7368 39.9262 13.615C39.876 13.4942 39.8026 13.3845 39.7102 13.292L26.7102 0.292C26.5227 0.105062 26.2689 5.6238e-05 26.0042 0L5.00415 0C3.67856 0.00158786 2.40771 0.528882 1.47037 1.46622C0.533035 2.40356 0.00574067 3.67441 0.00415281 5V19C-0.0260248 19.796 0.108527 20.5897 0.399376 21.3313C0.690225 22.0729 1.1311 22.7465 1.69439 23.3098C2.25767 23.873 2.93122 24.3139 3.67283 24.6048C4.41444 24.8956 5.20812 25.0302 6.00415 25Z" fill="#FEFEFE"/>
<path d="M38.9702 33.916C37.9282 32.645 36.2572 32 34.0042 32H11.4182L13.7112 29.707C13.8933 29.5184 13.9941 29.2658 13.9919 29.0036C13.9896 28.7414 13.8844 28.4906 13.699 28.3052C13.5136 28.1198 13.2628 28.0146 13.0006 28.0123C12.7384 28.01 12.4858 28.1108 12.2972 28.293L8.29719 32.293C8.20387 32.3861 8.13009 32.497 8.08019 32.619C7.97907 32.8636 7.97907 33.1384 8.08019 33.383C8.13009 33.505 8.20387 33.6159 8.29719 33.709L12.2972 37.709C12.4858 37.8912 12.7384 37.992 13.0006 37.9897C13.2628 37.9874 13.5136 37.8822 13.699 37.6968C13.8844 37.5114 13.9896 37.2606 13.9919 36.9984C13.9941 36.7362 13.8933 36.4836 13.7112 36.295L11.4182 34H34.0042C34.6238 33.9334 35.2505 34.004 35.8398 34.2067C36.4291 34.4094 36.9666 34.7393 37.4142 35.173C37.9544 35.9362 38.1735 36.881 38.0242 37.804C38.0106 37.8684 38.0039 37.9341 38.0042 38V43C38.0042 43.7956 37.6881 44.5587 37.1255 45.1213C36.5629 45.6839 35.7998 46 35.0042 46H5.00419C4.60461 46.0213 4.20501 45.9583 3.83137 45.8151C3.45773 45.6719 3.11841 45.4517 2.83546 45.1687C2.55251 44.8858 2.33227 44.5465 2.18906 44.1728C2.04584 43.7992 1.98285 43.3996 2.00419 43V27C2.00419 26.7348 1.89883 26.4804 1.71129 26.2929C1.52376 26.1054 1.2694 26 1.00419 26C0.73897 26 0.484616 26.1054 0.29708 26.2929C0.109543 26.4804 0.00418641 26.7348 0.00418641 27V43C-0.0209366 43.6634 0.0912065 44.3247 0.33359 44.9427C0.575973 45.5607 0.943373 46.122 1.41277 46.5914C1.88217 47.0608 2.44345 47.4282 3.06144 47.6706C3.67944 47.913 4.34083 48.0251 5.00419 48H35.0042C36.3298 47.9984 37.6006 47.4711 38.538 46.5338C39.4753 45.5964 40.0026 44.3256 40.0042 43V38.083C40.1191 37.3546 40.0868 36.6105 39.9092 35.8948C39.7316 35.1791 39.4123 34.5062 38.9702 33.916Z" fill="#FEFEFE"/>
</svg>
