<svg width="9" height="9" viewBox="0 0 9 9" fill="none" xmlns="http://www.w3.org/2000/svg">
<path d="M7.95744 3.55621H5.53722V1.35431C5.53722 0.833031 5.07296 0.410645 4.49999 0.410645C3.92702 0.410645 3.46276 0.833031 3.46276 1.35431V3.55621H1.04254C0.469576 3.55621 0.00531006 3.9786 0.00531006 4.49988C0.00531006 5.02116 0.469576 5.44355 1.04254 5.44355H3.46276V7.64545C3.46276 8.16673 3.92702 8.58912 4.49999 8.58912C5.07296 8.58912 5.53722 8.16673 5.53722 7.64545V5.44355H7.95744C8.53041 5.44355 8.99467 5.02116 8.99467 4.49988C8.99467 3.9786 8.53041 3.55621 7.95744 3.55621Z" fill="url(#paint0_linear_376_835)"/>
<defs>
<linearGradient id="paint0_linear_376_835" x1="1.1956" y1="0.410645" x2="5.1124" y2="7.6415" gradientUnits="userSpaceOnUse">
<stop stop-color="#14FFEC"/>
<stop offset="1" stop-color="#8839FF"/>
</linearGradient>
</defs>
</svg>
