<svg width="31" height="29" viewBox="0 0 31 29" fill="none" xmlns="http://www.w3.org/2000/svg">
<path d="M28.0363 12.1713C28.2062 12.9334 28.2925 13.7167 28.2925 14.5001C28.2925 15.2835 28.2064 16.0669 28.0363 16.829C27.9224 17.3397 28.2852 17.8378 28.8466 17.9415C28.9161 17.9543 28.9855 17.9605 29.0539 17.9605C29.5369 17.9605 29.9695 17.6517 30.0694 17.2042C30.2669 16.319 30.3669 15.4091 30.3669 14.5001C30.3669 13.5912 30.2667 12.6812 30.0694 11.7961C29.9556 11.2852 29.4078 10.9559 28.8466 11.0589C28.2852 11.1625 27.9224 11.6607 28.0363 12.1713Z" fill="url(#paint0_linear_376_1022)"/>
<path d="M2.96371 16.8291C2.79375 16.0669 2.70745 15.2836 2.70745 14.5002C2.70745 13.7168 2.79361 12.9333 2.96371 12.1715C3.07753 11.6606 2.71478 11.1625 2.15356 11.0588C1.59152 10.956 1.04455 11.2853 0.930596 11.7959C0.733106 12.6811 0.633118 13.591 0.633118 14.5001C0.633118 15.4091 0.733244 16.319 0.930596 17.2041C1.03045 17.6517 1.46304 17.9605 1.94612 17.9605C2.01444 17.9605 2.08386 17.9542 2.15343 17.9415C2.71478 17.8378 3.07753 17.3396 2.96371 16.8291Z" fill="url(#paint1_linear_376_1022)"/>
<path d="M12.9403 3.09436C14.6155 2.78496 16.3848 2.78496 18.0596 3.09436C18.1293 3.10719 18.1988 3.11336 18.2671 3.11336C18.7502 3.11336 19.1828 2.80459 19.2826 2.35717C19.3964 1.84633 19.0337 1.34819 18.4725 1.24452C16.5267 0.885418 14.474 0.885166 12.528 1.24452C11.9665 1.34819 11.6038 1.84632 11.7177 2.35704C11.8315 2.86788 12.379 3.19791 12.9403 3.09436Z" fill="url(#paint2_linear_376_1022)"/>
<path d="M18.0598 25.9053C16.3846 26.2147 14.6152 26.2147 12.9404 25.9053C12.3782 25.8023 11.8314 26.1318 11.7174 26.6424C11.6036 27.1532 11.9664 27.6514 12.5276 27.7551C13.5005 27.9347 14.5007 28.0257 15.4999 28.0257C16.4991 28.0257 17.4991 27.9346 18.472 27.7551C19.0335 27.6514 19.3963 27.1532 19.2823 26.6425C19.1685 26.1317 18.621 25.8023 18.0598 25.9053Z" fill="url(#paint3_linear_376_1022)"/>
<path d="M27.6121 20.6528C27.1344 20.3652 26.4911 20.4839 26.1745 20.9182C25.7026 21.5661 25.1547 22.1756 24.5458 22.7297C23.9366 23.2838 23.2666 23.7823 22.5545 24.2116C22.077 24.4994 21.9464 25.085 22.2629 25.5195C22.4624 25.7937 22.7921 25.9421 23.1285 25.9421C23.3251 25.9421 23.5241 25.8912 23.7005 25.7849C24.5276 25.2863 25.3057 24.7075 26.0128 24.0642C26.7197 23.4211 27.356 22.7132 27.904 21.9605C28.2203 21.5263 28.0896 20.9407 27.6121 20.6528Z" fill="url(#paint4_linear_376_1022)"/>
<path d="M3.38785 8.34733C3.56418 8.45365 3.76305 8.50448 3.95985 8.50448C4.29605 8.50448 4.62575 8.35588 4.82546 8.08197C5.29733 7.4341 5.84526 6.82462 6.45419 6.2705C7.06339 5.71637 7.73331 5.21786 8.4454 4.78856C8.92295 4.5008 9.0535 3.91522 8.73707 3.48063C8.42078 3.04629 7.77715 2.92726 7.29946 3.21527C6.47231 3.71391 5.69424 4.29269 4.98712 4.93602C4.28028 5.5791 3.64398 6.28698 3.0959 7.03965C2.77962 7.47387 2.91031 8.05957 3.38785 8.34733Z" fill="url(#paint5_linear_376_1022)"/>
<path d="M22.5546 4.78821C23.2666 5.21752 23.9366 5.71603 24.5456 6.27002C25.1547 6.82427 25.7026 7.43376 26.1745 8.08162C26.3741 8.35578 26.7038 8.50413 27.0401 8.50413C27.2369 8.50413 27.4358 8.4533 27.6121 8.34698C28.0896 8.05922 28.2202 7.47364 27.9038 7.03905C27.3557 6.28651 26.7195 5.57863 26.0124 4.9353C25.3056 4.29222 24.5275 3.71331 23.7002 3.21467C23.2227 2.92692 22.5793 3.04569 22.2626 3.48003C21.9463 3.91488 22.077 4.50045 22.5546 4.78821Z" fill="url(#paint6_linear_376_1022)"/>
<path d="M8.44544 24.2118C7.73334 23.7825 7.06343 23.284 6.45437 22.73C5.8453 22.1758 5.29736 21.5663 4.82549 20.9184C4.50907 20.4838 3.86529 20.3651 3.38789 20.6531C2.91034 20.9408 2.77979 21.5264 3.09622 21.961C3.64429 22.7136 4.28046 23.4214 4.98758 24.0648C5.69442 24.7078 6.47248 25.2867 7.29978 25.7854C7.47611 25.8917 7.67498 25.9425 7.87178 25.9425C8.20798 25.9425 8.53768 25.7939 8.73739 25.52C9.05367 25.0852 8.92298 24.4996 8.44544 24.2118Z" fill="url(#paint7_linear_376_1022)"/>
<defs>
<linearGradient id="paint0_linear_376_1022" x1="28.3267" y1="11.04" x2="31.7336" y2="12.9843" gradientUnits="userSpaceOnUse">
<stop stop-color="#14FFEC"/>
<stop offset="1" stop-color="#8839FF"/>
</linearGradient>
<linearGradient id="paint1_linear_376_1022" x1="0.94448" y1="11.04" x2="4.35133" y2="12.9843" gradientUnits="userSpaceOnUse">
<stop stop-color="#14FFEC"/>
<stop offset="1" stop-color="#8839FF"/>
</linearGradient>
<linearGradient id="paint2_linear_376_1022" x1="12.704" y1="0.975098" x2="13.1021" y2="3.35369" gradientUnits="userSpaceOnUse">
<stop stop-color="#14FFEC"/>
<stop offset="1" stop-color="#8839FF"/>
</linearGradient>
<linearGradient id="paint3_linear_376_1022" x1="12.7037" y1="25.8865" x2="13.1022" y2="28.2661" gradientUnits="userSpaceOnUse">
<stop stop-color="#14FFEC"/>
<stop offset="1" stop-color="#8839FF"/>
</linearGradient>
<linearGradient id="paint4_linear_376_1022" x1="22.8828" y1="20.4958" x2="25.491" y2="25.3111" gradientUnits="userSpaceOnUse">
<stop stop-color="#14FFEC"/>
<stop offset="1" stop-color="#8839FF"/>
</linearGradient>
<linearGradient id="paint5_linear_376_1022" x1="3.716" y1="3.05811" x2="6.32433" y2="7.87346" gradientUnits="userSpaceOnUse">
<stop stop-color="#14FFEC"/>
<stop offset="1" stop-color="#8839FF"/>
</linearGradient>
<linearGradient id="paint6_linear_376_1022" x1="22.8827" y1="3.05762" x2="25.4911" y2="7.87304" gradientUnits="userSpaceOnUse">
<stop stop-color="#14FFEC"/>
<stop offset="1" stop-color="#8839FF"/>
</linearGradient>
<linearGradient id="paint7_linear_376_1022" x1="3.71617" y1="20.4958" x2="6.32474" y2="25.3114" gradientUnits="userSpaceOnUse">
<stop stop-color="#14FFEC"/>
<stop offset="1" stop-color="#8839FF"/>
</linearGradient>
</defs>
</svg>
