<svg width="25" height="25" viewBox="0 0 25 25" fill="none" xmlns="http://www.w3.org/2000/svg">
<circle cx="12.5" cy="12.5" r="12" stroke="#FEFEFE"/>
<path d="M18.1875 9H6.8125C6.364 9 6 9.32582 6 9.72727V16.2727C6 16.6742 6.364 17 6.8125 17H18.1875C18.636 17 19 16.6742 19 16.2727V9.72727C19 9.32582 18.636 9 18.1875 9ZM17.4583 9.72727L12.5 14.0909L7.58072 9.72727H17.4583ZM6.8125 16.2727V10.0931L10.708 13.58L7.64978 16.2727H6.8125ZM8.83766 16.2727L11.3081 14.1175L11.9499 14.6916C12.2672 14.9756 12.7815 14.9756 13.0992 14.6916L13.7212 14.1349L16.1916 16.2727H8.83766ZM18.1875 16.2727H17.3998L14.3419 13.58L18.1875 10.1375V16.2727Z" fill="#FEFEFE"/>
</svg>
