<svg width="25" height="25" viewBox="0 0 25 25" fill="none" xmlns="http://www.w3.org/2000/svg">
<circle cx="12.5" cy="12.5" r="12" stroke="#FEFEFE"/>
<path d="M9.12551 7.3474L8.70693 7.39391C7.77724 7.49721 7.06374 8.24303 7.26007 9.15761C7.54218 10.4718 8.32281 12.4595 10.4313 14.568C12.5397 16.6764 14.5277 17.4573 15.842 17.7396C16.7568 17.9361 17.5028 17.2226 17.6061 16.2927L17.6526 15.8745C17.7407 15.0819 17.3494 14.3126 16.6569 13.917L16.1494 13.6271C15.6001 13.3133 14.9087 13.4059 14.4613 13.8533C14.1296 14.185 13.6502 14.325 13.236 14.1046C12.8781 13.9141 12.4107 13.6012 11.9048 13.0952C11.3988 12.5893 11.086 12.122 10.8954 11.764C10.675 11.3499 10.815 10.8704 11.1467 10.5387C11.5941 10.0914 11.6867 9.39996 11.3729 8.85063L11.083 8.3431C10.6874 7.6506 9.91816 7.25933 9.12551 7.3474Z" stroke="#FEFEFE" stroke-width="0.5" stroke-linecap="round" stroke-linejoin="round"/>
</svg>
