<svg width="55" height="75" viewBox="0 0 55 75" fill="none" xmlns="http://www.w3.org/2000/svg">
<path d="M40.3947 75L54.6966 61.0192L47.6397 54.4186L53.0545 49.1255L40.6264 37.5L53.0545 25.8745L47.6397 20.5814L54.6966 13.9808L40.3947 -7.45058e-07L0.303223 37.5L40.3947 75ZM46.2568 25.8012L33.7506 37.5L46.2568 49.1988L44.2042 51.2054L29.5514 37.5L44.2042 23.7946L46.2568 25.8012ZM47.8988 13.9074L42.5876 18.8755L22.6734 37.5L42.5876 56.1246L47.8988 61.0927L40.3214 68.5006L7.17889 37.5L40.3214 6.49959L47.8988 13.9074Z" fill="url(#paint0_linear_616_584)"/>
<defs>
<linearGradient id="paint0_linear_616_584" x1="0.303223" y1="37.5" x2="54.6966" y2="37.5" gradientUnits="userSpaceOnUse">
<stop stop-color="#14FFEC"/>
<stop offset="1" stop-color="#8839FF"/>
</linearGradient>
</defs>
</svg>
