<svg width="55" height="75" viewBox="0 0 55 75" fill="none" xmlns="http://www.w3.org/2000/svg">
<path d="M14.3021 0L0.000187548 13.9808L7.05708 20.5814L1.64223 25.8745L14.0703 37.5L1.64223 49.1255L7.05708 54.4186L0.000187548 61.0192L14.3021 75L54.3936 37.5L14.3021 0ZM8.43998 49.1988L20.9462 37.5L8.43998 25.8012L10.4925 23.7946L25.1454 37.5L10.4925 51.2054L8.43998 49.1988ZM6.79794 61.0926L12.1092 56.1245L32.0234 37.5L12.1092 18.8754L6.79794 13.9073L14.3754 6.49944L47.5179 37.5L14.3754 68.5004L6.79794 61.0926Z" fill="url(#paint0_linear_616_585)"/>
<defs>
<linearGradient id="paint0_linear_616_585" x1="54.3936" y1="37.5" x2="0.00018692" y2="37.5" gradientUnits="userSpaceOnUse">
<stop stop-color="#14FFEC"/>
<stop offset="1" stop-color="#8839FF"/>
</linearGradient>
</defs>
</svg>
