<svg width="95" height="95" viewBox="0 0 95 95" fill="none" xmlns="http://www.w3.org/2000/svg">
<path d="M47.5 95C73.7335 95 95 73.7335 95 47.5C95 21.2665 73.7335 0 47.5 0C21.2665 0 0 21.2665 0 47.5C0 73.7335 21.2665 95 47.5 95Z" fill="#120624"/>
<path d="M94.9818 46.2023L85.724 36.9444L58.0556 42.2221L15.6733 66.2489L44.3157 94.8912C45.3684 94.961 46.4298 95 47.5 95C73.7334 95 95 73.7333 95 47.5C95 47.066 94.9933 46.6335 94.9818 46.2023Z" fill="#2E2B32"/>
<path d="M85.724 36.9444L66.647 20.2513C65.833 19.539 64.4408 20.0433 64.4408 21.051V28.4313H32.6232C31.3886 28.4313 30.3874 29.3071 30.3874 30.3879V43.5018C30.3874 44.5823 31.3886 45.4584 32.6232 45.4584H64.4404V52.8387C64.4404 53.8463 65.8324 54.3508 66.6466 53.6384L85.724 36.9444Z" fill="white"/>
<path d="M59.6292 36.9444H15.6733V66.2473H59.6292V36.9444Z" fill="#12DCCC"/>
<path d="M59.6312 36.9444H37.6385V66.2473H59.6312V36.9444Z" fill="#14FFEC"/>
<path d="M59.6303 36.9444L37.6519 51.5968L15.6733 36.9444H59.6303Z" fill="#00FFEA"/>
<path d="M59.6303 36.9444H37.6376V51.5872L37.6519 51.5968L59.6303 36.9444Z" fill="#2BE9D9"/>
</svg>
