<svg width="533" height="86" viewBox="0 0 533 86" fill="none" xmlns="http://www.w3.org/2000/svg">
<path d="M30.9 68.2C25.4333 68.2 20.4 66.9333 15.8 64.4C11.2 61.8667 7.5 58.1333 4.7 53.2C1.96667 48.2 0.6 42.0667 0.6 34.8C0.6 27.6 2 21.4667 4.8 16.4C7.66667 11.2667 11.4333 7.36667 16.1 4.7C20.8333 1.96666 25.9333 0.599997 31.4 0.599997C35.6 0.599997 39.3667 1.46666 42.7 3.2C46.0333 4.86666 48.8 6.83333 51 9.09999L43.2 18.5C41.5333 16.9667 39.7667 15.7333 37.9 14.8C36.1 13.8 34.0333 13.3 31.7 13.3C28.7667 13.3 26.0667 14.1333 23.6 15.8C21.2 17.4667 19.2667 19.8667 17.8 23C16.4 26.1333 15.7 29.9 15.7 34.3C15.7 40.9667 17.1333 46.1667 20 49.9C22.8667 53.6333 26.7 55.5 31.5 55.5C34.1667 55.5 36.5333 54.9 38.6 53.7C40.7333 52.5 42.6 51.0667 44.2 49.4L52 58.6C46.5333 65 39.5 68.2 30.9 68.2ZM84.6922 68.2C78.8255 68.2 73.6589 66.8333 69.1922 64.1C64.7922 61.3667 61.3255 57.4667 58.7922 52.4C56.3255 47.2667 55.0922 41.1667 55.0922 34.1C55.0922 26.9667 56.3255 20.9333 58.7922 16C61.3255 11 64.7922 7.2 69.1922 4.6C73.6589 1.93333 78.8255 0.599997 84.6922 0.599997C90.5589 0.599997 95.6922 1.93333 100.092 4.6C104.559 7.2 108.026 11 110.492 16C113.026 21 114.292 27.0333 114.292 34.1C114.292 41.1667 113.026 47.2667 110.492 52.4C108.026 57.4667 104.559 61.3667 100.092 64.1C95.6922 66.8333 90.5589 68.2 84.6922 68.2ZM84.6922 55.5C89.1589 55.5 92.6922 53.5667 95.2922 49.7C97.8922 45.8333 99.1922 40.6333 99.1922 34.1C99.1922 27.5667 97.8922 22.4667 95.2922 18.8C92.6922 15.1333 89.1589 13.3 84.6922 13.3C80.2255 13.3 76.6922 15.1333 74.0922 18.8C71.4922 22.4667 70.1922 27.5667 70.1922 34.1C70.1922 40.6333 71.4922 45.8333 74.0922 49.7C76.6922 53.5667 80.2255 55.5 84.6922 55.5ZM126.552 67V1.8H141.652L158.652 34.2L165.052 48.6H165.452C165.185 45.1333 164.818 41.2667 164.352 37C163.885 32.7333 163.652 28.6667 163.652 24.8V1.8H177.652V67H162.552L145.552 34.5L139.152 20.3H138.752C139.085 23.9 139.452 27.7667 139.852 31.9C140.318 36.0333 140.552 40.0333 140.552 43.9V67H126.552ZM212.955 68.2C208.689 68.2 204.422 67.4 200.155 65.8C195.955 64.2 192.189 61.8667 188.855 58.8L197.255 48.7C199.589 50.7 202.189 52.3333 205.055 53.6C207.922 54.8667 210.689 55.5 213.355 55.5C216.422 55.5 218.689 54.9333 220.155 53.8C221.689 52.6667 222.455 51.1333 222.455 49.2C222.455 47.1333 221.589 45.6333 219.855 44.7C218.189 43.7 215.922 42.6 213.055 41.4L204.555 37.8C202.355 36.8667 200.255 35.6333 198.255 34.1C196.255 32.5 194.622 30.5333 193.355 28.2C192.089 25.8667 191.455 23.1333 191.455 20C191.455 16.4 192.422 13.1333 194.355 10.2C196.355 7.26666 199.089 4.93333 202.555 3.2C206.089 1.46666 210.122 0.599997 214.655 0.599997C218.389 0.599997 222.122 1.33333 225.855 2.8C229.589 4.26667 232.855 6.4 235.655 9.2L228.155 18.5C226.022 16.8333 223.889 15.5667 221.755 14.7C219.622 13.7667 217.255 13.3 214.655 13.3C212.122 13.3 210.089 13.8333 208.555 14.9C207.089 15.9 206.355 17.3333 206.355 19.2C206.355 21.2 207.289 22.7 209.155 23.7C211.089 24.7 213.455 25.7667 216.255 26.9L224.655 30.3C228.589 31.9 231.722 34.1 234.055 36.9C236.389 39.7 237.555 43.4 237.555 48C237.555 51.6 236.589 54.9333 234.655 58C232.722 61.0667 229.922 63.5333 226.255 65.4C222.589 67.2667 218.155 68.2 212.955 68.2ZM248.622 67V1.8H289.422V14.2H263.322V27.3H285.522V39.6H263.322V54.6H290.422V67H248.622ZM329.907 56.2C334.374 56.2 337.907 54.2667 340.507 50.4C343.107 46.4667 344.407 41.0333 344.407 34.1C344.407 27.5667 343.107 22.4667 340.507 18.8C337.907 15.1333 334.374 13.3 329.907 13.3C325.44 13.3 321.907 15.1333 319.307 18.8C316.707 22.4667 315.407 27.5667 315.407 34.1C315.407 41.0333 316.707 46.4667 319.307 50.4C321.907 54.2667 325.44 56.2 329.907 56.2ZM351.407 85.2C344.54 85.2 338.707 83.5 333.907 80.1C329.107 76.7667 325.54 72.5667 323.207 67.5C316.274 66.0333 310.707 62.4 306.507 56.6C302.374 50.8 300.307 43.3 300.307 34.1C300.307 26.9667 301.54 20.9333 304.007 16C306.54 11 310.007 7.2 314.407 4.6C318.874 1.93333 324.04 0.599997 329.907 0.599997C335.774 0.599997 340.907 1.93333 345.307 4.6C349.774 7.2 353.24 11 355.707 16C358.24 21 359.507 27.0333 359.507 34.1C359.507 42.8333 357.64 50.0667 353.907 55.8C350.174 61.4667 345.14 65.2 338.807 67C340.34 69.2667 342.407 70.9 345.007 71.9C347.674 72.9 350.374 73.4 353.107 73.4C354.507 73.4 355.807 73.2667 357.007 73C358.274 72.8 359.374 72.5667 360.307 72.3L362.907 83C361.707 83.6 360.107 84.1 358.107 84.5C356.174 84.9667 353.94 85.2 351.407 85.2ZM397.466 68.2C389 68.2 382.533 65.7 378.066 60.7C373.6 55.7 371.366 47.7333 371.366 36.8V1.8H386.166V38.3C386.166 44.7 387.133 49.1667 389.066 51.7C391 54.2333 393.8 55.5 397.466 55.5C401.133 55.5 403.966 54.2333 405.966 51.7C407.966 49.1667 408.966 44.7 408.966 38.3V1.8H423.166V36.8C423.166 47.7333 420.966 55.7 416.566 60.7C412.233 65.7 405.866 68.2 397.466 68.2ZM452.398 34L450.798 40H464.698L463.198 34C462.332 30.7333 461.432 27.2667 460.498 23.6C459.632 19.9333 458.765 16.4 457.898 13H457.498C456.698 16.4667 455.865 20.0333 454.998 23.7C454.198 27.3 453.332 30.7333 452.398 34ZM428.798 67L449.198 1.8H466.898L487.298 67H471.698L467.698 51.5H447.798L443.798 67H428.798ZM499.798 67V14.2H481.898V1.8H532.498V14.2H514.598V67H499.798Z" fill="url(#paint0_linear_131_497)" fill-opacity="0.4"/>
<defs>
<linearGradient id="paint0_linear_131_497" x1="68.0316" y1="12" x2="71.9418" y2="75.7992" gradientUnits="userSpaceOnUse">
<stop stop-color="#14FFEC"/>
<stop offset="1" stop-color="#8839FF"/>
</linearGradient>
</defs>
</svg>
