<svg width="779" height="62" viewBox="0 0 779 62" fill="none" xmlns="http://www.w3.org/2000/svg">
<path d="M0.544001 61V14.056H11.128V32.488H16.312L22.432 21.688C24.256 18.472 26.104 16.264 27.976 15.064C29.896 13.816 32.176 13.192 34.816 13.192C35.488 13.192 36.184 13.24 36.904 13.336C37.624 13.432 38.224 13.6 38.704 13.84L36.976 23.416C36.544 23.272 36.136 23.2 35.752 23.2C35.416 23.152 35.128 23.128 34.888 23.128C33.832 23.128 32.92 23.416 32.152 23.992C31.432 24.568 30.592 25.696 29.632 27.376L24.592 36.16L39.928 61H28.768L16.312 41.056H11.128V61H0.544001ZM63.7099 61.864C59.4859 61.864 55.7659 60.88 52.5499 58.912C49.3819 56.944 46.8859 54.136 45.0619 50.488C43.2859 46.792 42.3979 42.4 42.3979 37.312C42.3979 32.176 43.2859 27.832 45.0619 24.28C46.8859 20.68 49.3819 17.944 52.5499 16.072C55.7659 14.152 59.4859 13.192 63.7099 13.192C67.9339 13.192 71.6299 14.152 74.7979 16.072C78.0139 17.944 80.5099 20.68 82.2859 24.28C84.1099 27.88 85.0219 32.224 85.0219 37.312C85.0219 42.4 84.1099 46.792 82.2859 50.488C80.5099 54.136 78.0139 56.944 74.7979 58.912C71.6299 60.88 67.9339 61.864 63.7099 61.864ZM63.7099 52.72C66.9259 52.72 69.4699 51.328 71.3419 48.544C73.2139 45.76 74.1499 42.016 74.1499 37.312C74.1499 32.608 73.2139 28.936 71.3419 26.296C69.4699 23.656 66.9259 22.336 63.7099 22.336C60.4939 22.336 57.9499 23.656 56.0779 26.296C54.2059 28.936 53.2699 32.608 53.2699 37.312C53.2699 42.016 54.2059 45.76 56.0779 48.544C57.9499 51.328 60.4939 52.72 63.7099 52.72ZM93.8487 61V14.056H109.977C113.433 14.056 116.553 14.536 119.337 15.496C122.169 16.408 124.425 17.968 126.105 20.176C127.785 22.384 128.625 25.384 128.625 29.176C128.625 32.824 127.785 35.824 126.105 38.176C124.425 40.528 122.193 42.28 119.409 43.432C116.625 44.536 113.577 45.088 110.265 45.088H104.433V61H93.8487ZM104.433 36.664H109.617C115.377 36.664 118.257 34.168 118.257 29.176C118.257 26.728 117.489 25 115.953 23.992C114.417 22.984 112.209 22.48 109.329 22.48H104.433V36.664ZM136.739 61V14.056H173.387V61H162.803V22.984H147.323V61H136.739ZM203.562 61.864C199.338 61.864 195.618 60.88 192.402 58.912C189.234 56.944 186.738 54.136 184.914 50.488C183.138 46.792 182.25 42.4 182.25 37.312C182.25 32.176 183.138 27.832 184.914 24.28C186.738 20.68 189.234 17.944 192.402 16.072C195.618 14.152 199.338 13.192 203.562 13.192C207.786 13.192 211.482 14.152 214.65 16.072C217.866 17.944 220.362 20.68 222.138 24.28C223.962 27.88 224.874 32.224 224.874 37.312C224.874 42.4 223.962 46.792 222.138 50.488C220.362 54.136 217.866 56.944 214.65 58.912C211.482 60.88 207.786 61.864 203.562 61.864ZM203.562 52.72C206.778 52.72 209.322 51.328 211.194 48.544C213.066 45.76 214.002 42.016 214.002 37.312C214.002 32.608 213.066 28.936 211.194 26.296C209.322 23.656 206.778 22.336 203.562 22.336C200.346 22.336 197.802 23.656 195.93 26.296C194.058 28.936 193.122 32.608 193.122 37.312C193.122 42.016 194.058 45.76 195.93 48.544C197.802 51.328 200.346 52.72 203.562 52.72ZM233.7 61V14.056H249.828C253.284 14.056 256.404 14.536 259.188 15.496C262.02 16.408 264.276 17.968 265.956 20.176C267.636 22.384 268.476 25.384 268.476 29.176C268.476 32.824 267.636 35.824 265.956 38.176C264.276 40.528 262.044 42.28 259.26 43.432C256.476 44.536 253.428 45.088 250.116 45.088H244.284V61H233.7ZM244.284 36.664H249.468C255.228 36.664 258.108 34.168 258.108 29.176C258.108 26.728 257.34 25 255.804 23.992C254.268 22.984 252.06 22.48 249.18 22.48H244.284V36.664ZM284.021 37.24L282.869 41.56H292.877L291.797 37.24C291.173 34.888 290.525 32.392 289.853 29.752C289.229 27.112 288.605 24.568 287.981 22.12H287.693C287.117 24.616 286.517 27.184 285.893 29.824C285.317 32.416 284.693 34.888 284.021 37.24ZM267.029 61L281.717 14.056H294.461L309.149 61H297.917L295.037 49.84H280.709L277.829 61H267.029ZM318.149 61V22.984H305.261V14.056H341.693V22.984H328.805V61H318.149ZM349.013 61V14.056H359.525V30.616C359.525 33.4 359.357 36.328 359.021 39.4C358.685 42.472 358.397 45.256 358.157 47.752H358.445L363.053 37.456L375.365 14.056H386.597V61H376.157V44.368C376.157 41.584 376.325 38.704 376.661 35.728C376.997 32.752 377.261 29.968 377.453 27.376H377.165L372.557 37.6L360.245 61H349.013ZM397.669 61V14.056H413.725C416.989 14.056 419.917 14.416 422.509 15.136C425.101 15.808 427.165 16.984 428.701 18.664C430.237 20.344 431.005 22.696 431.005 25.72C431.005 27.784 430.453 29.824 429.349 31.84C428.293 33.808 426.805 35.152 424.885 35.872V36.16C427.285 36.784 429.277 38.008 430.861 39.832C432.493 41.608 433.309 44.056 433.309 47.176C433.309 50.392 432.493 53.008 430.861 55.024C429.229 57.04 427.045 58.552 424.309 59.56C421.573 60.52 418.501 61 415.093 61H397.669ZM408.253 32.848H413.221C415.813 32.848 417.685 32.344 418.837 31.336C420.037 30.328 420.637 28.984 420.637 27.304C420.637 25.48 420.037 24.184 418.837 23.416C417.637 22.648 415.789 22.264 413.293 22.264H408.253V32.848ZM408.253 52.792H414.229C420.037 52.792 422.941 50.68 422.941 46.456C422.941 44.392 422.221 42.928 420.781 42.064C419.341 41.152 417.157 40.696 414.229 40.696H408.253V52.792ZM441.263 61V14.056H451.847V32.128H468.047V14.056H478.703V61H468.047V41.416H451.847V61H441.263ZM489.778 61V14.056H500.362V31.192H505.042C508.594 31.192 511.738 31.696 514.474 32.704C517.258 33.664 519.442 35.2 521.026 37.312C522.61 39.424 523.402 42.208 523.402 45.664C523.402 49.408 522.562 52.408 520.882 54.664C519.25 56.92 517.042 58.552 514.258 59.56C511.474 60.52 508.33 61 504.826 61H489.778ZM500.362 52.576H504.178C506.962 52.576 509.122 52.048 510.658 50.992C512.242 49.936 513.034 48.208 513.034 45.808C513.034 41.68 510.082 39.616 504.178 39.616H500.362V52.576ZM529.522 61V14.056H540.106V61H529.522ZM551.161 61V14.056H561.673V30.616C561.673 33.4 561.505 36.328 561.169 39.4C560.833 42.472 560.545 45.256 560.305 47.752H560.593L565.201 37.456L577.513 14.056H588.745V61H578.305V44.368C578.305 41.584 578.473 38.704 578.809 35.728C579.145 32.752 579.409 29.968 579.601 27.376H579.313L574.705 37.6L562.393 61H551.161ZM570.241 10.24C565.633 10.24 562.369 9.304 560.449 7.432C558.577 5.56 557.569 3.184 557.425 0.303996H566.353C566.449 1.744 566.785 2.872 567.361 3.688C567.985 4.504 568.945 4.912 570.241 4.912C571.537 4.912 572.497 4.504 573.121 3.688C573.745 2.872 574.081 1.744 574.129 0.303996H583.057C582.913 3.184 581.881 5.56 579.961 7.432C578.089 9.304 574.849 10.24 570.241 10.24ZM633.816 61.864C629.88 61.864 626.256 60.952 622.944 59.128C619.632 57.304 616.968 54.616 614.952 51.064C612.984 47.464 612 43.048 612 37.816C612 32.632 613.008 28.216 615.024 24.568C617.088 20.872 619.8 18.064 623.16 16.144C626.568 14.176 630.24 13.192 634.176 13.192C637.2 13.192 639.912 13.816 642.312 15.064C644.712 16.264 646.704 17.68 648.288 19.312L642.672 26.08C641.472 24.976 640.2 24.088 638.856 23.416C637.56 22.696 636.072 22.336 634.392 22.336C632.28 22.336 630.336 22.936 628.56 24.136C626.832 25.336 625.44 27.064 624.384 29.32C623.376 31.576 622.872 34.288 622.872 37.456C622.872 42.256 623.904 46 625.968 48.688C628.032 51.376 630.792 52.72 634.248 52.72C636.168 52.72 637.872 52.288 639.36 51.424C640.896 50.56 642.24 49.528 643.392 48.328L649.008 54.952C645.072 59.56 640.008 61.864 633.816 61.864ZM667.154 37.24L666.002 41.56H676.01L674.93 37.24C674.306 34.888 673.658 32.392 672.986 29.752C672.362 27.112 671.738 24.568 671.114 22.12H670.826C670.25 24.616 669.65 27.184 669.026 29.824C668.45 32.416 667.826 34.888 667.154 37.24ZM650.162 61L664.85 14.056H677.594L692.282 61H681.05L678.17 49.84H663.842L660.962 61H650.162ZM697.411 61V14.056H707.923V30.616C707.923 33.4 707.755 36.328 707.419 39.4C707.083 42.472 706.795 45.256 706.555 47.752H706.843L711.451 37.456L723.763 14.056H734.995V61H724.555V44.368C724.555 41.584 724.723 38.704 725.059 35.728C725.395 32.752 725.659 29.968 725.851 27.376H725.563L720.955 37.6L708.643 61H697.411ZM716.491 10.24C711.883 10.24 708.619 9.304 706.699 7.432C704.827 5.56 703.819 3.184 703.675 0.303996H712.603C712.699 1.744 713.035 2.872 713.611 3.688C714.235 4.504 715.195 4.912 716.491 4.912C717.787 4.912 718.747 4.504 719.371 3.688C719.995 2.872 720.331 1.744 720.379 0.303996H729.307C729.163 3.184 728.131 5.56 726.211 7.432C724.339 9.304 721.099 10.24 716.491 10.24ZM755.211 61V22.984H742.323V14.056H778.755V22.984H765.867V61H755.211Z" fill="url(#paint0_linear_326_433)" fill-opacity="0.4"/>
<defs>
<linearGradient id="paint0_linear_326_433" x1="99.0751" y1="16" x2="100.325" y2="59.419" gradientUnits="userSpaceOnUse">
<stop stop-color="#14FFEC"/>
<stop offset="1" stop-color="#8839FF"/>
</linearGradient>
</defs>
</svg>
