<svg width="271" height="75" viewBox="0 0 271 75" fill="none" xmlns="http://www.w3.org/2000/svg">
<path d="M19.296 37.24C18.672 40.36 17.976 43.168 17.208 45.664C16.44 48.112 15.504 50.248 14.4 52.072H30.96V22.984H21.888C21.552 24.856 21.264 26.512 21.024 27.952C20.784 29.344 20.52 30.76 20.232 32.2C19.992 33.64 19.68 35.32 19.296 37.24ZM11.304 61V74.536H1.872L0.936 58.696V52.072H3.096C3.816 51.832 4.536 51.16 5.256 50.056C6.024 48.952 6.792 47.272 7.56 45.016C8.328 42.712 9.072 39.664 9.792 35.872C10.32 33.088 10.776 30.64 11.16 28.528C11.544 26.368 11.928 24.16 12.312 21.904C12.744 19.648 13.2 17.032 13.68 14.056H41.544V52.072H47.304V58.696L46.368 74.536H36.936V61H11.304ZM53.4268 61V14.056H63.9388V30.616C63.9388 33.4 63.7708 36.328 63.4348 39.4C63.0988 42.472 62.8108 45.256 62.5708 47.752H62.8588L67.4668 37.456L79.7788 14.056H91.0108V61H80.5708V44.368C80.5708 41.584 80.7388 38.704 81.0748 35.728C81.4108 32.752 81.6748 29.968 81.8668 27.376H81.5788L76.9708 37.6L64.6588 61H53.4268ZM116.339 61.864C113.267 61.864 110.243 61.384 107.267 60.424C104.291 59.416 101.555 57.736 99.0591 55.384L104.675 48.112C106.451 49.744 108.299 50.92 110.219 51.64C112.139 52.36 114.131 52.72 116.195 52.72C118.595 52.72 120.563 52.168 122.099 51.064C123.635 49.96 124.403 48.4 124.403 46.384C124.403 44.416 123.707 42.976 122.315 42.064C120.923 41.152 118.787 40.696 115.907 40.696H109.643V32.848H114.467C117.299 32.848 119.291 32.392 120.443 31.48C121.595 30.52 122.171 29.2 122.171 27.52C122.171 25.696 121.547 24.376 120.299 23.56C119.099 22.744 117.515 22.336 115.547 22.336C113.723 22.336 112.043 22.672 110.507 23.344C108.971 23.968 107.435 24.856 105.899 26.008L100.571 18.952C104.843 15.112 109.955 13.192 115.907 13.192C121.331 13.192 125.459 14.32 128.291 16.576C131.123 18.832 132.539 21.904 132.539 25.792C132.539 28.048 132.035 30.088 131.027 31.912C130.019 33.688 128.531 35.032 126.563 35.944V36.232C128.915 36.856 130.859 38.128 132.395 40.048C133.979 41.968 134.771 44.344 134.771 47.176C134.771 50.392 133.955 53.104 132.323 55.312C130.691 57.472 128.483 59.104 125.699 60.208C122.963 61.312 119.843 61.864 116.339 61.864ZM153.74 37.24L152.588 41.56H162.596L161.516 37.24C160.892 34.888 160.244 32.392 159.572 29.752C158.948 27.112 158.324 24.568 157.7 22.12H157.412C156.836 24.616 156.236 27.184 155.612 29.824C155.036 32.416 154.412 34.888 153.74 37.24ZM136.748 61L151.436 14.056H164.18L178.868 61H167.636L164.756 49.84H150.428L147.548 61H136.748ZM183.997 61V14.056H194.509V30.616C194.509 33.4 194.341 36.328 194.005 39.4C193.669 42.472 193.381 45.256 193.141 47.752H193.429L198.037 37.456L210.349 14.056H221.581V61H211.141V44.368C211.141 41.584 211.309 38.704 211.645 35.728C211.981 32.752 212.245 29.968 212.437 27.376H212.149L207.541 37.6L195.229 61H183.997ZM203.077 10.24C198.469 10.24 195.205 9.304 193.285 7.432C191.413 5.56 190.405 3.184 190.261 0.303996H199.189C199.285 1.744 199.621 2.872 200.197 3.688C200.821 4.504 201.781 4.912 203.077 4.912C204.373 4.912 205.333 4.504 205.957 3.688C206.581 2.872 206.917 1.744 206.965 0.303996H215.893C215.749 3.184 214.717 5.56 212.797 7.432C210.925 9.304 207.685 10.24 203.077 10.24ZM232.653 61V14.056H243.237V32.128H259.437V14.056H270.093V61H259.437V41.416H243.237V61H232.653Z" fill="url(#paint0_linear_326_432)" fill-opacity="0.4"/>
<defs>
<linearGradient id="paint0_linear_326_432" x1="36.5454" y1="16" x2="40.0838" y2="59.1649" gradientUnits="userSpaceOnUse">
<stop stop-color="#14FFEC"/>
<stop offset="1" stop-color="#8839FF"/>
</linearGradient>
</defs>
</svg>
