<svg width="765" height="233" viewBox="0 0 765 233" fill="none" xmlns="http://www.w3.org/2000/svg">
<path d="M3.74279 141.045C4.00082 141.143 4.28973 141.014 4.38809 140.756C4.48645 140.498 4.35701 140.209 4.09897 140.111L3.74279 141.045ZM9.73861 142.402C9.48517 142.292 9.19083 142.409 9.0812 142.662C8.97157 142.916 9.08815 143.21 9.3416 143.32L9.73861 142.402ZM14.8435 145.856C15.0914 145.978 15.391 145.876 15.5127 145.628C15.6344 145.38 15.5321 145.08 15.2842 144.959L14.8435 145.856ZM20.7303 147.809C20.4891 147.674 20.1846 147.761 20.0501 148.002C19.9157 148.243 20.0022 148.548 20.2434 148.682L20.7303 147.809ZM25.4673 151.786C25.7006 151.934 26.0095 151.865 26.1572 151.631C26.3049 151.398 26.2354 151.089 26.0021 150.942L25.4673 151.786ZM31.0814 154.367C30.8571 154.206 30.5447 154.257 30.3836 154.481C30.2225 154.706 30.2738 155.018 30.4981 155.179L31.0814 154.367ZM35.3155 158.863C35.5297 159.037 35.8446 159.005 36.0189 158.79C36.1932 158.576 36.1608 158.261 35.9466 158.087L35.3155 158.863ZM40.5776 162.094C40.3743 161.907 40.058 161.92 39.8711 162.123C39.6842 162.327 39.6975 162.643 39.9008 162.83L40.5776 162.094ZM44.2412 167.064C44.4332 167.262 44.7498 167.268 44.9482 167.076C45.1467 166.884 45.152 166.567 44.96 166.369L44.2412 167.064ZM49.0905 170.883C48.9096 170.675 48.5938 170.652 48.3851 170.833C48.1765 171.014 48.1539 171.33 48.3348 171.538L49.0905 170.883ZM52.1932 176.219C52.3638 176.436 52.6782 176.473 52.8953 176.303C53.1124 176.132 53.1501 175.818 52.9795 175.601L52.1932 176.219ZM56.6622 180.491C56.5002 180.267 56.1876 180.217 55.964 180.379C55.7403 180.541 55.6903 180.853 55.8522 181.077L56.6622 180.491ZM59.3491 186.063C59.5047 186.291 59.8158 186.35 60.0439 186.195C60.2721 186.039 60.3309 185.728 60.1753 185.5L59.3491 186.063ZM63.5734 190.573C63.4211 190.343 63.111 190.28 62.8806 190.432C62.6502 190.584 62.587 190.895 62.7392 191.125L63.5734 190.573ZM66.0963 196.211C66.2489 196.441 66.5592 196.504 66.7894 196.351C67.0195 196.199 67.0823 195.888 66.9297 195.658L66.0963 196.211ZM70.3362 200.704C70.179 200.477 69.8676 200.42 69.6405 200.578C69.4134 200.735 69.3567 201.046 69.5138 201.273L70.3362 200.704ZM73.0895 206.243C73.2557 206.463 73.5692 206.507 73.7897 206.341C74.0103 206.175 74.0543 205.861 73.8881 205.641L73.0895 206.243ZM77.6779 210.373C77.4982 210.163 77.1826 210.139 76.9729 210.318C76.7633 210.498 76.739 210.814 76.9187 211.023L77.6779 210.373ZM81.0992 215.516C81.296 215.71 81.6126 215.707 81.8062 215.51C81.9999 215.313 81.9972 214.997 81.8003 214.803L81.0992 215.516ZM86.3147 218.814C86.0988 218.642 85.7842 218.677 85.612 218.893C85.4398 219.109 85.4753 219.424 85.6912 219.596L86.3147 218.814ZM90.7164 223.154C90.9506 223.3 91.2591 223.228 91.4053 222.994C91.5515 222.76 91.4801 222.451 91.2458 222.305L90.7164 223.154ZM96.5386 225.193C96.2889 225.075 95.9909 225.182 95.8728 225.432C95.7548 225.681 95.8615 225.979 96.1111 226.097L96.5386 225.193ZM101.79 228.409C102.051 228.499 102.335 228.361 102.426 228.1C102.516 227.839 102.378 227.554 102.117 227.464L101.79 228.409ZM107.912 229.156C107.644 229.091 107.374 229.256 107.309 229.525C107.244 229.793 107.409 230.063 107.677 230.128L107.912 229.156ZM113.691 231.317C113.964 231.359 114.22 231.173 114.262 230.9C114.305 230.627 114.119 230.372 113.846 230.329L113.691 231.317ZM119.858 231.053C119.583 231.029 119.341 231.233 119.317 231.508C119.293 231.783 119.497 232.025 119.772 232.049L119.858 231.053ZM125.888 232.398C126.164 232.406 126.394 232.189 126.402 231.913C126.41 231.637 126.193 231.406 125.917 231.398L125.888 232.398ZM132.014 231.424C131.738 231.429 131.519 231.657 131.524 231.933C131.529 232.209 131.758 232.429 132.034 232.424L132.014 231.424ZM138.179 232.176C138.455 232.16 138.665 231.923 138.648 231.647C138.632 231.372 138.395 231.162 138.119 231.178L138.179 232.176ZM144.114 230.713C143.839 230.739 143.638 230.983 143.663 231.258C143.689 231.533 143.933 231.735 144.208 231.709L144.114 230.713ZM0.831832 139.971C1.81842 140.323 2.78861 140.681 3.74279 141.045L4.09897 140.111C3.13813 139.744 2.16133 139.384 1.16817 139.029L0.831832 139.971ZM9.3416 143.32C11.2433 144.142 13.076 144.988 14.8435 145.856L15.2842 144.959C13.502 144.084 11.6548 143.231 9.73861 142.402L9.3416 143.32ZM20.2434 148.682C22.0579 149.694 23.7974 150.73 25.4673 151.786L26.0021 150.942C24.3164 149.875 22.561 148.829 20.7303 147.809L20.2434 148.682ZM30.4981 155.179C32.1784 156.386 33.7818 157.615 35.3155 158.863L35.9466 158.087C34.3976 156.827 32.7782 155.585 31.0814 154.367L30.4981 155.179ZM39.9008 162.83C41.4179 164.225 42.8617 165.638 44.2412 167.064L44.96 166.369C43.5675 164.929 42.1098 163.502 40.5776 162.094L39.9008 162.83ZM48.3348 171.538C49.6798 173.09 50.9622 174.652 52.1932 176.219L52.9795 175.601C51.7395 174.023 50.4469 172.448 49.0905 170.883L48.3348 171.538ZM55.8522 181.077C57.0581 182.742 58.2192 184.407 59.3491 186.063L60.1753 185.5C59.0413 183.837 57.8747 182.165 56.6622 180.491L55.8522 181.077ZM62.7392 191.125C63.8711 192.837 64.9873 194.538 66.0963 196.211L66.9297 195.658C65.8202 193.985 64.7089 192.291 63.5734 190.573L62.7392 191.125ZM69.5138 201.273C70.686 202.967 71.872 204.627 73.0895 206.243L73.8881 205.641C72.6808 204.039 71.5028 202.39 70.3362 200.704L69.5138 201.273ZM76.9187 211.023C78.253 212.58 79.6401 214.081 81.0992 215.516L81.8003 214.803C80.3639 213.39 78.9962 211.911 77.6779 210.373L76.9187 211.023ZM85.6912 219.596C87.2737 220.858 88.9428 222.047 90.7164 223.154L91.2458 222.305C89.5062 221.22 87.8685 220.053 86.3147 218.814L85.6912 219.596ZM96.1111 226.097C97.902 226.944 99.7905 227.717 101.79 228.409L102.117 227.464C100.151 226.784 98.2962 226.025 96.5386 225.193L96.1111 226.097ZM107.677 230.128C109.588 230.59 111.59 230.988 113.691 231.317L113.846 230.329C111.771 230.004 109.796 229.612 107.912 229.156L107.677 230.128ZM119.772 232.049C121.731 232.219 123.768 232.336 125.888 232.398L125.917 231.398C123.815 231.337 121.797 231.221 119.858 231.053L119.772 232.049ZM132.034 232.424C134.014 232.385 136.062 232.304 138.179 232.176L138.119 231.178C136.015 231.305 133.981 231.386 132.014 231.424L132.034 232.424ZM144.208 231.709C145.236 231.612 146.28 231.505 147.339 231.388L147.229 230.394C146.175 230.51 145.137 230.617 144.114 230.713L144.208 231.709Z" fill="#FEFEFE"/>
<path d="M761.195 2.42529C760.935 2.51783 760.649 2.38194 760.557 2.12177C760.464 1.86159 760.6 1.57566 760.86 1.48312L761.195 2.42529ZM755.18 3.92762C755.426 3.80178 755.727 3.89904 755.853 4.14484C755.979 4.39065 755.881 4.69192 755.636 4.81776L755.18 3.92762ZM750.457 7.94221C750.231 8.10114 749.919 8.04691 749.76 7.82109C749.601 7.59526 749.655 7.28336 749.881 7.12443L750.457 7.94221ZM745.081 11.0318C745.283 10.8432 745.599 10.8537 745.788 11.0554C745.976 11.2571 745.966 11.5735 745.764 11.7621L745.081 11.0318ZM741.615 16.1823C741.439 16.3951 741.124 16.4248 740.911 16.2488C740.699 16.0727 740.669 15.7575 740.845 15.5448L741.615 16.1823ZM737.175 20.5264C737.326 20.2957 737.636 20.2317 737.867 20.3835C738.098 20.5353 738.162 20.8453 738.01 21.076L737.175 20.5264ZM734.901 26.3154C734.77 26.5587 734.467 26.65 734.224 26.5194C733.981 26.3888 733.889 26.0857 734.02 25.8424L734.901 26.3154ZM731.304 31.3776C731.417 31.1258 731.713 31.0135 731.965 31.1268C732.217 31.2401 732.329 31.5361 732.215 31.788L731.304 31.3776ZM729.865 37.4242C729.765 37.6816 729.475 37.8093 729.218 37.7094C728.96 37.6095 728.832 37.3198 728.932 37.0624L729.865 37.4242ZM726.822 42.8431C726.912 42.582 727.196 42.4434 727.457 42.5335C727.718 42.6236 727.857 42.9083 727.767 43.1693L726.822 42.8431ZM725.847 48.9844C725.764 49.2477 725.483 49.3933 725.22 49.3098C724.956 49.2262 724.811 48.9451 724.894 48.6819L725.847 48.9844ZM723.081 54.5517C723.161 54.2874 723.44 54.138 723.704 54.2179C723.968 54.2979 724.118 54.577 724.038 54.8413L723.081 54.5517ZM722.274 60.7179C722.195 60.9824 721.916 61.1326 721.652 61.0534C721.387 60.9742 721.237 60.6955 721.316 60.431L722.274 60.7179ZM719.54 66.3012C719.622 66.0372 719.901 65.8891 720.165 65.9702C720.429 66.0514 720.577 66.3312 720.496 66.5951L719.54 66.3012ZM718.643 72.4542C718.557 72.7167 718.275 72.8599 718.013 72.774C717.75 72.6882 717.607 72.4059 717.693 72.1434L718.643 72.4542ZM715.712 77.9358C715.805 77.6759 716.092 77.5409 716.352 77.6342C716.612 77.7275 716.747 78.0139 716.653 78.2738L715.712 77.9358ZM714.462 84.0265C714.358 84.2824 714.067 84.4057 713.811 84.302C713.555 84.1982 713.431 83.9066 713.535 83.6507L714.462 84.0265ZM711.095 89.2508C711.212 89.0008 711.51 88.8933 711.76 89.0107C712.01 89.128 712.117 89.4258 712 89.6758L711.095 89.2508ZM709.197 95.1708C709.063 95.4122 708.758 95.4992 708.517 95.3651C708.276 95.2311 708.189 94.9267 708.323 94.6853L709.197 95.1708ZM705.152 99.8864C705.306 99.657 705.617 99.5956 705.846 99.7494C706.076 99.9031 706.137 100.214 705.983 100.443L705.152 99.8864ZM702.3 105.405C702.125 105.618 701.81 105.649 701.596 105.473C701.383 105.297 701.353 104.982 701.528 104.769L702.3 105.405ZM697.418 109.237C697.616 109.044 697.933 109.049 698.125 109.247C698.317 109.446 698.313 109.762 698.115 109.954L697.418 109.237ZM693.43 113.99C693.21 114.157 692.897 114.115 692.729 113.895C692.562 113.675 692.604 113.362 692.824 113.194L693.43 113.99ZM687.788 116.568C688.026 116.429 688.333 116.509 688.472 116.747C688.612 116.985 688.532 117.292 688.294 117.431L687.788 116.568ZM682.787 120.238C682.534 120.35 682.239 120.235 682.128 119.982C682.017 119.729 682.131 119.434 682.384 119.323L682.787 120.238ZM676.696 121.466C676.959 121.382 677.24 121.527 677.324 121.79C677.408 122.053 677.262 122.335 676.999 122.418L676.696 121.466ZM671.007 124.014C670.737 124.072 670.47 123.901 670.412 123.631C670.353 123.362 670.524 123.095 670.794 123.037L671.007 124.014ZM664.788 124.084C665.061 124.048 665.313 124.24 665.35 124.514C665.386 124.787 665.194 125.039 664.92 125.076L664.788 124.084ZM658.841 125.673C658.565 125.69 658.328 125.481 658.31 125.206C658.292 124.93 658.501 124.693 658.777 124.675L658.841 125.673ZM652.684 124.881C652.96 124.88 653.185 125.103 653.186 125.379C653.187 125.655 652.965 125.88 652.689 125.881L652.684 124.881ZM646.429 125.746C646.153 125.733 645.94 125.499 645.953 125.223C645.966 124.947 646.2 124.734 646.475 124.747L646.429 125.746ZM640.497 124.334C640.772 124.359 640.974 124.602 640.95 124.877C640.925 125.152 640.682 125.355 640.407 125.33L640.497 124.334ZM634.25 124.653C633.976 124.617 633.783 124.367 633.818 124.093C633.854 123.819 634.104 123.626 634.378 123.661L634.25 124.653ZM628.352 122.779C628.624 122.824 628.809 123.081 628.765 123.353C628.72 123.626 628.464 123.811 628.191 123.766L628.352 122.779ZM764.138 1.48036C763.13 1.77076 762.149 2.08605 761.195 2.42529L760.86 1.48312C761.833 1.1369 762.834 0.815357 763.862 0.519392L764.138 1.48036ZM755.636 4.81776C753.798 5.75852 752.075 6.80311 750.457 7.94221L749.881 7.12443C751.538 5.95861 753.3 4.8898 755.18 3.92762L755.636 4.81776ZM745.764 11.7621C744.285 13.1455 742.906 14.6223 741.615 16.1823L740.845 15.5448C742.161 13.9541 743.569 12.446 745.081 11.0318L745.764 11.7621ZM738.01 21.076C736.905 22.7558 735.873 24.5054 734.901 26.3154L734.02 25.8424C735.004 24.009 736.052 22.2335 737.175 20.5264L738.01 21.076ZM732.215 31.788C731.389 33.6236 730.609 35.5052 729.865 37.4242L728.932 37.0624C729.682 35.1295 730.469 33.2315 731.304 31.3776L732.215 31.788ZM727.767 43.1693C727.106 45.0839 726.469 47.0248 725.847 48.9844L724.894 48.6819C725.518 46.7163 726.158 44.7673 726.822 42.8431L727.767 43.1693ZM724.038 54.8413C723.447 56.7929 722.863 58.7535 722.274 60.7179L721.316 60.431C721.904 58.4681 722.49 56.5051 723.081 54.5517L724.038 54.8413ZM720.496 66.5951C719.893 68.5555 719.279 70.5111 718.643 72.4542L717.693 72.1434C718.326 70.2075 718.939 68.2577 719.54 66.3012L720.496 66.5951ZM716.653 78.2738C715.956 80.2145 715.229 82.1348 714.462 84.0265L713.535 83.6507C714.297 81.7733 715.019 79.8658 715.712 77.9358L716.653 78.2738ZM712 89.6758C711.121 91.5486 710.19 93.3833 709.197 95.1708L708.323 94.6853C709.303 92.9196 710.224 91.1053 711.095 89.2508L712 89.6758ZM705.983 100.443C704.834 102.158 703.61 103.815 702.3 105.405L701.528 104.769C702.815 103.206 704.02 101.576 705.152 99.8864L705.983 100.443ZM698.115 109.954C696.649 111.377 695.091 112.725 693.43 113.99L692.824 113.194C694.452 111.954 695.98 110.632 697.418 109.237L698.115 109.954ZM688.294 117.431C686.557 118.449 684.724 119.387 682.787 120.238L682.384 119.323C684.286 118.487 686.085 117.566 687.788 116.568L688.294 117.431ZM676.999 122.418C675.092 123.026 673.096 123.559 671.007 124.014L670.794 123.037C672.854 122.588 674.819 122.063 676.696 121.466L676.999 122.418ZM664.92 125.076C662.968 125.337 660.943 125.537 658.841 125.673L658.777 124.675C660.857 124.541 662.859 124.343 664.788 124.084L664.92 125.076ZM652.689 125.881C650.667 125.891 648.582 125.847 646.429 125.746L646.475 124.747C648.612 124.847 650.68 124.891 652.684 124.881L652.689 125.881ZM640.407 125.33C638.409 125.15 636.357 124.925 634.25 124.653L634.378 123.661C636.473 123.931 638.512 124.155 640.497 124.334L640.407 125.33ZM628.191 123.766C627.156 123.598 626.109 123.419 625.05 123.229L625.226 122.244C626.281 122.433 627.322 122.611 628.352 122.779L628.191 123.766Z" fill="#FEFEFE"/>
<path d="M454.925 89.9106C454.654 89.859 454.476 89.5973 454.527 89.326C454.579 89.0547 454.84 88.8766 455.112 88.9282L454.925 89.9106ZM449.283 87.8728C449.555 87.9195 449.737 88.178 449.691 88.4502C449.644 88.7223 449.385 88.9051 449.113 88.8584L449.283 87.8728ZM443.25 87.9099C442.977 87.8686 442.789 87.6137 442.83 87.3407C442.872 87.0676 443.127 86.8798 443.4 86.9212L443.25 87.9099ZM437.574 86.1005C437.848 86.1361 438.041 86.3869 438.006 86.6608C437.97 86.9346 437.719 87.1278 437.445 87.0922L437.574 86.1005ZM431.512 86.3916C431.238 86.3625 431.039 86.1163 431.068 85.8417C431.097 85.5671 431.343 85.3681 431.617 85.3971L431.512 86.3916ZM425.745 84.8502C426.021 84.8722 426.226 85.1132 426.204 85.3885C426.182 85.6638 425.941 85.8691 425.666 85.847L425.745 84.8502ZM419.753 85.4576C419.478 85.4435 419.266 85.2084 419.28 84.9327C419.294 84.6569 419.529 84.4448 419.805 84.4589L419.753 85.4576ZM413.842 84.2464C414.118 84.2518 414.337 84.48 414.332 84.7561C414.327 85.0322 414.098 85.2516 413.822 85.2463L413.842 84.2464ZM407.942 85.2329C407.665 85.2372 407.438 85.0169 407.434 84.7408C407.43 84.4646 407.65 84.2373 407.926 84.233L407.942 85.2329ZM402.008 84.4384C402.284 84.4234 402.52 84.6347 402.535 84.9104C402.55 85.1862 402.338 85.4219 402.063 85.437L402.008 84.4384ZM396.141 85.8885C395.867 85.9156 395.622 85.7149 395.595 85.4401C395.567 85.1653 395.768 84.9205 396.043 84.8933L396.141 85.8885ZM390.128 85.6213C390.401 85.5807 390.656 85.7693 390.696 86.0425C390.737 86.3156 390.548 86.5699 390.275 86.6104L390.128 85.6213ZM384.468 87.6308C384.198 87.6861 383.934 87.5116 383.878 87.241C383.823 86.9705 383.998 86.7063 384.268 86.6511L384.468 87.6308ZM378.476 88.0137C378.743 87.9423 379.017 88.1007 379.088 88.3674C379.16 88.6342 379.001 88.9083 378.735 88.9797L378.476 88.0137ZM373.099 90.6865C372.837 90.7753 372.553 90.6353 372.464 90.3739C372.376 90.1124 372.516 89.8284 372.777 89.7396L373.099 90.6865ZM367.205 91.8546C367.46 91.7474 367.753 91.8667 367.86 92.1211C367.967 92.3756 367.848 92.6688 367.594 92.7761L367.205 91.8546ZM362.259 95.2653C362.013 95.3916 361.712 95.2949 361.586 95.0493C361.459 94.8037 361.556 94.5023 361.802 94.376L362.259 95.2653ZM356.61 97.3084C356.845 97.1632 357.153 97.2359 357.298 97.4708C357.443 97.7057 357.371 98.0138 357.136 98.159L356.61 97.3084ZM352.26 101.448C352.037 101.611 351.724 101.563 351.561 101.341C351.397 101.118 351.445 100.805 351.668 100.642L352.26 101.448ZM347.005 104.351C347.215 104.17 347.53 104.194 347.71 104.404C347.89 104.613 347.867 104.929 347.657 105.109L347.005 104.351ZM343.337 109.11C343.141 109.305 342.824 109.304 342.63 109.108C342.435 108.913 342.436 108.596 342.631 108.401L343.337 109.11ZM338.548 112.747C338.73 112.539 339.046 112.519 339.254 112.702C339.461 112.884 339.481 113.2 339.298 113.408L338.548 112.747ZM335.53 117.946C335.36 118.163 335.045 118.201 334.828 118.031C334.611 117.86 334.573 117.546 334.743 117.329L335.53 117.946ZM331.186 122.098C331.346 121.873 331.659 121.82 331.884 121.98C332.109 122.14 332.161 122.452 332.001 122.677L331.186 122.098ZM328.67 127.558C328.518 127.789 328.208 127.853 327.977 127.701C327.746 127.549 327.682 127.239 327.834 127.008L328.67 127.558ZM324.637 132.018C324.783 131.784 325.091 131.712 325.326 131.858C325.561 132.003 325.633 132.312 325.487 132.546L324.637 132.018ZM322.401 137.601C322.259 137.837 321.952 137.913 321.715 137.771C321.479 137.629 321.402 137.321 321.545 137.085L322.401 137.601ZM318.499 142.169C318.641 141.932 318.948 141.855 319.185 141.997C319.421 142.139 319.498 142.446 319.357 142.683L318.499 142.169ZM316.285 147.763C316.141 147.999 315.833 148.073 315.598 147.928C315.362 147.784 315.288 147.476 315.433 147.241L316.285 147.763ZM312.286 152.252C312.436 152.021 312.745 151.954 312.977 152.104C313.209 152.254 313.276 152.563 313.126 152.795L312.286 152.252ZM309.811 157.728C309.652 157.954 309.34 158.008 309.114 157.85C308.888 157.691 308.834 157.379 308.993 157.153L309.811 157.728ZM305.476 161.895C305.647 161.678 305.961 161.64 306.178 161.811C306.395 161.982 306.432 162.296 306.262 162.513L305.476 161.895ZM457.902 90.4904C456.902 90.2911 455.909 90.0979 454.925 89.9106L455.112 88.9282C456.099 89.116 457.094 89.3098 458.098 89.5096L457.902 90.4904ZM449.113 88.8584C447.125 88.517 445.171 88.201 443.25 87.9099L443.4 86.9212C445.327 87.2133 447.288 87.5303 449.283 87.8728L449.113 88.8584ZM437.445 87.0922C435.429 86.8302 433.452 86.597 431.512 86.3916L431.617 85.3971C433.565 85.6034 435.551 85.8376 437.574 86.1005L437.445 87.0922ZM425.666 85.847C423.652 85.686 421.682 85.5565 419.753 85.4576L419.805 84.4589C421.743 84.5583 423.723 84.6884 425.745 84.8502L425.666 85.847ZM413.822 85.2463C411.815 85.2072 409.855 85.2032 407.942 85.2329L407.926 84.233C409.851 84.2031 411.823 84.2072 413.842 84.2464L413.822 85.2463ZM402.063 85.437C400.034 85.5477 398.061 85.6988 396.141 85.8885L396.043 84.8933C397.978 84.7022 399.965 84.55 402.008 84.4384L402.063 85.437ZM390.275 86.6104C388.278 86.9067 386.344 87.2477 384.468 87.6308L384.268 86.6511C386.162 86.2642 388.114 85.9201 390.128 85.6213L390.275 86.6104ZM378.735 88.9797C376.788 89.5008 374.911 90.0708 373.099 90.6865L372.777 89.7396C374.61 89.1167 376.509 88.5404 378.476 88.0137L378.735 88.9797ZM367.594 92.7761C365.744 93.556 363.967 94.3872 362.259 95.2653L361.802 94.376C363.532 93.4862 365.332 92.6443 367.205 91.8546L367.594 92.7761ZM357.136 98.159C355.44 99.2075 353.817 100.306 352.26 101.448L351.668 100.642C353.246 99.484 354.891 98.371 356.61 97.3084L357.136 98.159ZM347.657 105.109C346.154 106.401 344.717 107.737 343.337 109.11L342.631 108.401C344.027 107.012 345.483 105.66 347.005 104.351L347.657 105.109ZM339.298 113.408C337.992 114.89 336.739 116.405 335.53 117.946L334.743 117.329C335.963 115.774 337.228 114.245 338.548 112.747L339.298 113.408ZM332.001 122.677C330.857 124.287 329.749 125.916 328.67 127.558L327.834 127.008C328.919 125.358 330.034 123.719 331.186 122.098L332.001 122.677ZM325.487 132.546C324.441 134.228 323.416 135.915 322.401 137.601L321.545 137.085C322.561 135.397 323.589 133.706 324.637 132.018L325.487 132.546ZM319.357 142.683C318.334 144.389 317.314 146.085 316.285 147.763L315.433 147.241C316.458 145.567 317.477 143.874 318.499 142.169L319.357 142.683ZM313.126 152.795C312.044 154.47 310.942 156.117 309.811 157.728L308.993 157.153C310.115 155.555 311.209 153.918 312.286 152.252L313.126 152.795ZM306.262 162.513C305.646 163.295 305.02 164.065 304.382 164.822L303.618 164.178C304.248 163.43 304.867 162.668 305.476 161.895L306.262 162.513Z" fill="#FEFEFE"/>
</svg>
