<svg width="608" height="171" viewBox="0 0 608 171" fill="none" xmlns="http://www.w3.org/2000/svg">
<path d="M3.71652 103.554C3.97358 103.655 4.26374 103.528 4.3646 103.271C4.46546 103.014 4.33884 102.724 4.08177 102.623L3.71652 103.554ZM9.7071 105.032C9.45686 104.915 9.15934 105.024 9.04259 105.274C8.92583 105.524 9.03405 105.822 9.28429 105.938L9.7071 105.032ZM14.6741 108.682C14.9156 108.816 15.22 108.729 15.3539 108.487C15.4878 108.246 15.4006 107.941 15.1591 107.807L14.6741 108.682ZM20.3868 110.969C20.1562 110.817 19.8461 110.881 19.6942 111.112C19.5423 111.342 19.6061 111.652 19.8367 111.804L20.3868 110.969ZM24.7626 115.342C24.9801 115.512 25.2943 115.474 25.4645 115.256C25.6346 115.039 25.5962 114.725 25.3787 114.555L24.7626 115.342ZM30.0512 118.532C29.8484 118.344 29.5321 118.356 29.3446 118.559C29.1571 118.762 29.1695 119.078 29.3722 119.266L30.0512 118.532ZM33.6397 123.542C33.827 123.744 34.1434 123.757 34.3463 123.57C34.5492 123.382 34.5618 123.066 34.3745 122.863L33.6397 123.542ZM38.3716 127.518C38.1989 127.303 37.8842 127.268 37.6687 127.441C37.4533 127.613 37.4186 127.928 37.5912 128.144L38.3716 127.518ZM41.2447 132.982C41.4054 133.206 41.7177 133.258 41.9423 133.098C42.1668 132.937 42.2186 132.625 42.0579 132.4L41.2447 132.982ZM45.5187 137.433C45.3656 137.203 45.0551 137.141 44.8253 137.294C44.5955 137.447 44.5334 137.757 44.6865 137.987L45.5187 137.433ZM48.0377 143.079C48.1893 143.31 48.4993 143.374 48.7301 143.223C48.9609 143.071 49.025 142.761 48.8734 142.53L48.0377 143.079ZM52.2649 147.576C52.1071 147.35 51.7955 147.294 51.5688 147.452C51.3422 147.609 51.2864 147.921 51.4441 148.148L52.2649 147.576ZM55.0885 153.068C55.2608 153.284 55.5754 153.319 55.7912 153.147C56.007 152.975 56.0423 152.66 55.87 152.444L55.0885 153.068ZM59.8681 156.967C59.6737 156.771 59.3571 156.769 59.161 156.964C58.9649 157.158 58.9635 157.475 59.1579 157.671L59.8681 156.967ZM63.7872 161.736C64.0075 161.902 64.3211 161.858 64.4875 161.638C64.6539 161.418 64.6101 161.104 64.3898 160.938L63.7872 161.736ZM69.4477 164.162C69.2038 164.033 68.9011 164.125 68.7717 164.369C68.6423 164.613 68.7352 164.916 68.9792 165.045L69.4477 164.162ZM74.6224 167.502C74.8831 167.593 75.1683 167.455 75.2594 167.195C75.3506 166.934 75.2131 166.649 74.9525 166.558L74.6224 167.502ZM80.7708 168.166C80.5006 168.109 80.2354 168.282 80.1785 168.552C80.1216 168.822 80.2945 169.088 80.5648 169.145L80.7708 168.166ZM86.6224 170.086C86.897 170.115 87.1431 169.916 87.172 169.641C87.201 169.367 87.0018 169.121 86.7272 169.092L86.6224 170.086ZM92.7462 169.473C92.4702 169.466 92.2408 169.684 92.234 169.96C92.2271 170.236 92.4454 170.466 92.7214 170.473L92.7462 169.473ZM98.8396 170.424C99.1155 170.413 99.3306 170.181 99.32 169.905C99.3095 169.629 99.0772 169.414 98.8012 169.424L98.8396 170.424ZM104.852 169.034C104.577 169.059 104.374 169.302 104.399 169.577C104.423 169.852 104.666 170.055 104.941 170.031L104.852 169.034ZM0.830999 102.471C1.81496 102.824 2.77655 103.185 3.71652 103.554L4.08177 102.623C3.13265 102.251 2.16197 101.886 1.169 101.529L0.830999 102.471ZM9.28429 105.938C11.1765 106.821 12.9703 107.737 14.6741 108.682L15.1591 107.807C13.4346 106.851 11.62 105.925 9.7071 105.032L9.28429 105.938ZM19.8367 111.804C21.581 112.953 23.2188 114.135 24.7626 115.342L25.3787 114.555C23.8138 113.33 22.154 112.133 20.3868 110.969L19.8367 111.804ZM29.3722 119.266C30.8894 120.669 32.3062 122.097 33.6397 123.542L34.3745 122.863C33.0242 121.401 31.5889 119.954 30.0512 118.532L29.3722 119.266ZM37.5912 128.144C38.8791 129.751 40.0894 131.367 41.2447 132.982L42.0579 132.4C40.8942 130.773 39.6729 129.142 38.3716 127.518L37.5912 128.144ZM44.6865 137.987C45.8315 139.706 46.9376 141.405 48.0377 143.079L48.8734 142.53C47.7765 140.861 46.666 139.155 45.5187 137.433L44.6865 137.987ZM51.4441 148.148C52.624 149.843 53.8278 151.489 55.0885 153.068L55.87 152.444C54.6268 150.887 53.4363 149.259 52.2649 147.576L51.4441 148.148ZM59.1579 157.671C60.5944 159.12 62.1257 160.481 63.7872 161.736L64.3898 160.938C62.7703 159.715 61.2747 158.386 59.8681 156.967L59.1579 157.671ZM68.9792 165.045C70.7219 165.97 72.5947 166.793 74.6224 167.502L74.9525 166.558C72.9716 165.865 71.1452 165.062 69.4477 164.162L68.9792 165.045ZM80.5648 169.145C82.4623 169.544 84.477 169.86 86.6224 170.086L86.7272 169.092C84.6135 168.869 82.6327 168.558 80.7708 168.166L80.5648 169.145ZM92.7214 170.473C94.664 170.521 96.7009 170.506 98.8396 170.424L98.8012 169.424C96.6822 169.506 94.6663 169.521 92.7462 169.473L92.7214 170.473ZM104.941 170.031C105.958 169.94 106.996 169.837 108.055 169.719L107.945 168.725C106.893 168.842 105.862 168.945 104.852 169.034L104.941 170.031Z" fill="#FEFEFE"/>
<path d="M604.395 2.39649C604.137 2.49546 603.848 2.36671 603.749 2.10891C603.65 1.85111 603.779 1.56189 604.036 1.46292L604.395 2.39649ZM598.769 4.07728C599.003 3.93107 599.311 4.00244 599.458 4.2367C599.604 4.47095 599.533 4.77938 599.298 4.9256L598.769 4.07728ZM594.785 8.41022C594.584 8.59954 594.268 8.59005 594.078 8.38902C593.889 8.18799 593.899 7.87155 594.1 7.68223L594.785 8.41022ZM590.196 12.0855C590.361 11.8641 590.674 11.8185 590.896 11.9836C591.117 12.1487 591.163 12.462 590.998 12.6833L590.196 12.0855ZM587.904 17.5187C587.771 17.7605 587.466 17.8483 587.225 17.7148C586.983 17.5813 586.895 17.2772 587.029 17.0354L587.904 17.5187ZM584.468 22.298C584.578 22.0445 584.872 21.9276 585.125 22.0369C585.379 22.1463 585.496 22.4405 585.387 22.6941L584.468 22.298ZM583.281 28.0802C583.188 28.3402 582.902 28.4758 582.642 28.3829C582.382 28.29 582.247 28.0039 582.34 27.7438L583.281 28.0802ZM580.492 33.272C580.576 33.0087 580.856 32.8627 581.12 32.9459C581.383 33.0291 581.529 33.31 581.446 33.5733L580.492 33.272ZM579.746 39.1244C579.666 39.3889 579.388 39.5388 579.123 39.4593C578.859 39.3798 578.709 39.101 578.788 38.8366L579.746 39.1244ZM577.106 44.3976C577.187 44.1337 577.467 43.9857 577.731 44.067C577.995 44.1483 578.143 44.4282 578.062 44.6921L577.106 44.3976ZM576.278 50.2399C576.189 50.5014 575.905 50.6415 575.644 50.5529C575.382 50.4642 575.242 50.1803 575.331 49.9188L576.278 50.2399ZM573.347 55.3499C573.448 55.0933 573.739 54.9677 573.996 55.0695C574.252 55.1713 574.378 55.4619 574.276 55.7186L573.347 55.3499ZM571.924 61.0779C571.802 61.326 571.503 61.4289 571.255 61.3077C571.007 61.1865 570.904 60.8872 571.025 60.639L571.924 61.0779ZM568.243 65.6741C568.39 65.4401 568.699 65.3695 568.933 65.5163C569.166 65.663 569.237 65.9716 569.09 66.2056L568.243 65.6741ZM565.648 70.9636C565.471 71.1753 565.156 71.2033 564.944 71.026C564.732 70.8487 564.704 70.5334 564.882 70.3216L565.648 70.9636ZM560.872 74.4055C561.081 74.225 561.397 74.2481 561.577 74.4571C561.758 74.6661 561.735 74.9819 561.526 75.1623L560.872 74.4055ZM556.765 78.61C556.528 78.7523 556.221 78.6757 556.079 78.4391C555.937 78.2024 556.013 77.8952 556.25 77.7529L556.765 78.61ZM551.128 80.2828C551.384 80.1806 551.675 80.3057 551.777 80.5622C551.88 80.8187 551.755 81.1095 551.498 81.2118L551.128 80.2828ZM545.881 82.9903C545.613 83.0554 545.342 82.8907 545.277 82.6224C545.212 82.354 545.377 82.0837 545.645 82.0185L545.881 82.9903ZM539.968 83.0412C540.242 83.0075 540.491 83.2024 540.525 83.4765C540.559 83.7505 540.364 84.0001 540.09 84.0338L539.968 83.0412ZM534.257 84.4681C533.981 84.4763 533.751 84.2592 533.743 83.9832C533.735 83.7071 533.952 83.4767 534.228 83.4685L534.257 84.4681ZM528.45 83.4166C528.726 83.429 528.939 83.6627 528.927 83.9386C528.914 84.2144 528.681 84.428 528.405 84.4156L528.45 83.4166ZM522.623 83.9755C522.348 83.9465 522.149 83.7005 522.178 83.4258C522.207 83.1512 522.453 82.9521 522.727 82.981L522.623 83.9755ZM517.03 82.2338C517.303 82.2762 517.49 82.5318 517.447 82.8047C517.405 83.0776 517.149 83.2644 516.877 83.2219L517.03 82.2338ZM607.138 1.48062C606.187 1.75348 605.273 2.05938 604.395 2.39649L604.036 1.46292C604.942 1.11516 605.884 0.800079 606.862 0.51938L607.138 1.48062ZM599.298 4.9256C597.649 5.95479 596.153 7.12252 594.785 8.41022L594.1 7.68223C595.513 6.35129 597.062 5.14279 598.769 4.07728L599.298 4.9256ZM590.998 12.6833C589.868 14.1986 588.844 15.8165 587.904 17.5187L587.029 17.0354C587.987 15.299 589.035 13.6421 590.196 12.0855L590.998 12.6833ZM585.387 22.6941C584.635 24.437 583.939 26.2376 583.281 28.0802L582.34 27.7438C583.003 25.8858 583.706 24.0647 584.468 22.298L585.387 22.6941ZM581.446 33.5733C580.867 35.4055 580.306 37.2601 579.746 39.1244L578.788 38.8366C579.349 36.9718 579.911 35.1115 580.492 33.272L581.446 33.5733ZM578.062 44.6921C577.489 46.5517 576.899 48.4061 576.278 50.2399L575.331 49.9188C575.948 48.0968 576.535 46.252 577.106 44.3976L578.062 44.6921ZM574.276 55.7186C573.551 57.5466 572.773 59.3385 571.924 61.0779L571.025 60.639C571.861 58.9264 572.629 57.1585 573.347 55.3499L574.276 55.7186ZM569.09 66.2056C568.046 67.8701 566.905 69.4621 565.648 70.9636L564.882 70.3216C566.106 68.8587 567.22 67.3042 568.243 65.6741L569.09 66.2056ZM561.526 75.1623C560.071 76.4187 558.49 77.5732 556.765 78.61L556.25 77.7529C557.924 76.7462 559.459 75.6254 560.872 74.4055L561.526 75.1623ZM551.498 81.2118C549.749 81.9086 547.881 82.5047 545.881 82.9903L545.645 82.0185C547.601 81.5435 549.425 80.9615 551.128 80.2828L551.498 81.2118ZM540.09 84.0338C538.243 84.2609 536.301 84.4074 534.257 84.4681L534.228 83.4685C536.243 83.4087 538.154 83.2644 539.968 83.0412L540.09 84.0338ZM528.405 84.4156C526.553 84.3323 524.626 84.1866 522.623 83.9755L522.727 82.981C524.713 83.1901 526.619 83.3342 528.45 83.4166L528.405 84.4156ZM516.877 83.2219C515.905 83.0708 514.917 82.9058 513.912 82.7266L514.088 81.7421C515.086 81.9201 516.066 82.0839 517.03 82.2338L516.877 83.2219Z" fill="#FEFEFE"/>
<path d="M350.963 77.1809C350.691 77.1314 350.511 76.8711 350.56 76.5994C350.61 76.3277 350.87 76.1476 351.142 76.1971L350.963 77.1809ZM345.332 75.2262C345.605 75.2676 345.793 75.5225 345.752 75.7955C345.71 76.0685 345.456 76.2563 345.183 76.2149L345.332 75.2262ZM339.376 75.4336C339.102 75.4015 338.906 75.1532 338.938 74.8789C338.97 74.6047 339.218 74.4083 339.492 74.4403L339.376 75.4336ZM333.618 73.8692C333.893 73.8903 334.099 74.1306 334.078 74.4059C334.057 74.6813 333.817 74.8873 333.542 74.8662L333.618 73.8692ZM327.684 74.5503C327.408 74.5421 327.191 74.3116 327.199 74.0356C327.207 73.7596 327.438 73.5425 327.714 73.5508L327.684 74.5503ZM321.795 73.5321C322.071 73.5251 322.3 73.7433 322.307 74.0193C322.314 74.2954 322.096 74.5248 321.82 74.5318L321.795 73.5321ZM315.98 74.8645C315.705 74.8895 315.462 74.6868 315.437 74.4118C315.412 74.1368 315.614 73.8936 315.89 73.8686L315.98 74.8645ZM310.042 74.6225C310.314 74.5764 310.572 74.7596 310.618 75.0319C310.665 75.3041 310.481 75.5623 310.209 75.6085L310.042 74.6225ZM304.484 76.847C304.217 76.9181 303.943 76.7595 303.872 76.4926C303.801 76.2258 303.96 75.9518 304.226 75.8807L304.484 76.847ZM298.598 77.6999C298.856 77.6008 299.145 77.7294 299.244 77.9871C299.343 78.2449 299.215 78.5342 298.957 78.6333L298.598 77.6999ZM293.643 81.0456C293.399 81.1748 293.097 81.0817 292.968 80.8376C292.838 80.5936 292.931 80.291 293.175 80.1618L293.643 81.0456ZM288.108 83.267C288.334 83.1081 288.646 83.1625 288.805 83.3883C288.964 83.6142 288.909 83.9261 288.683 84.0849L288.108 83.267ZM284.141 87.72C283.936 87.9052 283.62 87.8893 283.434 87.6845C283.249 87.4797 283.265 87.1636 283.47 86.9783L284.141 87.72ZM279.296 91.1992C279.48 90.9929 279.796 90.9744 280.002 91.158C280.209 91.3415 280.227 91.6575 280.044 91.8639L279.296 91.1992ZM276.363 96.3988C276.198 96.6201 275.885 96.6658 275.663 96.5007C275.442 96.3357 275.396 96.0224 275.561 95.801L276.363 96.3988ZM272.18 100.655C272.332 100.424 272.642 100.36 272.873 100.511C273.103 100.663 273.168 100.973 273.016 101.204L272.18 100.655ZM269.884 106.169C269.739 106.405 269.431 106.478 269.196 106.334C268.961 106.19 268.887 105.882 269.031 105.647L269.884 106.169ZM265.969 110.675C266.113 110.439 266.421 110.365 266.656 110.509C266.892 110.654 266.966 110.961 266.822 111.197L265.969 110.675ZM263.669 116.187C263.517 116.418 263.207 116.481 262.976 116.329C262.746 116.177 262.682 115.867 262.834 115.636L263.669 116.187ZM259.455 120.409C259.624 120.19 259.938 120.149 260.156 120.318C260.375 120.486 260.416 120.8 260.248 121.019L259.455 120.409ZM353.904 77.7374C352.911 77.5425 351.93 77.3571 350.963 77.1809L351.142 76.1971C352.114 76.3741 353.099 76.5604 354.096 76.7561L353.904 77.7374ZM345.183 76.2149C343.19 75.9129 341.256 75.6531 339.376 75.4336L339.492 74.4403C341.384 74.6612 343.33 74.9226 345.332 75.2262L345.183 76.2149ZM333.542 74.8662C331.52 74.7112 329.569 74.6068 327.684 74.5503L327.714 73.5508C329.615 73.6077 331.582 73.713 333.618 73.8692L333.542 74.8662ZM321.82 74.5318C319.789 74.5829 317.844 74.6952 315.98 74.8645L315.89 73.8686C317.777 73.6972 319.743 73.5837 321.795 73.5321L321.82 74.5318ZM310.209 75.6085C308.198 75.9497 306.293 76.3648 304.484 76.847L304.226 75.8807C306.066 75.3903 308.002 74.9687 310.042 74.6225L310.209 75.6085ZM298.957 78.6333C297.07 79.3587 295.304 80.1664 293.643 81.0456L293.175 80.1618C294.871 79.2639 296.675 78.4396 298.598 77.6999L298.957 78.6333ZM288.683 84.0849C287.061 85.2256 285.553 86.4421 284.141 87.72L283.47 86.9783C284.911 85.6747 286.451 84.4324 288.108 83.267L288.683 84.0849ZM280.044 91.8639C278.74 93.3295 277.52 94.8468 276.363 96.3988L275.561 95.801C276.733 94.2296 277.971 92.6895 279.296 91.1992L280.044 91.8639ZM273.016 101.204C271.937 102.848 270.901 104.509 269.884 106.169L269.031 105.647C270.051 103.982 271.093 102.311 272.18 100.655L273.016 101.204ZM266.822 111.197C265.785 112.889 264.743 114.56 263.669 116.187L262.834 115.636C263.899 114.023 264.935 112.363 265.969 110.675L266.822 111.197ZM260.248 121.019C259.643 121.806 259.021 122.576 258.38 123.325L257.62 122.675C258.249 121.94 258.859 121.184 259.455 120.409L260.248 121.019Z" fill="#FEFEFE"/>
</svg>
