<svg width="45" height="8" viewBox="0 0 45 8" fill="none" xmlns="http://www.w3.org/2000/svg">
<path d="M1.62664 7.64183C7.87729 4.28966 15.0353 1.19063 22.3271 1.19063C29.6188 1.19063 36.3119 3.92041 42.5626 7.27271C42.728 7.36141 43.4835 7.77271 43.6626 7.77271C44.0176 7.77271 44.4626 7.77271 44.4626 7.27271C44.4626 7.16199 44.254 6.87535 44.0626 6.77271C37.493 3.24942 29.989 0 22.3271 0C14.6651 0 7.13199 3.24955 0.562564 6.77271C-0.0636944 7.10857 -0.05565 7.59019 0.0625618 7.77271C0.353402 8.22177 1.1336 7.90656 1.62664 7.64183Z" fill="url(#paint0_linear_413_425)"/>
<defs>
<linearGradient id="paint0_linear_413_425" x1="5.88733" y1="3.41861e-07" x2="6.85591" y2="9.04306" gradientUnits="userSpaceOnUse">
<stop stop-color="#14FFEC"/>
<stop offset="1" stop-color="#8839FF"/>
</linearGradient>
</defs>
</svg>
