<svg width="46" height="9" viewBox="0 0 46 9" fill="none" xmlns="http://www.w3.org/2000/svg">
<path d="M2.56408 1.13088C8.81472 4.48305 15.9727 7.58207 23.2645 7.58207C30.5563 7.58207 37.2494 4.85229 43.5 1.5C43.6654 1.4113 44.4209 1 44.6 1C44.955 1 45.4 1 45.4 1.5C45.4 1.61072 45.1914 1.89736 45 2C38.4304 5.52329 30.9265 8.77271 23.2645 8.77271C15.6025 8.77271 8.06943 5.52316 1.5 2C0.873745 1.66414 0.881789 1.18252 1 1C1.29084 0.550939 2.07104 0.866148 2.56408 1.13088Z" fill="url(#paint0_linear_376_1008)"/>
<defs>
<linearGradient id="paint0_linear_376_1008" x1="6.82477" y1="8.7727" x2="7.79335" y2="-0.27035" gradientUnits="userSpaceOnUse">
<stop stop-color="#14FFEC"/>
<stop offset="1" stop-color="#8839FF"/>
</linearGradient>
</defs>
</svg>
