<svg width="25" height="25" viewBox="0 0 25 25" fill="none" xmlns="http://www.w3.org/2000/svg">
<circle cx="12.5" cy="12.5" r="12" stroke="#FEFEFE"/>
<path d="M16.9238 8.06722C16.3482 7.48884 15.6626 7.0303 14.9072 6.71832C14.1517 6.40634 13.3414 6.24715 12.5235 6.25004C9.0964 6.25004 6.30337 9.02972 6.30023 12.4422C6.30023 13.5352 6.58746 14.5984 7.12974 15.5399L6.25 18.75L9.54922 17.8891C10.4619 18.3835 11.4844 18.6427 12.5235 18.643H12.5267C15.9546 18.643 18.7469 15.8633 18.75 12.4477C18.7508 11.6336 18.5898 10.8275 18.2762 10.0757C17.9626 9.32391 17.5028 8.64131 16.923 8.06722H16.9238ZM12.5235 17.5945C11.5967 17.5948 10.6869 17.3466 9.88982 16.8758L9.70147 16.7633L7.74422 17.2742L8.26689 15.3734L8.14446 15.1774C7.62635 14.3573 7.35234 13.4078 7.35419 12.4391C7.35419 9.60628 9.67479 7.29535 12.5267 7.29535C13.2061 7.29413 13.879 7.42681 14.5067 7.68573C15.1344 7.94465 15.7043 8.32469 16.1838 8.80394C16.6649 9.28132 17.0463 9.8488 17.3059 10.4736C17.5656 11.0985 17.6985 11.7683 17.6968 12.4446C17.6937 15.2875 15.3731 17.5945 12.5235 17.5945ZM15.3605 13.7399C15.2059 13.6625 14.4423 13.2883 14.2987 13.2352C14.1559 13.1844 14.0515 13.1578 13.9495 13.3125C13.8451 13.4664 13.5469 13.8172 13.4574 13.918C13.368 14.0219 13.2754 14.0336 13.12 13.957C12.9654 13.8789 12.4639 13.7164 11.8706 13.1875C11.4076 12.7774 11.0976 12.2696 11.005 12.1156C10.9155 11.961 10.9964 11.8781 11.0741 11.8008C11.1423 11.7321 11.2287 11.6196 11.3063 11.5305C11.3848 11.4414 11.4107 11.3758 11.4617 11.2727C11.5127 11.168 11.4884 11.0789 11.45 11.0016C11.4107 10.9242 11.1007 10.161 10.9697 9.85315C10.8441 9.54925 10.7162 9.59143 10.6204 9.58753C10.531 9.58206 10.4266 9.58206 10.3222 9.58206C10.2434 9.58401 10.1658 9.60216 10.0944 9.63536C10.023 9.66857 9.95919 9.71612 9.90708 9.77503C9.76425 9.92971 9.3648 10.3039 9.3648 11.0672C9.3648 11.8305 9.92199 12.5641 10.0005 12.668C10.0774 12.7719 11.0945 14.3336 12.6554 15.0055C13.0242 15.1656 13.3146 15.2602 13.5414 15.332C13.9142 15.4508 14.2508 15.4328 14.5192 15.3945C14.8175 15.3492 15.4382 15.0195 15.5693 14.6578C15.698 14.2953 15.698 13.986 15.6587 13.9211C15.6203 13.8555 15.5159 13.8172 15.3605 13.7399Z" fill="#FEFEFE"/>
</svg>
