<svg width="65" height="35" viewBox="0 0 65 35" fill="none" xmlns="http://www.w3.org/2000/svg">
<path d="M64.8606 16.9945C61.6344 11.9207 56.9952 7.66524 51.4446 4.68828C45.7257 1.62123 39.1748 0 32.5 0C25.8252 0 19.2743 1.62122 13.5554 4.6884C8.00482 7.66537 3.36562 11.9207 0.139404 16.9946C-0.0464681 17.2869 -0.0464681 17.6474 0.139404 17.9398C3.36562 23.0136 8.00482 27.269 13.5554 30.246C19.2744 33.3132 25.8253 34.9344 32.5 34.9344C39.1747 34.9344 45.7257 33.3132 51.4446 30.246C56.9952 27.269 61.6344 23.0137 64.8606 17.9398C65.0465 17.6474 65.0465 17.2868 64.8606 16.9945ZM15.5585 17.4671C15.5585 8.96814 23.1584 2.0538 32.5 2.0538C41.8416 2.0538 49.4415 8.96814 49.4415 17.4671C49.4415 25.966 41.8416 32.8804 32.5 32.8804C23.1584 32.8804 15.5585 25.966 15.5585 17.4671ZM2.24153 17.4671C6.58533 10.8981 13.3394 6.03924 21.1186 3.61577C16.4866 6.77404 13.484 11.8076 13.484 17.4671C13.484 23.1266 16.4866 28.1601 21.1186 31.3184C13.3394 28.8949 6.58533 24.036 2.24153 17.4671ZM43.8814 31.3184C48.5134 28.1601 51.516 23.1266 51.516 17.4671C51.516 11.8076 48.5134 6.77404 43.8814 3.61577C51.6606 6.03936 58.4147 10.8981 62.7585 17.4671C58.4147 24.036 51.6606 28.8949 43.8814 31.3184Z" fill="url(#paint0_linear_376_1010)"/>
<defs>
<linearGradient id="paint0_linear_376_1010" x1="8.60672" y1="1.4931e-06" x2="20.2028" y2="36.2387" gradientUnits="userSpaceOnUse">
<stop stop-color="#14FFEC"/>
<stop offset="1" stop-color="#8839FF"/>
</linearGradient>
</defs>
</svg>
