<svg width="25" height="25" viewBox="0 0 25 25" fill="none" xmlns="http://www.w3.org/2000/svg">
<circle cx="12.5" cy="12.5" r="12" stroke="#FEFEFE"/>
<path d="M17.351 8.00066C17.2292 8.00547 17.1106 8.03598 17.0036 8.07451C16.8977 8.11279 16.2883 8.34682 15.3882 8.693C14.4882 9.03919 13.3183 9.49 12.1585 9.93702C9.83897 10.8311 7.55964 11.7107 7.55964 11.7107L7.57626 11.705C7.57626 11.705 7.43869 11.7464 7.29921 11.8338C7.22947 11.8775 7.15445 11.934 7.09302 12.0162C7.03159 12.0985 6.98668 12.2151 7.0036 12.3385C7.06305 12.7716 7.56209 12.8945 7.56209 12.8945L7.56404 12.8954L9.79115 13.5812C9.84793 13.7516 10.4666 15.6094 10.6027 16.0028C10.6779 16.2203 10.7483 16.3458 10.8216 16.4314C10.8584 16.4742 10.8968 16.5074 10.9394 16.5316C10.9563 16.5413 10.9741 16.5485 10.9917 16.5549C10.9921 16.5551 10.9923 16.5548 10.9927 16.5549C10.9948 16.5558 10.9969 16.5559 10.999 16.5567L10.9931 16.5554C10.9972 16.5568 11.0013 16.5593 11.0054 16.5606C11.0133 16.5631 11.0182 16.5631 11.0283 16.565C11.2834 16.6452 11.4945 16.4965 11.4945 16.4965L11.5033 16.4903L12.8714 15.3487L15.0916 16.9061L15.1195 16.9176C15.5081 17.0728 15.8596 16.9862 16.0542 16.8437C16.2489 16.7012 16.3254 16.5176 16.3254 16.5176L16.3337 16.4982L17.9652 8.84818C18.0069 8.67703 18.0129 8.52909 17.9735 8.39541C17.9341 8.26172 17.8385 8.14552 17.7184 8.08111C17.5984 8.01669 17.4728 7.99585 17.351 8.00066ZM17.3642 8.45827C17.4137 8.45621 17.4504 8.46129 17.4619 8.4675C17.4735 8.4737 17.4787 8.47289 17.4898 8.51058C17.5009 8.54827 17.5069 8.62766 17.4766 8.75191L17.4756 8.75454L15.8534 16.3602C15.8496 16.3678 15.8158 16.4382 15.7386 16.4947C15.6598 16.5523 15.5723 16.5973 15.3399 16.5096L12.9119 14.8063L12.8435 14.7579L12.8421 14.7592L12.116 14.2691L16.1964 9.95021C16.2278 9.91711 16.2478 9.87654 16.2541 9.83342C16.2603 9.7903 16.2526 9.74647 16.2318 9.70723C16.2109 9.66798 16.1779 9.635 16.1367 9.61228C16.0955 9.58956 16.0478 9.57807 15.9995 9.5792C15.9523 9.5803 15.9064 9.59341 15.8671 9.617L9.96265 13.1583L7.73213 12.4712C7.73213 12.4712 7.51063 12.3603 7.50003 12.2831C7.49945 12.2788 7.49683 12.2827 7.50834 12.2672C7.51985 12.2518 7.54878 12.2258 7.58505 12.2031C7.6576 12.1576 7.74043 12.1301 7.74043 12.1301L7.74874 12.1275L7.75704 12.1244C7.75704 12.1244 10.0365 11.2447 12.3559 10.3507C13.5156 9.90367 14.6853 9.45319 15.5851 9.10709C16.4847 8.76108 17.1347 8.51202 17.1898 8.49211C17.2524 8.46954 17.3147 8.46033 17.3642 8.45827ZM14.6582 10.883L11.5638 14.1583L11.5624 14.1596C11.5575 14.1649 11.553 14.1703 11.5487 14.1759C11.5438 14.182 11.5392 14.1883 11.535 14.1948C11.5176 14.2214 11.5065 14.2508 11.5023 14.2814C11.5023 14.282 11.5023 14.2826 11.5023 14.2832L11.0992 15.914C11.0925 15.8964 11.0878 15.8899 11.0806 15.8692V15.8687C10.9526 15.4986 10.3688 13.7465 10.2881 13.5042L14.6582 10.883ZM11.9132 14.6951L12.4693 15.0705L11.6523 15.7518L11.9132 14.6951Z" fill="#FEFEFE"/>
</svg>
