<svg width="90" height="90" viewBox="0 0 90 90" fill="none" xmlns="http://www.w3.org/2000/svg">
<circle cx="45" cy="45" r="44" stroke="#FEFEFE" stroke-width="2"/>
<path d="M45.3536 15.6464C45.1583 15.4512 44.8417 15.4512 44.6464 15.6464L41.4645 18.8284C41.2692 19.0237 41.2692 19.3403 41.4645 19.5355C41.6597 19.7308 41.9763 19.7308 42.1716 19.5355L45 16.7071L47.8284 19.5355C48.0237 19.7308 48.3403 19.7308 48.5355 19.5355C48.7308 19.3403 48.7308 19.0237 48.5355 18.8284L45.3536 15.6464ZM44.5 48C44.5 48.2761 44.7239 48.5 45 48.5C45.2761 48.5 45.5 48.2761 45.5 48L44.5 48ZM44.5 16L44.5 48L45.5 48L45.5 16L44.5 16Z" fill="#FEFEFE"/>
<path d="M24.2724 68V56.138H27.4764C28.6764 56.138 29.6304 56.372 30.3384 56.84C31.0464 57.296 31.4004 58.022 31.4004 59.018C31.4004 59.642 31.2444 60.188 30.9324 60.656C30.6204 61.112 30.1644 61.43 29.5644 61.61V61.682C30.3324 61.802 30.9504 62.108 31.4184 62.6C31.8864 63.08 32.1204 63.728 32.1204 64.544C32.1204 65.684 31.7184 66.548 30.9144 67.136C30.1224 67.712 29.0544 68 27.7104 68H24.2724ZM25.1004 61.358H27.1524C28.3644 61.358 29.2344 61.16 29.7624 60.764C30.3024 60.356 30.5724 59.804 30.5724 59.108C30.5724 58.268 30.2904 57.68 29.7264 57.344C29.1624 56.996 28.3344 56.822 27.2424 56.822H25.1004V61.358ZM25.1004 67.316H27.4944C28.6704 67.316 29.6004 67.094 30.2844 66.65C30.9684 66.206 31.3104 65.51 31.3104 64.562C31.3104 63.71 30.9744 63.08 30.3024 62.672C29.6424 62.252 28.7064 62.042 27.4944 62.042H25.1004V67.316ZM34.5886 68V59.36H37.7026C38.6266 59.36 39.3586 59.528 39.8986 59.864C40.4386 60.2 40.7086 60.74 40.7086 61.484C40.7086 62.036 40.5706 62.456 40.2946 62.744C40.0186 63.032 39.6766 63.242 39.2686 63.374V63.428C39.7246 63.536 40.1446 63.758 40.5286 64.094C40.9126 64.418 41.1046 64.898 41.1046 65.534C41.1046 66.374 40.8046 66.998 40.2046 67.406C39.6046 67.802 38.8006 68 37.7926 68H34.5886ZM35.3806 63.14H37.3966C38.2966 63.14 38.9386 62.996 39.3226 62.708C39.7066 62.42 39.8986 62.036 39.8986 61.556C39.8986 61.064 39.7126 60.686 39.3406 60.422C38.9686 60.146 38.3686 60.008 37.5406 60.008H35.3806V63.14ZM35.3806 67.352H37.6306C39.3946 67.352 40.2766 66.734 40.2766 65.498C40.2766 64.946 40.0366 64.526 39.5566 64.238C39.0886 63.938 38.3986 63.788 37.4866 63.788H35.3806V67.352ZM46.7943 68.216C46.0623 68.216 45.3903 68.036 44.7783 67.676C44.1783 67.316 43.6983 66.8 43.3383 66.128C42.9783 65.444 42.7983 64.634 42.7983 63.698C42.7983 62.75 42.9783 61.94 43.3383 61.268C43.6983 60.584 44.1663 60.062 44.7423 59.702C45.3183 59.33 45.9243 59.144 46.5603 59.144C47.5923 59.144 48.4023 59.492 48.9903 60.188C49.5783 60.884 49.8723 61.868 49.8723 63.14C49.8723 63.248 49.8663 63.356 49.8543 63.464C49.8543 63.572 49.8423 63.68 49.8183 63.788H43.6083C43.6203 64.508 43.7583 65.15 44.0223 65.714C44.2983 66.278 44.6763 66.722 45.1563 67.046C45.6483 67.37 46.2183 67.532 46.8663 67.532C47.3343 67.532 47.7543 67.46 48.1263 67.316C48.5103 67.172 48.8643 66.986 49.1883 66.758L49.5123 67.37C49.1763 67.574 48.7983 67.766 48.3783 67.946C47.9583 68.126 47.4303 68.216 46.7943 68.216ZM43.6083 63.14H49.1163C49.1163 62.036 48.8883 61.208 48.4323 60.656C47.9763 60.104 47.3583 59.828 46.5783 59.828C46.0863 59.828 45.6243 59.96 45.1923 60.224C44.7723 60.488 44.4183 60.866 44.1303 61.358C43.8423 61.85 43.6683 62.444 43.6083 63.14ZM52.2195 71.906V59.36H52.9035L52.9755 60.44H53.0295C53.4495 60.104 53.9115 59.804 54.4155 59.54C54.9195 59.276 55.4355 59.144 55.9635 59.144C57.1155 59.144 57.9795 59.546 58.5555 60.35C59.1315 61.142 59.4195 62.21 59.4195 63.554C59.4195 64.526 59.2395 65.36 58.8795 66.056C58.5315 66.752 58.0695 67.286 57.4935 67.658C56.9175 68.03 56.2875 68.216 55.6035 68.216C55.1955 68.216 54.7755 68.126 54.3435 67.946C53.9115 67.754 53.4675 67.49 53.0115 67.154V71.906H52.2195ZM55.5675 67.514C56.1555 67.514 56.6715 67.346 57.1155 67.01C57.5715 66.674 57.9255 66.212 58.1775 65.624C58.4415 65.024 58.5735 64.334 58.5735 63.554C58.5735 62.846 58.4835 62.216 58.3035 61.664C58.1235 61.1 57.8295 60.656 57.4215 60.332C57.0255 60.008 56.4975 59.846 55.8375 59.846C55.4055 59.846 54.9555 59.972 54.4875 60.224C54.0315 60.464 53.5395 60.812 53.0115 61.268V66.398C53.5035 66.806 53.9655 67.094 54.3975 67.262C54.8415 67.43 55.2315 67.514 55.5675 67.514ZM60.3956 68L63.3296 63.482L60.6296 59.36H61.5116L62.9156 61.556C63.0596 61.784 63.2096 62.018 63.3656 62.258C63.5216 62.498 63.6776 62.738 63.8336 62.978H63.9056C64.0616 62.738 64.2056 62.498 64.3376 62.258C64.4816 62.018 64.6316 61.784 64.7876 61.556L66.1376 59.36H66.9656L64.2836 63.554L67.2176 68H66.3356L64.8056 65.642C64.6496 65.366 64.4816 65.096 64.3016 64.832C64.1336 64.568 63.9596 64.31 63.7796 64.058H63.7076C63.5396 64.31 63.3716 64.568 63.2036 64.832C63.0476 65.096 62.8856 65.366 62.7176 65.642L61.2416 68H60.3956Z" fill="#FCFCFC"/>
</svg>
