<svg width="24" height="24" viewBox="0 0 24 24" fill="none" xmlns="http://www.w3.org/2000/svg">
<path d="M6.72229 1.97344L3.25431 2.35877C2.32462 2.46207 1.60764 3.19943 1.70526 4.12973C1.94931 6.4554 3.0987 11.0411 8.02806 15.9705C12.9574 20.8998 17.5437 22.0499 19.8698 22.2943C20.8003 22.3921 21.5379 21.6751 21.6412 20.7452L22.0265 17.2776C22.1146 16.485 21.7233 15.7158 21.0308 15.3202L18.5467 13.9011C17.7636 13.4538 16.7781 13.5858 16.1404 14.2235L15.5031 14.8608C15.0303 15.3336 14.3489 15.5337 13.7445 15.2474C13.0285 14.9082 11.9935 14.2791 10.8572 13.1427C9.7208 12.0064 9.09172 10.9715 8.75252 10.2554C8.46625 9.65107 8.66632 8.96964 9.13917 8.4968L9.77645 7.85951C10.4141 7.22184 10.5462 6.23628 10.0988 5.45323L8.67975 2.96914C8.28415 2.27664 7.51494 1.88537 6.72229 1.97344Z" stroke="#FEFEFE" stroke-width="2" stroke-linecap="round" stroke-linejoin="round"/>
</svg>
