<svg width="576" height="67" viewBox="0 0 576 67" fill="none" xmlns="http://www.w3.org/2000/svg">
<path d="M0 40.16L16 29.1749C32 18.3543 64 -3.86286 96 0.662857C128 5.18857 160 35.6343 192 51.1451C224 66.4914 256 66.4914 288 57.728C320 48.8 352 31.52 384 18.2309C416 5.18857 448 -3.86286 480 5.06514C512 13.8286 544 40.16 560 53.3257L576 66.4914V-52H560C544 -52 512 -52 480 -52C448 -52 416 -52 384 -52C352 -52 320 -52 288 -52C256 -52 224 -52 192 -52C160 -52 128 -52 96 -52C64 -52 32 -52 16 -52H0V40.16Z" fill="#02031C"/>
</svg>
