<svg width="576" height="59" viewBox="0 0 576 59" fill="none" xmlns="http://www.w3.org/2000/svg">
<path d="M0 36.2713L18.0556 26.3343C36.1111 16.5461 72.2222 -3.55124 108.333 0.542671C144.444 4.63658 180.556 32.1774 216.667 46.2084C252.778 60.0904 288.889 60.0905 325 52.1632C361.111 44.087 397.222 28.4557 433.333 16.4345C469.444 4.63658 505.556 -3.55124 541.667 4.52493C577.778 12.4522 613.889 36.2713 631.944 48.1809L650 60.0904V72H631.944C613.889 72 577.778 72 541.667 72C505.556 72 469.444 72 433.333 72C397.222 72 361.111 72 325 72C288.889 72 252.778 72 216.667 72C180.556 72 144.444 72 108.333 72C72.2222 72 36.1111 72 18.0556 72H0V36.2713Z" fill="#02031C"/>
</svg>
