<svg width="414" height="243" viewBox="0 0 414 243" fill="none" xmlns="http://www.w3.org/2000/svg">
<path opacity="0.4" d="M125.121 31.1328C123.754 30 122.309 28.9453 120.785 27.9688C119.301 26.9922 117.641 26.1523 115.805 25.4492C113.969 24.707 111.938 24.1406 109.711 23.75C107.484 23.3203 104.945 23.1055 102.094 23.1055C98.1875 23.1055 94.7109 23.7891 91.6641 25.1562C88.6562 26.4844 86.1172 28.3594 84.0469 30.7812C82.0156 33.1641 80.4727 36.0156 79.418 39.3359C78.3633 42.6172 77.8359 46.2109 77.8359 50.1172C77.8359 53.8281 78.4805 57.1875 79.7695 60.1953C81.0586 63.2031 82.8359 65.8008 85.1016 67.9883C87.3672 70.1367 90.043 71.7969 93.1289 72.9688C96.2539 74.1406 99.6328 74.7266 103.266 74.7266C105.492 74.7266 107.582 74.5312 109.535 74.1406C111.488 73.7109 113.344 73.1641 115.102 72.5C116.859 71.7969 118.539 70.9961 120.141 70.0977C121.781 69.1602 123.363 68.1836 124.887 67.168V91.3086C123.012 92.1289 121.195 92.9102 119.438 93.6523C117.68 94.3945 115.883 95.0391 114.047 95.5859C112.211 96.1719 110.277 96.6211 108.246 96.9336C106.254 97.2461 104.066 97.4023 101.684 97.4023C97.2695 97.4023 93.0117 96.875 88.9102 95.8203C84.8086 94.8047 80.9805 93.3203 77.4258 91.3672C73.8711 89.4141 70.6289 87.0508 67.6992 84.2773C64.7695 81.4648 62.25 78.3008 60.1406 74.7852C58.0703 71.2695 56.4492 67.4219 55.2773 63.2422C54.1445 59.0625 53.5781 54.6094 53.5781 49.8828C53.5781 42.5391 54.7695 35.8398 57.1523 29.7852C59.5742 23.6914 62.8945 18.4766 67.1133 14.1406C71.332 9.80469 76.3125 6.44531 82.0547 4.0625C87.8359 1.64063 94.1055 0.429688 100.863 0.429688C103.285 0.429688 105.512 0.527344 107.543 0.722656C109.574 0.878906 111.527 1.17188 113.402 1.60156C115.316 2.03125 117.211 2.61719 119.086 3.35938C120.961 4.10156 122.973 5.03906 125.121 6.17188V31.1328ZM124.125 6.81641C122.133 5.76172 120.238 4.90234 118.441 4.23828C116.645 3.53516 114.828 2.98828 112.992 2.59766C111.195 2.16797 109.301 1.875 107.309 1.71875C105.355 1.52344 103.207 1.42578 100.863 1.42578C96.4492 1.42578 92.2305 1.95312 88.207 3.00781C84.2227 4.0625 80.5117 5.58594 77.0742 7.57812C73.6758 9.53125 70.5703 11.9336 67.7578 14.7852C64.9844 17.6367 62.6211 20.8594 60.668 24.4531C58.7148 28.0469 57.1914 31.9922 56.0977 36.2891C55.043 40.5469 54.5156 45.0781 54.5156 49.8828C54.5156 54.4922 55.082 58.8477 56.2148 62.9492C57.3477 67.0508 58.9297 70.8398 60.9609 74.3164C62.9922 77.7539 65.4531 80.8398 68.3438 83.5742C71.2344 86.3086 74.418 88.6328 77.8945 90.5469C81.3711 92.4609 85.1211 93.9258 89.1445 94.9414C93.168 95.957 97.3477 96.4648 101.684 96.4648C103.871 96.4648 105.883 96.3281 107.719 96.0547C109.594 95.7812 111.391 95.3906 113.109 94.8828C114.867 94.375 116.605 93.7695 118.324 93.0664C120.082 92.3633 121.938 91.5625 123.891 90.6641V68.9844C122.445 69.9219 120.941 70.8008 119.379 71.6211C117.855 72.4023 116.234 73.1055 114.516 73.7305C112.836 74.3164 111.059 74.7852 109.184 75.1367C107.348 75.4883 105.375 75.6641 103.266 75.6641C99.5156 75.6641 96.0195 75.0586 92.7773 73.8477C89.5742 72.5977 86.7812 70.8594 84.3984 68.6328C82.0547 66.4062 80.1992 63.7305 78.832 60.6055C77.5039 57.4414 76.8398 53.9453 76.8398 50.1172C76.8398 46.1328 77.3867 42.4414 78.4805 39.043C79.5742 35.6055 81.1953 32.6562 83.3438 30.1953C85.4922 27.6953 88.1289 25.7422 91.2539 24.3359C94.3789 22.8906 97.9922 22.168 102.094 22.168C104.711 22.168 107.094 22.3438 109.242 22.6953C111.391 23.0469 113.344 23.5352 115.102 24.1602C116.859 24.7461 118.461 25.4687 119.906 26.3281C121.391 27.1875 122.797 28.125 124.125 29.1406V6.81641ZM216.234 58.1445C216.234 63.7695 215.258 68.9844 213.305 73.7891C211.391 78.5938 208.656 82.7539 205.102 86.2695C201.586 89.7852 197.348 92.5391 192.387 94.5312C187.465 96.5234 182.016 97.5195 176.039 97.5195C172.289 97.5195 168.695 97.0312 165.258 96.0547C161.82 95.0781 158.617 93.7305 155.648 92.0117C152.719 90.2539 150.043 88.1641 147.621 85.7422C145.238 83.3203 143.188 80.6641 141.469 77.7734C139.789 74.8828 138.48 71.8164 137.543 68.5742C136.645 65.293 136.195 61.9336 136.195 58.4961C136.195 52.9883 137.23 47.8906 139.301 43.2031C141.371 38.4766 144.223 34.3945 147.855 30.957C151.488 27.4805 155.746 24.7656 160.629 22.8125C165.551 20.8594 170.844 19.8828 176.508 19.8828C182.094 19.8828 187.289 20.8398 192.094 22.7539C196.938 24.6289 201.137 27.2656 204.691 30.6641C208.285 34.0625 211.098 38.1055 213.129 42.793C215.199 47.4805 216.234 52.5977 216.234 58.1445ZM215.238 58.1445C215.238 54.5508 214.789 51.1328 213.891 47.8906C212.992 44.6484 211.703 41.6602 210.023 38.9258C208.383 36.1523 206.391 33.6523 204.047 31.4258C201.742 29.1602 199.145 27.2461 196.254 25.6836C193.402 24.1211 190.297 22.9297 186.938 22.1094C183.617 21.25 180.141 20.8203 176.508 20.8203C170.961 20.8203 165.785 21.7773 160.98 23.6914C156.176 25.6055 151.996 28.2617 148.441 31.6602C144.926 35.0195 142.152 39.0039 140.121 43.6133C138.129 48.1836 137.133 53.1445 137.133 58.4961C137.133 61.8555 137.582 65.1172 138.48 68.2812C139.379 71.4453 140.648 74.4531 142.289 77.3047C143.969 80.1172 145.98 82.7148 148.324 85.0977C150.668 87.4414 153.266 89.4727 156.117 91.1914C159.008 92.8711 162.133 94.1797 165.492 95.1172C168.852 96.0938 172.367 96.582 176.039 96.582C181.898 96.582 187.23 95.6055 192.035 93.6523C196.879 91.6992 201.02 89.0234 204.457 85.625C207.895 82.1875 210.551 78.125 212.426 73.4375C214.301 68.75 215.238 63.6523 215.238 58.1445ZM194.965 57.793C194.965 60.8008 194.535 63.5156 193.676 65.9375C192.816 68.3203 191.566 70.3711 189.926 72.0898C188.324 73.7695 186.371 75.0781 184.066 76.0156C181.762 76.9141 179.164 77.3633 176.273 77.3633C173.578 77.3633 171.078 76.8945 168.773 75.957C166.508 74.9805 164.535 73.6719 162.855 72.0312C161.215 70.3516 159.906 68.3984 158.93 66.1719C157.992 63.9062 157.523 61.4844 157.523 58.9062C157.523 56.25 157.973 53.7695 158.871 51.4648C159.77 49.1602 161.039 47.1484 162.68 45.4297C164.32 43.7109 166.293 42.3633 168.598 41.3867C170.941 40.4102 173.539 39.9219 176.391 39.9219C179.125 39.9219 181.625 40.3906 183.891 41.3281C186.156 42.2266 188.109 43.4766 189.75 45.0781C191.391 46.6797 192.66 48.5742 193.559 50.7617C194.496 52.9492 194.965 55.293 194.965 57.793ZM194.027 57.793C194.027 55.4102 193.598 53.2031 192.738 51.1719C191.879 49.1016 190.668 47.3047 189.105 45.7812C187.543 44.2578 185.688 43.0664 183.539 42.207C181.391 41.3086 179.008 40.8594 176.391 40.8594C173.695 40.8594 171.234 41.3281 169.008 42.2656C166.82 43.2031 164.945 44.4922 163.383 46.1328C161.82 47.7344 160.609 49.6484 159.75 51.875C158.93 54.0625 158.52 56.4062 158.52 58.9062C158.52 61.3672 158.969 63.6719 159.867 65.8203C160.766 67.9297 161.996 69.7852 163.559 71.3867C165.16 72.9492 167.035 74.1797 169.184 75.0781C171.371 75.9766 173.734 76.4258 176.273 76.4258C179.008 76.4258 181.469 75.9961 183.656 75.1367C185.883 74.2773 187.758 73.0469 189.281 71.4453C190.805 69.8438 191.977 67.8906 192.797 65.5859C193.617 63.2812 194.027 60.6836 194.027 57.793ZM275.883 95V51.8164C275.883 50.293 275.746 48.8086 275.473 47.3633C275.199 45.918 274.652 44.6484 273.832 43.5547C273.012 42.4609 271.84 41.582 270.316 40.918C268.832 40.2539 266.859 39.9219 264.398 39.9219C262.602 39.9219 260.902 40.2734 259.301 40.9766C257.699 41.6406 256.293 42.5586 255.082 43.7305C253.871 44.9023 252.914 46.2891 252.211 47.8906C251.508 49.4531 251.156 51.1133 251.156 52.8711V95H228.598V21.3477H250.922V30.8984C252.367 28.8281 254.145 26.9922 256.254 25.3906C257.152 24.6875 258.148 24.0234 259.242 23.3984C260.375 22.7344 261.605 22.1484 262.934 21.6406C264.301 21.0938 265.766 20.6641 267.328 20.3516C268.93 20.0391 270.629 19.8828 272.426 19.8828C276.098 19.8828 279.535 20.5078 282.738 21.7578C285.941 23.0078 288.734 24.7266 291.117 26.9141C293.539 29.1016 295.434 31.6992 296.801 34.707C298.207 37.6758 298.91 40.8984 298.91 44.375V95H275.883ZM297.973 44.375C297.973 41.0547 297.309 37.9688 295.98 35.1172C294.652 32.2266 292.816 29.7266 290.473 27.6172C288.168 25.5078 285.453 23.8477 282.328 22.6367C279.242 21.4258 275.941 20.8203 272.426 20.8203C268.637 20.8203 265.062 21.6211 261.703 23.2227C258.344 24.8242 255.434 27.0312 252.973 29.8438C252.777 30.0781 252.504 30.4492 252.152 30.957C251.801 31.4258 251.469 31.8945 251.156 32.3633C250.766 32.9492 250.375 33.5547 249.984 34.1797V22.2852H229.594V94.0625H250.219V52.8711C250.219 50.957 250.59 49.1602 251.332 47.4805C252.074 45.8008 253.09 44.3359 254.379 43.0859C255.668 41.7969 257.172 40.8008 258.891 40.0977C260.609 39.3555 262.445 38.9844 264.398 38.9844C267.016 38.9844 269.145 39.3555 270.785 40.0977C272.426 40.8398 273.695 41.8164 274.594 43.0273C275.492 44.1992 276.098 45.5664 276.41 47.1289C276.723 48.6523 276.879 50.2148 276.879 51.8164V94.0625H297.973V44.375ZM364.887 72.3242C364.887 76.3086 364.086 79.8242 362.484 82.8711C360.883 85.918 358.715 88.4766 355.98 90.5469C353.285 92.6172 350.16 94.1797 346.605 95.2344C343.051 96.2891 339.32 96.8164 335.414 96.8164C329.242 96.8164 323.871 95.6055 319.301 93.1836C314.73 90.7617 311.02 86.8555 308.168 81.4648L325.336 72.793C326.117 74.0039 327.016 75.0977 328.031 76.0742C328.93 76.8945 330.004 77.6367 331.254 78.3008C332.504 78.9648 333.969 79.2969 335.648 79.2969C336.547 79.2969 337.465 79.1992 338.402 79.0039C339.34 78.7695 340.18 78.4375 340.922 78.0078C341.703 77.5781 342.328 77.0508 342.797 76.4258C343.305 75.7617 343.559 75 343.559 74.1406C343.559 73.0078 343.09 72.0703 342.152 71.3281C341.215 70.5469 339.965 69.8438 338.402 69.2188C336.84 68.5938 335.062 67.9883 333.07 67.4023C331.117 66.8164 329.105 66.1328 327.035 65.3516C325.004 64.5312 322.992 63.5742 321 62.4805C319.047 61.3477 317.289 59.9414 315.727 58.2617C314.164 56.582 312.914 54.5898 311.977 52.2852C311.039 49.9414 310.57 47.1484 310.57 43.9062C310.57 40.3516 311.273 37.1094 312.68 34.1797C314.086 31.2109 316.039 28.6719 318.539 26.5625C321.039 24.4531 324.008 22.8125 327.445 21.6406C330.883 20.4688 334.652 19.8828 338.754 19.8828C341.371 19.8828 343.891 20.2539 346.312 20.9961C348.734 21.6992 350.98 22.7344 353.051 24.1016C355.121 25.4687 356.996 27.168 358.676 29.1992C360.355 31.1914 361.762 33.4766 362.895 36.0547L345.961 43.4961C345.414 42.4414 344.711 41.4844 343.852 40.625C343.109 39.9219 342.152 39.2773 340.98 38.6914C339.848 38.0664 338.461 37.7539 336.82 37.7539C335.023 37.7539 333.598 38.1445 332.543 38.9258C331.488 39.668 330.961 40.7617 330.961 42.207C330.961 43.2227 331.449 44.1016 332.426 44.8438C333.402 45.5469 334.672 46.2109 336.234 46.8359C337.836 47.4609 339.652 48.0859 341.684 48.7109C343.715 49.3359 345.785 50.0781 347.895 50.9375C350.043 51.7578 352.133 52.7539 354.164 53.9258C356.195 55.0586 357.992 56.4648 359.555 58.1445C361.156 59.8242 362.445 61.8164 363.422 64.1211C364.398 66.4258 364.887 69.1602 364.887 72.3242ZM363.949 72.3242C363.949 69.3164 363.48 66.7188 362.543 64.5312C361.645 62.3438 360.434 60.4492 358.91 58.8477C357.426 57.207 355.707 55.8398 353.754 54.7461C351.801 53.6133 349.77 52.6367 347.66 51.8164C345.551 50.957 343.461 50.2148 341.391 49.5898C339.359 48.9648 337.523 48.3398 335.883 47.7148C335.141 47.4414 334.418 47.1289 333.715 46.7773C333.012 46.3867 332.367 45.9766 331.781 45.5469C331.234 45.1172 330.785 44.6289 330.434 44.082C330.121 43.5352 329.965 42.9102 329.965 42.207C329.965 40.332 330.629 38.9648 331.957 38.1055C333.285 37.2461 334.906 36.8164 336.82 36.8164C338.812 36.8164 340.648 37.2656 342.328 38.1641C344.047 39.0234 345.336 40.332 346.195 42.0898L346.312 42.3242L361.547 35.5859C359.242 30.8203 356.098 27.168 352.113 24.6289C348.168 22.0898 343.715 20.8203 338.754 20.8203C334.77 20.8203 331.098 21.3867 327.738 22.5195C324.418 23.6523 321.547 25.2344 319.125 27.2656C316.742 29.2969 314.867 31.7383 313.5 34.5898C312.172 37.4023 311.508 40.5078 311.508 43.9062C311.508 46.9922 311.938 49.6484 312.797 51.875C313.695 54.1016 314.867 56.0156 316.312 57.6172C317.797 59.2188 319.496 60.5664 321.41 61.6602C323.324 62.7148 325.297 63.6328 327.328 64.4141C329.398 65.1953 331.43 65.8984 333.422 66.5234C335.414 67.1484 337.191 67.7539 338.754 68.3398C339.496 68.6523 340.219 68.9844 340.922 69.3359C341.625 69.6875 342.23 70.0977 342.738 70.5664C343.285 71.0352 343.715 71.5625 344.027 72.1484C344.34 72.7344 344.496 73.3984 344.496 74.1406C344.496 75.2344 344.203 76.1719 343.617 76.9531C343.031 77.7344 342.289 78.3789 341.391 78.8867C340.531 79.3555 339.574 79.707 338.52 79.9414C337.504 80.1367 336.547 80.2344 335.648 80.2344C333.461 80.2344 331.43 79.6875 329.555 78.5938C327.719 77.4609 326.273 76.0547 325.219 74.375L324.926 74.0234L309.457 81.8164C312.309 86.7383 315.863 90.3125 320.121 92.5391C324.418 94.7266 329.516 95.8203 335.414 95.8203C339.242 95.8203 342.875 95.3125 346.312 94.2969C349.789 93.2812 352.816 91.7773 355.395 89.7852C358.012 87.793 360.082 85.3516 361.605 82.4609C363.168 79.5312 363.949 76.1523 363.949 72.3242ZM69.1641 212.34C69.1641 215.621 68.6758 218.648 67.6992 221.422C66.7617 224.156 65.4336 226.637 63.7148 228.863C62.0352 231.09 60.043 233.043 57.7383 234.723C55.4336 236.402 52.9141 237.809 50.1797 238.941C47.4453 240.074 44.5742 240.914 41.5664 241.461C38.5586 242.047 35.5117 242.34 32.4258 242.34C29.1836 242.34 26.1562 242.027 23.3438 241.402C20.5703 240.777 17.8945 239.938 15.3164 238.883C12.7773 237.828 10.3164 236.617 7.93359 235.25C5.55078 233.883 3.16797 232.457 0.785156 230.973C2.19141 228.121 3.53906 225.465 4.82812 223.004C5.375 221.949 5.92188 220.895 6.46875 219.84C7.01562 218.746 7.52344 217.73 7.99219 216.793C8.5 215.816 8.94922 214.938 9.33984 214.156C9.76953 213.375 10.1211 212.77 10.3945 212.34C11.4883 213.355 12.8164 214.391 14.3789 215.445C15.9414 216.461 17.6602 217.418 19.5352 218.316C21.4102 219.176 23.4023 219.879 25.5117 220.426C27.6211 220.973 29.7695 221.246 31.957 221.246C33.6367 221.246 35.2773 221.109 36.8789 220.836C38.4805 220.523 39.9062 220.074 41.1562 219.488C42.4062 218.902 43.4023 218.16 44.1445 217.262C44.9258 216.363 45.3164 215.289 45.3164 214.039C45.3164 213.062 45.2383 212.203 45.082 211.461C44.9258 210.719 44.5156 210.016 43.8516 209.352C43.2266 208.688 42.2695 208.023 40.9805 207.359C39.6914 206.656 37.9336 205.875 35.707 205.016C35.0039 204.742 34.0664 204.391 32.8945 203.961C31.7617 203.531 30.5508 203.062 29.2617 202.555C27.9727 202.047 26.6836 201.539 25.3945 201.031C24.1055 200.484 22.9727 199.977 21.9961 199.508C16.1758 196.891 11.7227 193.434 8.63672 189.137C5.55078 184.801 4.00781 179.391 4.00781 172.906C4.00781 168.297 4.88672 164.195 6.64453 160.602C8.40234 156.969 10.7461 153.902 13.6758 151.402C16.6055 148.902 19.9648 147.008 23.7539 145.719C27.543 144.391 31.4883 143.727 35.5898 143.727C38.5586 143.727 41.4492 144.039 44.2617 144.664C47.0742 145.289 49.75 146.09 52.2891 147.066C54.8281 148.004 57.1719 149.059 59.3203 150.23C61.5078 151.363 63.4219 152.477 65.0625 153.57L55.6289 171.559C53.7539 170.191 51.7812 168.98 49.7109 167.926C47.9531 167.027 45.9609 166.188 43.7344 165.406C41.5469 164.625 39.3398 164.234 37.1133 164.234C34.1836 164.234 31.918 164.977 30.3164 166.461C28.7148 167.906 27.9141 169.84 27.9141 172.262C27.9141 173.512 28.2266 174.566 28.8516 175.426C29.5156 176.285 30.3359 177.027 31.3125 177.652C32.3281 178.277 33.4414 178.824 34.6523 179.293C35.9023 179.762 37.1328 180.23 38.3438 180.699C39.0469 180.973 39.8477 181.285 40.7461 181.637C41.6836 181.988 42.6016 182.359 43.5 182.75C44.3984 183.102 45.2773 183.453 46.1367 183.805C46.9961 184.117 47.7188 184.391 48.3047 184.625C51.7422 185.992 54.75 187.574 57.3281 189.371C59.9453 191.129 62.1328 193.141 63.8906 195.406C65.6484 197.633 66.957 200.152 67.8164 202.965C68.7148 205.777 69.1641 208.902 69.1641 212.34ZM68.2266 212.34C68.2266 208.707 67.7578 205.543 66.8203 202.848C65.8828 200.113 64.5938 197.75 62.9531 195.758C61.3125 193.727 59.3789 191.969 57.1523 190.484C54.9648 189 52.6211 187.672 50.1211 186.5C47.6211 185.328 45.0234 184.254 42.3281 183.277C39.6328 182.262 36.9766 181.227 34.3594 180.172C33.5 179.82 32.6211 179.43 31.7227 179C30.8633 178.531 30.0625 177.984 29.3203 177.359C28.6172 176.734 28.0312 176.012 27.5625 175.191C27.1328 174.371 26.918 173.395 26.918 172.262C26.918 169.566 27.8164 167.398 29.6133 165.758C31.4492 164.117 33.9492 163.297 37.1133 163.297C38.6367 163.297 40.1992 163.492 41.8008 163.883C43.4414 164.273 45.043 164.781 46.6055 165.406C48.168 166.031 49.6719 166.754 51.1172 167.574C52.6016 168.395 53.9883 169.234 55.2773 170.094L63.7734 153.922C62.1328 152.867 60.2578 151.793 58.1484 150.699C56.0391 149.605 53.7734 148.609 51.3516 147.711C48.9688 146.812 46.4297 146.09 43.7344 145.543C41.0781 144.957 38.3633 144.664 35.5898 144.664C31.6055 144.664 27.7578 145.309 24.0469 146.598C20.375 147.887 17.1328 149.742 14.3203 152.164C11.5078 154.586 9.26172 157.555 7.58203 161.07C5.90234 164.547 5.0625 168.492 5.0625 172.906C5.0625 176.305 5.47266 179.293 6.29297 181.871C7.11328 184.449 8.24609 186.754 9.69141 188.785C11.1367 190.777 12.8359 192.516 14.7891 194C16.7812 195.484 18.9102 196.832 21.1758 198.043C23.4805 199.215 25.8828 200.309 28.3828 201.324C30.9219 202.301 33.4805 203.258 36.0586 204.195C38.3242 205.016 40.1211 205.797 41.4492 206.539C42.8164 207.242 43.8516 207.965 44.5547 208.707C45.2578 209.449 45.707 210.25 45.9023 211.109C46.1367 211.969 46.2539 212.945 46.2539 214.039C46.2539 215.523 45.8242 216.793 44.9648 217.848C44.1055 218.863 42.9727 219.703 41.5664 220.367C40.1992 220.992 38.6562 221.461 36.9375 221.773C35.2578 222.047 33.5977 222.184 31.957 222.184C29.8477 222.184 27.7578 221.93 25.6875 221.422C23.6562 220.914 21.7031 220.25 19.8281 219.43C17.9922 218.609 16.293 217.711 14.7305 216.734C13.168 215.719 11.8008 214.742 10.6289 213.805C10.2773 214.469 9.84766 215.289 9.33984 216.266C8.83203 217.203 8.28516 218.219 7.69922 219.312C7.15234 220.367 6.58594 221.461 6 222.594C5.45312 223.727 4.90625 224.82 4.35938 225.875C3.85156 226.891 3.38281 227.828 2.95312 228.688C2.52344 229.508 2.19141 230.152 1.95703 230.621C4.30078 232.066 6.625 233.434 8.92969 234.723C11.2344 236.012 13.6172 237.164 16.0781 238.18C18.5391 239.156 21.0977 239.938 23.7539 240.523C26.4492 241.109 29.3398 241.402 32.4258 241.402C36.9961 241.402 41.4297 240.777 45.7266 239.527C50.0234 238.277 53.832 236.422 57.1523 233.961C60.5117 231.5 63.1875 228.473 65.1797 224.879C67.2109 221.246 68.2266 217.066 68.2266 212.34ZM103.266 185.738V239H80.8242V185.621H73.5V165.348H80.8242V147.066H103.266V165.348H115.16V185.738H103.266ZM114.164 166.285H102.328V148.062H81.8203V166.285H74.4961V184.625H81.8203V238.062H102.328V184.742H114.164V166.285ZM192.855 209.117C192.855 214.234 192.035 218.766 190.395 222.711C188.793 226.656 186.488 229.977 183.48 232.672C180.512 235.328 176.898 237.359 172.641 238.766C168.383 240.133 163.598 240.816 158.285 240.816C153.012 240.816 148.227 240.074 143.93 238.59C139.672 237.105 136.039 234.957 133.031 232.145C130.023 229.332 127.699 225.914 126.059 221.891C124.418 217.867 123.598 213.297 123.598 208.18V165.348H145.922V207.535C145.922 209.566 146.215 211.383 146.801 212.984C147.426 214.547 148.285 215.875 149.379 216.969C150.473 218.062 151.801 218.902 153.363 219.488C154.926 220.035 156.645 220.309 158.52 220.309C162.543 220.309 165.629 219.234 167.777 217.086C169.926 214.898 171 211.93 171 208.18V165.348H192.855V209.117ZM191.859 166.285H171.938V208.18C171.938 210.172 171.625 211.969 171 213.57C170.414 215.172 169.555 216.539 168.422 217.672C167.289 218.805 165.883 219.684 164.203 220.309C162.523 220.934 160.629 221.246 158.52 221.246C156.527 221.246 154.691 220.953 153.012 220.367C151.371 219.742 149.945 218.844 148.734 217.672C147.562 216.5 146.645 215.074 145.98 213.395C145.316 211.676 144.984 209.723 144.984 207.535V166.285H124.594V208.18C124.594 213.141 125.375 217.574 126.938 221.48C128.539 225.387 130.785 228.707 133.676 231.441C136.605 234.137 140.141 236.207 144.281 237.652C148.461 239.098 153.129 239.82 158.285 239.82C163.48 239.82 168.148 239.156 172.289 237.828C176.43 236.5 179.945 234.547 182.836 231.969C185.727 229.352 187.953 226.148 189.516 222.359C191.078 218.531 191.859 214.117 191.859 209.117V166.285ZM261.996 239V231.324C260.277 233.004 258.539 234.449 256.781 235.66C255.023 236.871 253.168 237.867 251.215 238.648C249.301 239.391 247.27 239.938 245.121 240.289C243.012 240.641 240.746 240.816 238.324 240.816C233.129 240.816 228.461 239.801 224.32 237.77C220.219 235.738 216.723 232.984 213.832 229.508C210.941 226.031 208.715 221.988 207.152 217.379C205.629 212.77 204.867 207.906 204.867 202.789C204.867 197.75 205.688 192.906 207.328 188.258C208.969 183.57 211.312 179.43 214.359 175.836C217.445 172.203 221.176 169.312 225.551 167.164C229.926 164.977 234.828 163.883 240.258 163.883C243.461 163.883 246.371 164.332 248.988 165.23C251.605 166.09 253.852 167.047 255.727 168.102C257.914 169.352 259.867 170.738 261.586 172.262V147.066H283.793V239H261.996ZM282.855 148.062H262.582V174.547C262.152 174.195 261.742 173.824 261.352 173.434C261.039 173.121 260.707 172.809 260.355 172.496C260.004 172.145 259.711 171.871 259.477 171.676C256.742 169.566 253.734 167.906 250.453 166.695C247.172 165.445 243.773 164.82 240.258 164.82C234.984 164.82 230.219 165.875 225.961 167.984C221.742 170.094 218.129 172.906 215.121 176.422C212.152 179.938 209.848 183.98 208.207 188.551C206.605 193.121 205.805 197.867 205.805 202.789C205.805 207.828 206.547 212.594 208.031 217.086C209.555 221.578 211.723 225.504 214.535 228.863C217.348 232.223 220.766 234.898 224.789 236.891C228.812 238.844 233.324 239.82 238.324 239.82C241.059 239.82 243.52 239.605 245.707 239.176C247.895 238.785 249.945 238.16 251.859 237.301C253.773 236.402 255.609 235.27 257.367 233.902C259.164 232.535 261.02 230.914 262.934 229.039V238.062H282.855V148.062ZM263.637 202.613C263.637 205.309 263.207 207.828 262.348 210.172C261.527 212.477 260.297 214.508 258.656 216.266C257.055 217.984 255.062 219.352 252.68 220.367C250.336 221.344 247.641 221.832 244.594 221.832C241.898 221.832 239.438 221.324 237.211 220.309C234.984 219.293 233.07 217.906 231.469 216.148C229.906 214.391 228.695 212.34 227.836 209.996C226.977 207.613 226.547 205.074 226.547 202.379C226.547 199.918 226.957 197.574 227.777 195.348C228.637 193.082 229.867 191.09 231.469 189.371C233.07 187.613 235.023 186.227 237.328 185.211C239.672 184.195 242.328 183.688 245.297 183.688C248.031 183.688 250.531 184.176 252.797 185.152C255.062 186.09 256.996 187.418 258.598 189.137C260.199 190.816 261.43 192.809 262.289 195.113C263.188 197.418 263.637 199.918 263.637 202.613ZM262.699 202.613C262.699 200.035 262.27 197.652 261.41 195.465C260.59 193.277 259.418 191.383 257.895 189.781C256.371 188.141 254.535 186.871 252.387 185.973C250.277 185.074 247.914 184.625 245.297 184.625C242.484 184.625 239.965 185.113 237.738 186.09C235.551 187.066 233.695 188.375 232.172 190.016C230.648 191.656 229.496 193.551 228.715 195.699C227.934 197.809 227.543 200.035 227.543 202.379C227.543 204.918 227.953 207.32 228.773 209.586C229.594 211.812 230.746 213.766 232.23 215.445C233.715 217.125 235.492 218.453 237.562 219.43C239.672 220.406 242.016 220.895 244.594 220.895C247.484 220.895 250.043 220.426 252.27 219.488C254.535 218.551 256.43 217.262 257.953 215.621C259.516 213.98 260.688 212.047 261.469 209.82C262.289 207.594 262.699 205.191 262.699 202.613ZM324.223 146.363C324.223 148.238 323.852 150.016 323.109 151.695C322.406 153.336 321.43 154.781 320.18 156.031C318.969 157.242 317.523 158.219 315.844 158.961C314.164 159.664 312.367 160.016 310.453 160.016C308.617 160.016 306.898 159.684 305.297 159.02C303.695 158.316 302.289 157.359 301.078 156.148C299.867 154.938 298.91 153.512 298.207 151.871C297.543 150.23 297.211 148.473 297.211 146.598C297.211 144.723 297.562 142.965 298.266 141.324C298.969 139.684 299.926 138.258 301.137 137.047C302.387 135.797 303.812 134.82 305.414 134.117C307.055 133.414 308.812 133.062 310.688 133.062C312.562 133.062 314.32 133.414 315.961 134.117C317.602 134.781 319.027 135.719 320.238 136.93C321.488 138.141 322.465 139.547 323.168 141.148C323.871 142.75 324.223 144.488 324.223 146.363ZM299.379 239V165.348H321.703V239H299.379ZM323.285 146.363C323.285 144.645 322.953 143.043 322.289 141.559C321.625 140.035 320.707 138.727 319.535 137.633C318.402 136.5 317.074 135.621 315.551 134.996C314.027 134.332 312.406 134 310.688 134C308.969 134 307.348 134.332 305.824 134.996C304.34 135.66 303.031 136.559 301.898 137.691C300.766 138.824 299.867 140.152 299.203 141.676C298.539 143.199 298.207 144.84 298.207 146.598C298.207 148.355 298.52 149.996 299.145 151.52C299.809 153.043 300.688 154.371 301.781 155.504C302.914 156.598 304.223 157.477 305.707 158.141C307.191 158.766 308.773 159.078 310.453 159.078C312.25 159.078 313.93 158.746 315.492 158.082C317.055 157.418 318.402 156.52 319.535 155.387C320.707 154.254 321.625 152.906 322.289 151.344C322.953 149.781 323.285 148.121 323.285 146.363ZM320.766 166.285H300.375V238.062H320.766V166.285ZM413.812 202.145C413.812 207.77 412.836 212.984 410.883 217.789C408.969 222.594 406.234 226.754 402.68 230.27C399.164 233.785 394.926 236.539 389.965 238.531C385.043 240.523 379.594 241.52 373.617 241.52C369.867 241.52 366.273 241.031 362.836 240.055C359.398 239.078 356.195 237.73 353.227 236.012C350.297 234.254 347.621 232.164 345.199 229.742C342.816 227.32 340.766 224.664 339.047 221.773C337.367 218.883 336.059 215.816 335.121 212.574C334.223 209.293 333.773 205.934 333.773 202.496C333.773 196.988 334.809 191.891 336.879 187.203C338.949 182.477 341.801 178.395 345.434 174.957C349.066 171.48 353.324 168.766 358.207 166.812C363.129 164.859 368.422 163.883 374.086 163.883C379.672 163.883 384.867 164.84 389.672 166.754C394.516 168.629 398.715 171.266 402.27 174.664C405.863 178.062 408.676 182.105 410.707 186.793C412.777 191.48 413.812 196.598 413.812 202.145ZM412.816 202.145C412.816 198.551 412.367 195.133 411.469 191.891C410.57 188.648 409.281 185.66 407.602 182.926C405.961 180.152 403.969 177.652 401.625 175.426C399.32 173.16 396.723 171.246 393.832 169.684C390.98 168.121 387.875 166.93 384.516 166.109C381.195 165.25 377.719 164.82 374.086 164.82C368.539 164.82 363.363 165.777 358.559 167.691C353.754 169.605 349.574 172.262 346.02 175.66C342.504 179.02 339.73 183.004 337.699 187.613C335.707 192.184 334.711 197.145 334.711 202.496C334.711 205.855 335.16 209.117 336.059 212.281C336.957 215.445 338.227 218.453 339.867 221.305C341.547 224.117 343.559 226.715 345.902 229.098C348.246 231.441 350.844 233.473 353.695 235.191C356.586 236.871 359.711 238.18 363.07 239.117C366.43 240.094 369.945 240.582 373.617 240.582C379.477 240.582 384.809 239.605 389.613 237.652C394.457 235.699 398.598 233.023 402.035 229.625C405.473 226.188 408.129 222.125 410.004 217.438C411.879 212.75 412.816 207.652 412.816 202.145ZM392.543 201.793C392.543 204.801 392.113 207.516 391.254 209.938C390.395 212.32 389.145 214.371 387.504 216.09C385.902 217.77 383.949 219.078 381.645 220.016C379.34 220.914 376.742 221.363 373.852 221.363C371.156 221.363 368.656 220.895 366.352 219.957C364.086 218.98 362.113 217.672 360.434 216.031C358.793 214.352 357.484 212.398 356.508 210.172C355.57 207.906 355.102 205.484 355.102 202.906C355.102 200.25 355.551 197.77 356.449 195.465C357.348 193.16 358.617 191.148 360.258 189.43C361.898 187.711 363.871 186.363 366.176 185.387C368.52 184.41 371.117 183.922 373.969 183.922C376.703 183.922 379.203 184.391 381.469 185.328C383.734 186.227 385.688 187.477 387.328 189.078C388.969 190.68 390.238 192.574 391.137 194.762C392.074 196.949 392.543 199.293 392.543 201.793ZM391.605 201.793C391.605 199.41 391.176 197.203 390.316 195.172C389.457 193.102 388.246 191.305 386.684 189.781C385.121 188.258 383.266 187.066 381.117 186.207C378.969 185.309 376.586 184.859 373.969 184.859C371.273 184.859 368.812 185.328 366.586 186.266C364.398 187.203 362.523 188.492 360.961 190.133C359.398 191.734 358.188 193.648 357.328 195.875C356.508 198.062 356.098 200.406 356.098 202.906C356.098 205.367 356.547 207.672 357.445 209.82C358.344 211.93 359.574 213.785 361.137 215.387C362.738 216.949 364.613 218.18 366.762 219.078C368.949 219.977 371.312 220.426 373.852 220.426C376.586 220.426 379.047 219.996 381.234 219.137C383.461 218.277 385.336 217.047 386.859 215.445C388.383 213.844 389.555 211.891 390.375 209.586C391.195 207.281 391.605 204.684 391.605 201.793Z" fill="url(#paint0_linear_148_565)"/>
<defs>
<linearGradient id="paint0_linear_148_565" x1="5.2233" y1="-11" x2="98.3868" y2="289.455" gradientUnits="userSpaceOnUse">
<stop stop-color="#14FFEC"/>
<stop offset="1" stop-color="#8839FF"/>
</linearGradient>
</defs>
</svg>
