<svg width="60" height="58" viewBox="0 0 60 58" fill="none" xmlns="http://www.w3.org/2000/svg">
<path d="M0.934793 52.1519H2.85393V43.5703L5.82515 51.0516C6.17553 51.9572 6.65531 52.2773 7.59666 52.2773C8.53801 52.2773 8.99958 51.9572 9.34996 51.0516L12.3212 43.5703V52.1519H14.2403V43.5845C14.2403 42.7487 13.9451 42.3441 13.3359 42.1357C11.8778 41.6204 10.8996 42.0664 10.4567 43.1809L7.54107 50.5644L4.71795 43.1804C4.29329 42.0664 3.29681 41.6204 1.83877 42.1351C1.22958 42.3441 0.934326 42.7482 0.934326 43.584V52.1519H0.934793ZM15.8366 45.1662H17.7553V49.8942C17.7376 50.1508 17.8282 50.7538 18.8793 50.7729C19.4156 50.7824 23.0194 50.7729 23.053 50.7729V45.1429H24.9764C24.9853 45.1429 24.9745 52.8205 24.9745 52.8523C24.9848 54.746 22.8998 55.1571 21.9384 55.1888H15.8782V53.7267C15.8885 53.7267 21.9342 53.7283 21.9491 53.7262C23.1848 53.5786 23.0386 52.8835 23.0381 52.6497V52.0794H18.9592C17.0616 52.0599 15.8525 51.122 15.8371 50.0429C15.8362 49.9439 15.8787 45.2138 15.8366 45.1662Z" fill="url(#paint0_linear_185_373)"/>
<path d="M26.456 52.1519H31.9742C32.6203 52.1519 33.2482 51.999 33.7462 51.7345C34.5764 51.3029 34.9823 50.7178 34.9823 49.9508V48.3628C34.9823 47.736 34.5212 47.1504 33.6168 46.761C33.137 46.5516 32.546 46.441 31.9738 46.441H29.6482C28.8731 46.441 28.5041 46.1765 28.412 45.5915C28.3938 45.5216 28.3938 45.4661 28.3938 45.3963V44.4071C28.3938 44.3515 28.3938 44.2955 28.412 44.2262C28.5041 43.7802 28.7073 43.6549 29.3903 43.585L29.5748 43.5713H35.0562V42.1229H29.6673C28.8923 42.1229 28.4863 42.1785 28.1173 42.3039C26.9732 42.708 26.4742 43.3486 26.4742 44.4632V45.7306C26.4742 46.706 27.4529 47.5418 29.095 47.737C29.28 47.7502 29.4641 47.7651 29.6486 47.7651H31.6421C31.7159 47.7651 31.7897 47.7651 31.8453 47.7783C32.4545 47.8338 32.7124 47.9597 32.8974 48.2099C33.0081 48.3353 33.0445 48.4612 33.0445 48.5998V49.8677C33.0445 50.0206 32.9525 50.2158 32.7679 50.383C32.6021 50.5501 32.3251 50.6617 31.956 50.6898L31.7528 50.7035H26.456V52.1519ZM46.956 49.6308C46.956 51.1209 47.9342 51.9567 49.9085 52.1244C50.093 52.1381 50.2775 52.1519 50.4621 52.1519H55.4636V50.7035H50.4256C49.2998 50.7035 48.8756 50.383 48.8756 49.6165V42.1219H46.9564V49.6308H46.956ZM36.2073 49.7059V44.5404C36.2073 43.2285 37.0211 42.4324 38.63 42.1811C38.7963 42.1531 38.9818 42.1393 39.1476 42.1393H42.7911C42.9761 42.1393 43.1424 42.1531 43.327 42.1811C44.9359 42.4324 45.7502 43.228 45.7502 44.5404V49.7059C45.7502 50.7712 45.4045 51.3404 44.6079 51.7118L46.4991 53.6441H44.2702L42.7407 52.0805L41.2009 52.191H39.1476C38.7963 52.191 38.4268 52.1355 38.0199 52.0096C36.7992 51.633 36.2073 50.9067 36.2073 49.7059ZM38.2787 49.5805C38.2787 49.6503 38.2969 49.7207 38.3156 49.8043C38.4263 50.4047 38.9262 50.7395 39.684 50.7395H41.4274L39.826 49.1023H42.0549L43.4512 50.5306C43.7091 50.3745 43.8782 50.1375 43.9376 49.8323C43.9558 49.7625 43.9558 49.6927 43.9558 49.6228V44.6673C43.9558 44.6118 43.9558 44.5414 43.9376 44.4716C43.8264 43.913 43.327 43.5925 42.5874 43.5925H39.6835C38.8332 43.5925 38.2782 44.0114 38.2782 44.6673V49.5805H38.2787Z" fill="url(#paint1_linear_185_373)"/>
<path d="M57.1519 39.7177C55.9723 39.6812 55.0711 39.8055 54.3003 40.1732C54.0812 40.2779 53.7322 40.2805 53.6967 40.5911C53.8167 40.7344 53.8354 40.9476 53.9312 41.1232C54.1153 41.4602 54.4259 41.9119 54.703 42.1484C55.0052 42.407 55.3173 42.6842 55.6424 42.9085C56.2194 43.3074 56.8641 43.5348 57.4205 43.9337C57.748 44.1696 58.0731 44.4658 58.3931 44.7319C58.5515 44.8626 58.6571 45.0673 58.8631 45.1493V45.1117C58.7552 44.9562 58.7272 44.7425 58.6281 44.5796L58.1918 44.0855C57.7653 43.4444 57.2243 42.8821 56.6483 42.4145C56.1895 42.0415 55.1627 41.5374 54.9711 40.9328L54.9375 40.8952C55.2626 40.8534 55.6438 40.7201 55.9438 40.6291C56.4483 40.4757 56.8991 40.5154 57.42 40.3631L58.1245 40.1345V39.9833C57.8615 39.6775 57.6732 39.2723 57.3864 38.9956C56.6356 38.2715 55.8153 37.5478 54.9711 36.9437C54.503 36.6094 53.9242 36.392 53.4276 36.1085C53.2613 36.0127 52.9679 35.9635 52.8572 35.8043C52.596 35.4282 52.4545 34.9516 52.2531 34.5131C51.8327 33.5953 51.4187 32.5923 51.0455 31.6259C50.7913 30.9673 50.625 30.3177 50.3078 29.7268C48.7844 26.891 47.1446 25.1792 44.6046 23.497C44.0641 23.1389 43.4133 22.9982 42.7261 22.8136L41.6189 22.7374C41.3942 22.6311 41.1596 22.319 40.948 22.1677C40.1062 21.5657 37.9478 20.2565 37.3246 21.9783C36.9313 23.0649 37.9133 24.1249 38.2641 24.6756C38.5103 25.0618 38.8261 25.4945 39.0022 25.9288C39.1181 26.2144 39.1377 26.5006 39.2372 26.8026C39.4806 27.5464 39.6932 28.3563 40.0085 29.0434C40.1678 29.3915 40.344 29.7581 40.5453 30.0691C40.6687 30.2595 40.8807 30.3442 40.9139 30.6388C40.707 30.9668 40.6948 31.4767 40.5785 31.892C40.0543 33.764 40.2519 36.091 41.0148 37.4764C41.2489 37.9022 41.8001 38.8142 42.5579 38.464C43.2208 38.1583 43.0732 37.2109 43.2629 36.3745C43.3058 36.1857 43.2792 36.0461 43.3633 35.9191V35.9572L43.9674 37.3246C44.4144 38.1398 45.2072 38.9909 45.8795 39.5659C46.228 39.8637 46.5027 40.3795 46.953 40.5535V40.5149H46.9199C46.832 40.361 46.6961 40.2975 46.584 40.1732C46.3214 39.8817 46.0294 39.5199 45.8127 39.1856C45.2012 38.2461 44.6611 37.2172 44.1687 36.1466C43.9337 35.6356 43.7296 35.0717 43.5315 34.5512C43.4549 34.3507 43.4558 34.047 43.297 33.9439C43.0793 34.3247 42.7602 34.6331 42.592 35.0833C42.3238 35.8027 42.2893 36.6803 42.1898 37.5901L42.1225 37.6277C41.6549 37.5002 41.4909 36.9554 41.3171 36.4883C40.8779 35.3071 40.7962 33.4043 41.183 32.0443C41.283 31.692 41.7347 30.5838 41.5516 30.2585C41.4642 29.9342 41.176 29.7469 41.0153 29.4983C40.8158 29.192 40.6163 28.789 40.4785 28.4345C40.1188 27.5136 39.9511 26.4794 39.5731 25.5479C39.3919 25.1025 39.0863 24.6523 38.835 24.2567C38.557 23.8176 38.2454 23.4949 38.0296 22.9649C37.953 22.7766 37.8488 22.4745 37.9623 22.2809C37.9983 22.1503 38.0502 22.0958 38.1641 22.0529C38.3585 21.8831 38.9004 22.1095 39.1032 22.2047C39.6413 22.4581 40.0903 22.6988 40.5463 23.0405C40.7649 23.205 40.9859 23.5224 41.2507 23.6102H41.5525C42.0249 23.733 42.5542 23.6478 42.9952 23.7996C43.7753 24.0683 44.4742 24.4857 45.1087 24.9396C47.0423 26.3223 48.6227 28.2901 49.7047 30.6378C49.8785 31.016 49.9542 31.3762 50.1069 31.7772C50.4162 32.5855 50.8058 33.4175 51.1132 34.2084C51.4201 34.9971 51.7196 35.7932 52.1536 36.4497C52.3816 36.7946 53.2627 36.9797 53.663 37.1712C53.9438 37.3056 54.4035 37.4457 54.6693 37.6266C55.1771 37.9737 55.6695 38.3868 56.1456 38.7666C56.3834 38.9581 57.1154 39.3744 57.1519 39.7177ZM42.1561 25.2453C41.9104 25.24 41.7361 25.276 41.5521 25.3215V25.359H41.5857C41.703 25.6325 41.9099 25.8082 42.0552 26.043L42.3911 26.8407L42.4243 26.8032C42.6322 26.6376 42.727 26.3726 42.7261 25.9674C42.6425 25.8679 42.6303 25.7436 42.5584 25.6257C42.4631 25.467 42.2771 25.3781 42.1561 25.2453Z" fill="url(#paint2_linear_185_373)"/>
<defs>
<linearGradient id="paint0_linear_185_373" x1="4.11823" y1="41.9223" x2="8.61632" y2="55.6156" gradientUnits="userSpaceOnUse">
<stop stop-color="#14FFEC"/>
<stop offset="1" stop-color="#8839FF"/>
</linearGradient>
<linearGradient id="paint1_linear_185_373" x1="30.2969" y1="42.1219" x2="33.248" y2="54.6003" gradientUnits="userSpaceOnUse">
<stop stop-color="#14FFEC"/>
<stop offset="1" stop-color="#8839FF"/>
</linearGradient>
<linearGradient id="paint2_linear_185_373" x1="40.0973" y1="21.1226" x2="52.7391" y2="40.2375" gradientUnits="userSpaceOnUse">
<stop stop-color="#14FFEC"/>
<stop offset="1" stop-color="#8839FF"/>
</linearGradient>
</defs>
</svg>
