<svg width="50" height="50" viewBox="0 0 50 50" fill="none" xmlns="http://www.w3.org/2000/svg">
<path d="M10.8804 45.4508L7.73865 10.2121H42.2613L39.1164 45.4453L24.9789 49.3644L10.8804 45.4508Z" fill="url(#paint0_linear_185_377)"/>
<path d="M25 46.3688L36.4234 43.2016L39.1113 13.0938H25V46.3688Z" fill="url(#paint1_linear_185_377)"/>
<path d="M25 26.1633H19.2809L18.8863 21.7371H25V17.4152H14.1629L14.266 18.575L15.3285 30.4848H25V26.1633ZM25 37.3871L24.9809 37.3922L20.168 36.0922L19.8602 32.6457H15.5215L16.127 39.4316L24.9801 41.8894L25 41.8836V37.3871Z" fill="#02031C"/>
<path d="M10.9508 0.635559H13.1469V2.80587H15.1563V0.635559H17.3528V7.20665H15.1563V5.00626H13.1473V7.20665H10.9508V0.635559ZM20.2407 2.81486H18.3071V0.635559H24.3715V2.81486H22.4371V7.20665H20.2407V2.81486ZM25.334 0.635559H27.6239L29.0328 2.94454L30.4403 0.635559H32.7313V7.20665H30.5434V3.94962L29.0328 6.28595H28.9946L27.4828 3.94962V7.20665H25.3336V0.635559H25.334ZM33.8246 0.635559H36.0215V5.03478H39.1102V7.20704H33.8246V0.635559Z" fill="url(#paint2_linear_185_377)"/>
<path d="M24.9852 26.1633V30.4848H30.307L29.8055 36.0898L24.9852 37.391V41.8871L33.8453 39.4316L33.9102 38.7012L34.9258 27.3234L35.0313 26.1633H33.8664H24.9852ZM24.9852 17.4152V21.7371H35.4246L35.5109 20.7656L35.7082 18.575L35.8117 17.4152H24.9852Z" fill="#02031C"/>
<defs>
<linearGradient id="paint0_linear_185_377" x1="12.3098" y1="10.2121" x2="33.0744" y2="40.9639" gradientUnits="userSpaceOnUse">
<stop stop-color="#14FFEC"/>
<stop offset="1" stop-color="#8839FF"/>
</linearGradient>
<linearGradient id="paint1_linear_185_377" x1="26.8685" y1="13.0938" x2="44.8494" y2="25.9012" gradientUnits="userSpaceOnUse">
<stop stop-color="#14FFEC"/>
<stop offset="1" stop-color="#8839FF"/>
</linearGradient>
<linearGradient id="paint2_linear_185_377" x1="14.6794" y1="0.635559" x2="15.7038" y2="8.00806" gradientUnits="userSpaceOnUse">
<stop stop-color="#14FFEC"/>
<stop offset="1" stop-color="#8839FF"/>
</linearGradient>
</defs>
</svg>
