<svg width="40" height="40" viewBox="0 0 40 40" fill="none" xmlns="http://www.w3.org/2000/svg">
<path d="M0 0.501404V39.3934H40V0.501404H0ZM1.66688 2.16366H38.3337V37.7317H1.66688V2.16366ZM13.8831 22.5234L12.5663 27.5095C12.5331 27.6423 12.4831 27.6759 12.3162 27.6759H9.86625C9.69938 27.6759 9.66625 27.6261 9.69938 27.4266L14.4325 10.9056C14.5156 10.6065 14.5656 10.3403 14.5994 9.52633C14.5994 9.40978 14.6494 9.35992 14.7325 9.35992H18.2325C18.3494 9.35992 18.3994 9.39295 18.4325 9.52633L23.7325 27.4596C23.7656 27.5924 23.7325 27.6759 23.5994 27.6759H20.8325C20.6994 27.6759 20.6156 27.6429 20.5825 27.5263L19.1994 22.5234H13.8831ZM18.5163 19.8308L16.5331 12.0194H16.5C16.15 13.964 15.2669 17.2549 14.5669 19.8308H18.5163ZM26.0163 10.5896C26.0163 9.52571 26.7663 8.89434 27.7163 8.89434C28.7331 8.89434 29.4163 9.57557 29.4163 10.5896C29.4163 11.6866 28.6994 12.2849 27.6831 12.2849C26.7162 12.2849 26.0163 11.6866 26.0163 10.5896ZM26.2162 14.3623C26.2162 14.2295 26.2662 14.1628 26.4162 14.1628H29.0331C29.1663 14.1628 29.2331 14.2127 29.2331 14.3623V27.4758C29.2331 27.6086 29.2 27.6753 29.0331 27.6753H26.45C26.2831 27.6753 26.2331 27.5924 26.2331 27.459V14.3629L26.2162 14.3623Z" fill="url(#paint0_linear_186_428)"/>
<defs>
<linearGradient id="paint0_linear_186_428" x1="5.29644" y1="0.501405" x2="24.5803" y2="33.8131" gradientUnits="userSpaceOnUse">
<stop stop-color="#14FFEC"/>
<stop offset="1" stop-color="#8839FF"/>
</linearGradient>
</defs>
</svg>
