<svg width="236" height="49" viewBox="0 0 236 49" fill="none" xmlns="http://www.w3.org/2000/svg">
<path d="M22.128 48.864C18.192 48.864 14.568 47.952 11.256 46.128C7.944 44.304 5.28 41.616 3.264 38.064C1.296 34.464 0.312 30.048 0.312 24.816C0.312 19.632 1.32 15.216 3.336 11.568C5.4 7.872 8.112 5.064 11.472 3.144C14.88 1.176 18.552 0.191998 22.488 0.191998C25.512 0.191998 28.224 0.815998 30.624 2.064C33.024 3.264 35.016 4.68 36.6 6.312L30.984 13.08C29.784 11.976 28.512 11.088 27.168 10.416C25.872 9.696 24.384 9.336 22.704 9.336C20.592 9.336 18.648 9.936 16.872 11.136C15.144 12.336 13.752 14.064 12.696 16.32C11.688 18.576 11.184 21.288 11.184 24.456C11.184 29.256 12.216 33 14.28 35.688C16.344 38.376 19.104 39.72 22.56 39.72C24.48 39.72 26.184 39.288 27.672 38.424C29.208 37.56 30.552 36.528 31.704 35.328L37.32 41.952C33.384 46.56 28.32 48.864 22.128 48.864ZM44.4503 48V1.056H55.0343V19.488H60.2183L66.3383 8.688C68.1623 5.472 70.0103 3.264 71.8823 2.064C73.8023 0.815998 76.0823 0.191998 78.7223 0.191998C79.3943 0.191998 80.0903 0.239997 80.8103 0.335996C81.5303 0.431997 82.1303 0.599998 82.6103 0.839998L80.8823 10.416C80.4503 10.272 80.0423 10.2 79.6583 10.2C79.3223 10.152 79.0343 10.128 78.7943 10.128C77.7383 10.128 76.8263 10.416 76.0583 10.992C75.3383 11.568 74.4983 12.696 73.5383 14.376L68.4983 23.16L83.8343 48H72.6743L60.2183 28.056H55.0343V48H44.4503ZM89.2393 48V1.056H99.7513V17.616C99.7513 20.4 99.5833 23.328 99.2473 26.4C98.9113 29.472 98.6233 32.256 98.3833 34.752H98.6713L103.279 24.456L115.591 1.056H126.823V48H116.383V31.368C116.383 28.584 116.551 25.704 116.887 22.728C117.223 19.752 117.487 16.968 117.679 14.376H117.391L112.783 24.6L100.471 48H89.2393ZM137.104 48.864C135.856 48.864 134.824 48.816 134.008 48.72C133.192 48.624 132.4 48.432 131.632 48.144L133.504 38.64C133.84 38.688 134.152 38.76 134.44 38.856C134.776 38.904 135.136 38.928 135.52 38.928C136.336 38.928 137.056 38.688 137.68 38.208C138.352 37.728 139 36.696 139.624 35.112C140.296 33.528 140.992 31.056 141.712 27.696C142.672 23.328 143.56 18.936 144.376 14.52C145.192 10.056 146.008 5.568 146.824 1.056H174.184V48H163.528V9.984H154.96C154.384 13.296 153.808 16.488 153.232 19.56C152.656 22.632 152.08 25.728 151.504 28.848C150.496 34.08 149.344 38.16 148.048 41.088C146.8 43.968 145.288 45.984 143.512 47.136C141.736 48.288 139.6 48.864 137.104 48.864ZM185.216 48V1.056H195.8V18.192H200.48C204.032 18.192 207.176 18.696 209.912 19.704C212.696 20.664 214.88 22.2 216.464 24.312C218.048 26.424 218.84 29.208 218.84 32.664C218.84 36.408 218 39.408 216.32 41.664C214.688 43.92 212.48 45.552 209.696 46.56C206.912 47.52 203.768 48 200.264 48H185.216ZM195.8 39.576H199.616C202.4 39.576 204.56 39.048 206.096 37.992C207.68 36.936 208.472 35.208 208.472 32.808C208.472 28.68 205.52 26.616 199.616 26.616H195.8V39.576ZM224.96 48V1.056H235.544V48H224.96Z" fill="url(#paint0_linear_148_487)" fill-opacity="0.4"/>
<defs>
<linearGradient id="paint0_linear_148_487" x1="29.4407" y1="3" x2="33.4196" y2="46.0875" gradientUnits="userSpaceOnUse">
<stop stop-color="#14FFEC"/>
<stop offset="1" stop-color="#8839FF"/>
</linearGradient>
</defs>
</svg>
