<svg width="50" height="50" viewBox="0 0 50 50" fill="none" xmlns="http://www.w3.org/2000/svg">
<path d="M4.0816 43.8677H5.71858C6.46448 43.8677 7.0062 43.9699 7.34296 44.1744C7.68011 44.3788 7.84849 44.7037 7.84849 45.1493C7.84849 45.4518 7.77453 45.6998 7.627 45.8936C7.47947 46.0874 7.28316 46.2041 7.03846 46.2434V46.2779C7.37207 46.3494 7.61245 46.4835 7.75997 46.6796C7.9075 46.8757 7.98146 47.1365 7.98146 47.4621C7.98146 47.924 7.80836 48.2841 7.46138 48.5427C7.11478 48.8012 6.64387 48.9303 6.04904 48.9303H4.0816V43.8677ZM5.19692 45.8728H5.84447C6.14661 45.8728 6.36573 45.8277 6.50107 45.738C6.63679 45.6479 6.70446 45.4991 6.70446 45.2912C6.70446 45.0974 6.63089 44.9585 6.48336 44.874C6.33583 44.7896 6.10254 44.7476 5.78349 44.7476H5.19692V45.8728ZM5.19692 46.7246V48.044H5.92394C6.23079 48.044 6.4574 47.9876 6.60414 47.8744C6.75088 47.7612 6.82366 47.5882 6.82366 47.355C6.82366 46.9351 6.51169 46.7246 5.88814 46.7246H5.19692ZM13.8071 46.3922C13.8071 47.2301 13.5911 47.8744 13.1595 48.3246C12.7279 48.7747 12.1091 49 11.303 49C10.4969 49 9.87809 48.7747 9.44652 48.3246C9.01455 47.8744 8.79897 47.2282 8.79897 46.3854C8.79897 45.5426 9.01534 44.8994 9.44848 44.4549C9.88163 44.0104 10.502 43.7882 11.3105 43.7882C12.1189 43.7882 12.737 44.0123 13.1654 44.4598C13.593 44.9077 13.8071 45.5521 13.8071 46.3922ZM9.96818 46.3922C9.96818 46.9578 10.0795 47.3838 10.303 47.67C10.526 47.9562 10.8592 48.0993 11.303 48.0993C12.1929 48.0993 12.6378 47.5303 12.6378 46.3922C12.6378 45.2519 12.1953 44.6817 11.3101 44.6817C10.8663 44.6817 10.5315 44.8252 10.3061 45.1129C10.0807 45.4007 9.96818 45.8266 9.96818 46.3922ZM19.6724 46.3922C19.6724 47.2301 19.4564 47.8744 19.0248 48.3246C18.5933 48.7747 17.9744 49 17.1683 49C16.3622 49 15.7434 48.7747 15.3118 48.3246C14.8799 47.8744 14.6643 47.2282 14.6643 46.3854C14.6643 45.5426 14.8807 44.8994 15.3138 44.4549C15.747 44.0104 16.3674 43.7882 17.1758 43.7882C17.9843 43.7882 18.6023 44.0123 19.0307 44.4598C19.458 44.9077 19.6724 45.5521 19.6724 46.3922ZM15.8331 46.3922C15.8331 46.9578 15.9444 47.3838 16.1679 47.67C16.391 47.9562 16.7242 48.0993 17.1679 48.0993C18.0578 48.0993 18.5028 47.5303 18.5028 46.3922C18.5028 45.2519 18.0602 44.6817 17.175 44.6817C16.7313 44.6817 16.3965 44.8252 16.1711 45.1129C15.9456 45.4007 15.8331 45.8266 15.8331 46.3922ZM22.7917 48.9303H21.6764V44.7612H20.2479V43.8677H24.2202V44.7612H22.7917V48.9303ZM28.1346 47.5246C28.1346 47.982 27.9639 48.342 27.622 48.6051C27.2801 48.8682 26.8045 49 26.1955 49C25.6341 49 25.1376 48.8982 24.7061 48.6952V47.698C25.0609 47.8502 25.3615 47.9577 25.6073 48.0202C25.8532 48.0827 26.0779 48.1137 26.282 48.1137C26.5267 48.1137 26.7144 48.0686 26.845 47.9789C26.976 47.8888 27.0413 47.7552 27.0413 47.5772C27.0413 47.478 27.0126 47.3898 26.9552 47.3122C26.8977 47.235 26.8131 47.1604 26.7014 47.0888C26.5897 47.0173 26.3627 46.9029 26.0196 46.7462C25.6982 46.6008 25.4571 46.4611 25.2966 46.3271C25.1357 46.1931 25.0074 46.0375 24.9114 45.8599C24.8154 45.682 24.7674 45.4741 24.7674 45.2367C24.7674 44.7888 24.9252 44.4368 25.2407 44.1804C25.5562 43.9241 25.9921 43.7962 26.5488 43.7962C26.8222 43.7962 27.083 43.8272 27.3313 43.8897C27.5795 43.9521 27.8392 44.0396 28.1102 44.1528L27.7502 44.9872C27.4697 44.8767 27.2376 44.7991 27.0539 44.7552C26.8702 44.7112 26.69 44.6893 26.5126 44.6893C26.3013 44.6893 26.1396 44.7366 26.0267 44.8312C25.9138 44.9259 25.8576 45.0493 25.8576 45.2019C25.8576 45.2966 25.8804 45.3791 25.926 45.4495C25.9716 45.5199 26.044 45.5881 26.1436 45.6539C26.2431 45.7198 26.4787 45.8379 26.8505 46.0091C27.3423 46.2355 27.6794 46.4623 27.8616 46.6894C28.0437 46.9166 28.1346 47.1945 28.1346 47.5246ZM31.1178 48.9303H30.0025V44.7612H28.574V43.8677H32.5463V44.7612H31.1178V48.9303ZM34.4712 46.9878V48.9303H33.3559V43.8677H34.8886C35.6035 43.8677 36.1322 43.993 36.4753 44.2433C36.8183 44.4939 36.9898 44.8744 36.9898 45.3844C36.9898 45.6823 36.9049 45.947 36.7345 46.1791C36.5642 46.4111 36.323 46.5929 36.0114 46.7242C36.803 47.8623 37.3187 48.5976 37.5587 48.93H36.321L35.0653 46.9874H34.4712V46.9878ZM34.4712 46.1151H34.8312C35.1837 46.1151 35.4441 46.0587 35.6121 45.9455C35.7801 45.8323 35.8639 45.6543 35.8639 45.412C35.8639 45.172 35.7781 45.0012 35.6066 44.8994C35.4351 44.7979 35.1695 44.7472 34.8096 44.7472H34.4712V46.1151ZM41.4409 48.9303L41.0593 47.7253H39.1414L38.7598 48.9303H37.5579L39.4144 43.8473H40.778L42.6419 48.9303H41.4409ZM40.7929 46.825C40.4404 45.7331 40.2418 45.1156 40.1973 44.9725C40.1528 44.8294 40.1214 44.7162 40.1021 44.6332C40.023 44.9286 39.7964 45.6592 39.4219 46.825H40.7929ZM46.9388 45.4469C46.9388 45.9917 46.7617 46.4085 46.408 46.6966C46.0544 46.9855 45.5512 47.1297 44.8985 47.1297H44.4202V48.9303H43.3048V43.8677H44.9851C45.6232 43.8677 46.1083 43.9999 46.4407 44.2641C46.7727 44.5288 46.9388 44.9229 46.9388 45.4469ZM44.4202 46.2502H44.7872C45.1303 46.2502 45.3868 46.1851 45.5571 46.0545C45.7274 45.9239 45.8124 45.7342 45.8124 45.4851C45.8124 45.2333 45.7408 45.0474 45.5984 44.9274C45.4556 44.8074 45.2318 44.7472 44.9273 44.7472H44.4198V46.2502H44.4202ZM29.425 22.7317C28.6449 22.4845 27.5217 22.4443 26.0554 22.4443H20.7893V30.0163H26.4638C27.4481 30.0163 28.1393 29.922 28.5375 29.8509C29.2389 29.7305 29.8255 29.4988 30.2968 29.2163C30.7681 28.9346 31.1556 28.5087 31.4593 27.9696C31.7626 27.4305 31.9149 26.8009 31.9149 26.0952C31.9149 25.2683 31.695 24.5883 31.2551 23.9788C30.8157 23.3689 30.2055 22.9785 29.425 22.7317ZM28.6161 19.4712C29.3912 19.2493 29.9754 18.848 30.3676 18.3343C30.7606 17.8205 30.9569 17.1595 30.9569 16.383C30.9569 15.6473 30.7736 14.9916 30.4069 14.4317C30.0403 13.8721 29.5167 13.4924 28.8364 13.2856C28.1551 13.0797 26.9874 12.9794 25.3327 12.9794H20.7893V19.7941H25.7096C27.061 19.7941 28.0296 19.6431 28.6161 19.4712ZM46.3608 7.34809C46.3608 4.39426 43.8725 2 40.8032 2H10.2172C7.14783 2 4.65952 4.39426 4.65952 7.34809V36.7834C4.65952 39.7372 7.14783 42.1315 10.2172 42.1315H40.8032C43.8725 42.1315 46.3608 39.7372 46.3608 36.7834V7.34809ZM34.3894 28.9827C33.9342 29.8747 33.3709 30.5626 32.7009 31.0465C32.0305 31.5299 31.1898 31.9725 30.1791 32.2194C29.1685 32.4666 27.93 32.6665 26.4638 32.6665H17.642V10.3292H26.3226C28.0823 10.3292 29.493 10.5639 30.556 11.0122C31.6194 11.4608 32.4515 12.1559 33.0546 13.088C33.6565 14.0205 33.9578 14.9984 33.9578 16.0165C33.9578 16.9637 33.6903 17.8568 33.1569 18.6936C32.6226 19.5303 31.8161 20.2061 30.7374 20.7198C32.1301 21.1128 33.2013 21.7841 33.95 22.7313C34.6986 23.6789 35.0732 24.7977 35.0732 26.088C35.0728 27.1261 34.8454 28.0911 34.3894 28.9827Z" fill="url(#paint0_linear_185_371)"/>
<defs>
<linearGradient id="paint0_linear_185_371" x1="9.75636" y1="2" x2="34.3604" y2="39.682" gradientUnits="userSpaceOnUse">
<stop stop-color="#14FFEC"/>
<stop offset="1" stop-color="#8839FF"/>
</linearGradient>
</defs>
</svg>
