<svg width="40" height="39" viewBox="0 0 40 39" fill="none" xmlns="http://www.w3.org/2000/svg">
<g clip-path="url(#clip0_186_431)">
<path d="M0.975586 0.981018H39.0244V37.2798H0.975586V0.981018Z" fill="#0C0824"/>
<path d="M1.66714 1.63555H38.3329V36.6253H1.66714V1.63555ZM0 38.2609H40V0H0V38.2609ZM26.9671 15.6968C25.65 15.6968 25.2 16.3513 25.2 16.8908C25.2 17.4795 25.5 17.8887 27.2671 18.7871C29.8843 20.0302 30.6957 21.2229 30.6957 22.9733C30.6957 25.5899 28.6629 26.9956 25.9129 26.9956C24.7326 27.0385 23.5596 26.798 22.4957 26.2949C22.3786 26.2458 22.3629 26.1646 22.3629 26.0328V23.6264C22.3629 23.4625 22.4457 23.4134 22.5629 23.4961C23.562 24.1264 24.725 24.4612 25.9129 24.4603C27.23 24.4603 27.78 23.9208 27.78 23.185C27.78 22.5963 27.3971 22.0736 25.7129 21.2229C23.3457 20.1115 22.3629 18.9805 22.3629 17.1025C22.3629 14.9932 24.0457 13.2442 26.9629 13.2442C27.9783 13.2014 28.9922 13.3572 29.9457 13.7024C30.0006 13.7374 30.045 13.7861 30.0744 13.8435C30.1038 13.9009 30.1171 13.9649 30.1129 14.029V16.2714C30.1129 16.4017 30.03 16.4844 29.8629 16.4354C28.9817 15.9377 27.9795 15.6834 26.9629 15.6996L26.9671 15.6968ZM12.6329 17.642C13.0157 17.6743 13.3157 17.6743 13.9829 17.6743C15.9329 17.6743 17.7657 17.0044 17.7657 14.4046C17.7657 12.3276 16.4486 11.2821 14.2329 11.2821C13.5657 11.2821 12.9329 11.3143 12.6329 11.3311V17.642ZM9.66571 8.95277C9.66571 8.83784 9.89857 8.75656 10.0329 8.75656C11.1 8.7075 12.6829 8.67527 14.3329 8.67527C18.95 8.67527 20.75 11.1601 20.75 14.3331C20.75 18.4858 17.6829 20.2685 13.9171 20.2685C13.2843 20.2685 13.0671 20.2362 12.6171 20.2362V26.5149C12.6171 26.6453 12.5671 26.7111 12.4171 26.7111H9.86714C9.73429 26.7111 9.66714 26.6621 9.66714 26.5149V8.95977L9.66571 8.95277Z" fill="url(#paint0_linear_186_431)"/>
</g>
<defs>
<linearGradient id="paint0_linear_186_431" x1="5.29644" y1="1.63528e-06" x2="24.1116" y2="33.0381" gradientUnits="userSpaceOnUse">
<stop stop-color="#14FFEC"/>
<stop offset="1" stop-color="#8839FF"/>
</linearGradient>
<clipPath id="clip0_186_431">
<rect width="40" height="38.2609" fill="white"/>
</clipPath>
</defs>
</svg>
