<svg width="60" height="60" viewBox="0 0 60 60" fill="none" xmlns="http://www.w3.org/2000/svg">
<path fill-rule="evenodd" clip-rule="evenodd" d="M40.9026 46.9402C40.9819 46.7878 41.0578 46.6533 41.1225 46.5141C41.1633 46.425 41.2261 46.4072 41.3147 46.4096C41.8458 46.4246 42.3769 46.441 42.9084 46.4461C43.3598 46.4508 43.8122 46.4424 44.2641 46.4372C44.7731 46.4311 45.2822 46.4044 45.7908 46.4189C46.4681 46.4386 47.1281 46.5713 47.7408 46.8727C48.4725 47.2332 49.0261 47.7821 49.4034 48.5053C49.6444 48.9671 49.7841 49.4569 49.8398 49.9772C49.9205 50.731 49.8675 51.4674 49.6284 52.1883C49.3322 53.0817 48.7697 53.7657 47.9883 54.278C47.3869 54.6722 46.7273 54.9052 46.0205 55.0383C45.2723 55.1794 44.5219 55.1339 43.7714 55.1363C42.9483 55.1396 42.1256 55.1217 41.3025 55.1124C41.1586 55.111 41.138 55.0838 41.1759 54.9464L41.2111 54.8199C41.2912 54.5677 41.3344 54.5564 41.5903 54.5142C41.7675 54.4857 41.9512 54.4191 42.0998 54.3207C42.1861 54.2635 42.2217 54.1144 42.2555 53.9996C42.2845 53.8992 42.2859 53.7891 42.2869 53.6832C42.2986 52.0777 42.3108 50.4727 42.3173 48.8682C42.3187 48.4627 42.3094 48.0563 42.2869 47.6513C42.2709 47.3677 42.1195 47.1736 41.782 47.1066C41.5195 47.0546 41.2551 47.0142 40.9912 46.9678L40.9026 46.9402ZM48.4383 50.8275C48.4026 50.5078 48.3853 50.1853 48.3281 49.8703C48.1912 49.1142 47.8603 48.4557 47.2791 47.9396C46.3392 47.1057 45.2077 46.9772 44.0217 47.0766C43.7517 47.0991 43.6936 47.1914 43.6894 47.4689C43.6828 47.8627 43.6762 48.2564 43.6758 48.6502C43.6739 49.8989 43.6739 51.1477 43.6758 52.3964C43.6762 52.7517 43.68 53.1071 43.6903 53.4614C43.7016 53.8242 43.8333 54.1313 44.1886 54.2719C44.7487 54.4936 45.338 54.5199 45.9258 54.4294C46.8647 54.2855 47.5214 53.7385 47.962 52.9186C48.3108 52.268 48.4092 51.5578 48.4383 50.8275ZM50.7206 55.0796C50.7094 54.885 50.7891 54.7242 50.8875 54.5766C50.9142 54.5367 51.0061 54.5386 51.0694 54.526L51.6066 54.4196C51.7964 54.3792 51.8962 54.2517 51.923 54.0657C51.9408 53.9428 51.9577 53.8186 51.9591 53.6944C51.9708 52.7114 51.982 51.7285 51.9867 50.7455C51.9914 49.7611 51.9877 48.7767 51.9877 47.7924L51.9834 47.6044C51.9642 47.288 51.8114 47.1239 51.4973 47.0775L50.8162 46.9739C50.7323 46.9627 50.7019 46.9224 50.7323 46.8478C50.7848 46.7208 50.835 46.5891 50.9091 46.4747C50.9367 46.4325 51.03 46.4161 51.0928 46.4175C51.4181 46.4222 51.7434 46.4466 52.0687 46.4461L54.9005 46.4292C55.4461 46.4288 55.973 46.5239 56.4623 46.785C57.0009 47.0719 57.3023 47.5158 57.3886 48.1205C57.4786 48.7557 57.2859 49.291 56.8219 49.7161C56.6311 49.8914 56.3841 50.0058 56.1628 50.1483L56.0906 50.1933C56.2959 50.2688 56.4914 50.3339 56.6817 50.4117C57.2386 50.64 57.6816 50.9967 57.9159 51.5663C58.1011 52.0158 58.1011 52.4846 57.9914 52.9505C57.8208 53.6799 57.3403 54.165 56.7155 54.5321C56.1291 54.8766 55.4944 55.0772 54.8184 55.111C54.195 55.1424 53.5687 55.1307 52.9439 55.1377L52.582 55.1396C51.9802 55.126 51.3778 55.1105 50.7755 55.0946L50.7206 55.0796ZM53.3161 52.2253H53.3222C53.3222 52.5338 53.318 52.8422 53.3236 53.1507C53.3273 53.3503 53.3203 53.5557 53.3634 53.7478C53.4281 54.0352 53.5594 54.2944 53.8819 54.3769C54.3173 54.4889 54.7622 54.5114 55.2028 54.435C55.7545 54.3389 56.1947 54.0624 56.4361 53.5369C56.6152 53.1464 56.6419 52.7325 56.5805 52.3097C56.4989 51.7528 56.2031 51.3488 55.7114 51.0839C55.3889 50.91 55.0448 50.8036 54.6783 50.7896C54.2677 50.7741 53.8566 50.7732 53.4459 50.7605C53.3306 50.7572 53.3147 50.8158 53.3152 50.9105C53.3175 51.3483 53.3161 51.7866 53.3161 52.2253ZM54.1903 50.1277C54.4148 50.1164 54.6689 50.1132 54.9216 50.0878C55.4053 50.0396 55.7461 49.7963 55.9237 49.3336C56.0142 49.0988 56.0105 48.8569 56.0128 48.6127C56.0198 47.9766 55.6486 47.4553 55.0444 47.2397C54.578 47.0733 54.097 47.0705 53.6133 47.0836C53.4173 47.0888 53.3297 47.1746 53.3269 47.3719L53.2978 49.9449C53.2964 50.0471 53.3405 50.0911 53.4398 50.0944L54.1903 50.1277Z" fill="url(#paint0_linear_185_403)"/>
<path fill-rule="evenodd" clip-rule="evenodd" d="M4.94201 54.585L4.90779 55.0275C4.58904 55.0275 4.29513 55.0251 4.00123 55.0284C3.44763 55.034 2.89404 55.0429 2.33998 55.0509L2.28654 55.0542C2.20732 55.0448 2.06342 55.0448 2.05967 55.0214C2.03623 54.8897 2.04373 54.7514 2.04982 54.615C2.05029 54.5995 2.1042 54.5798 2.1356 54.5723L2.56638 54.4762C2.83498 54.4064 2.92967 54.2906 2.94232 54.0131C2.95685 53.7004 2.97138 53.3873 2.97279 53.0747C2.97701 52.305 2.97232 51.5362 2.9756 50.7665C2.97607 50.5865 2.91373 50.4525 2.74592 50.3793C2.54623 50.2912 2.3456 50.205 2.14357 50.1234C2.04795 50.085 1.92373 50.0639 1.93498 49.9354C1.94623 49.8047 2.0667 49.7704 2.18013 49.7447C2.64982 49.6373 3.11998 49.5328 3.58826 49.4184C3.7392 49.3814 3.88357 49.319 4.06404 49.2562C4.07342 49.3537 4.09076 49.4465 4.08888 49.5393L4.06123 49.9804C4.06076 50.0301 4.08654 50.0967 4.12357 50.1243C4.14607 50.1417 4.22154 50.1103 4.25904 50.0812C4.65935 49.7765 5.0831 49.5136 5.56638 49.3603C6.31498 49.1226 6.95763 49.3429 7.40763 49.9884C7.56607 50.2158 7.56654 50.2158 7.78638 50.0569C8.16373 49.7826 8.55842 49.5408 8.99998 49.3814C9.96935 49.0312 10.9008 49.4756 11.2378 50.452C11.3606 50.8064 11.4075 51.1725 11.4065 51.5465L11.3976 54.03C11.3972 54.2348 11.4651 54.3515 11.6601 54.4153C11.879 54.487 12.1059 54.5362 12.3525 54.6009L12.2953 55.0279C12.015 55.0279 11.7572 55.0261 11.4994 55.0284C10.8694 55.034 10.2394 55.0373 9.60982 55.0519C9.50013 55.0547 9.47154 55.0275 9.46592 54.9248C9.44764 54.5962 9.44482 54.5967 9.7542 54.5226L9.85826 54.4959C10.1606 54.4134 10.2614 54.3206 10.2637 54.014C10.2708 53.1337 10.289 52.2511 10.2445 51.3726C10.1981 50.4614 9.47482 49.9762 8.5917 50.2097C8.30342 50.2856 8.04232 50.4187 7.79951 50.5912C7.71748 50.6498 7.70201 50.7173 7.70857 50.82C7.73342 51.2081 7.74888 51.5967 7.75217 51.9853C7.75779 52.6654 7.74935 53.3456 7.75217 54.0262C7.7531 54.3019 7.84732 54.4073 8.11967 54.4711L8.5242 54.5644L8.5992 54.5812C8.60482 54.7106 8.60998 54.84 8.60388 54.9694C8.60013 55.0504 8.53732 55.0575 8.46701 55.0561C8.07373 55.0462 7.67998 55.0331 7.2867 55.034C6.8081 55.035 6.32998 55.0486 5.85185 55.057H5.73935C5.73935 54.9197 5.73279 54.7884 5.74404 54.6576C5.74638 54.6262 5.8017 54.5822 5.83967 54.5723L6.31123 54.4725C6.51138 54.4233 6.60701 54.3206 6.61826 54.1172C6.6717 53.175 6.71013 52.2323 6.62154 51.2906C6.6042 51.1078 6.54467 50.9222 6.46873 50.7539C6.22732 50.2204 5.68404 49.9978 5.05732 50.1581C4.75967 50.234 4.49107 50.3704 4.23701 50.5425C4.11701 50.624 4.05982 50.7318 4.05982 50.8683C4.05982 51.8081 4.0631 52.7479 4.06592 53.6873L4.07107 54.0497C4.0767 54.3023 4.18404 54.4354 4.43482 54.4898C4.59607 54.5264 4.7592 54.5512 4.94201 54.585Z" fill="url(#paint1_linear_185_403)"/>
<path fill-rule="evenodd" clip-rule="evenodd" d="M33.2817 49.3523C33.3544 49.7058 33.353 50.0236 33.0933 50.2645C32.8355 50.504 32.5092 50.4234 32.191 50.37C32.2205 50.5378 32.2533 50.6803 32.2692 50.8247C32.385 51.8976 31.9233 52.694 30.9282 53.1492C30.5522 53.3208 30.1533 53.3845 29.746 53.4173C29.5435 53.4333 29.3663 53.5879 29.3471 53.7543C29.3274 53.9231 29.4333 54.0965 29.6452 54.1472C29.895 54.2067 30.1556 54.2236 30.4121 54.2531C30.9624 54.3159 31.5188 54.3445 32.0625 54.4429C32.8847 54.5911 33.3436 55.3087 33.1988 56.1347C33.0699 56.8697 32.6442 57.4045 32.0508 57.8147C31.051 58.5075 29.9541 58.71 28.786 58.3565C28.118 58.154 27.6469 57.7148 27.4842 57.0042C27.4027 56.6484 27.4894 56.3264 27.7571 56.085C28.0753 55.799 28.4217 55.544 28.755 55.274L28.8628 55.1658L28.7391 55.079C28.3992 54.9178 28.1274 54.697 28.0219 54.3136C27.9858 54.1837 28.0233 54.0984 28.1335 54.0318C28.321 53.9189 28.5075 53.804 28.6927 53.6873C28.7799 53.6329 28.8661 53.5767 28.9472 53.5139C29.0578 53.4295 29.048 53.3667 28.9158 53.3179C28.6083 53.2045 28.335 53.04 28.1231 52.7868C27.7692 52.3645 27.6689 51.8615 27.698 51.3304C27.7435 50.5008 28.1939 49.9542 28.9261 49.6026C29.7966 49.185 30.6699 49.1587 31.5572 49.5393C31.8853 49.68 32.2313 49.71 32.5833 49.6856C32.8463 49.6668 33.076 49.5675 33.2817 49.3523ZM30.0741 55.2965C29.4206 55.2909 29.2158 55.3715 28.8324 55.762C28.403 56.1998 28.4053 56.8068 28.8338 57.2465C29.1591 57.5798 29.565 57.7359 30.0164 57.7828C30.5438 57.8372 31.0632 57.8151 31.5422 57.5512C32.0532 57.2686 32.3072 56.7436 32.1924 56.2148C32.0972 55.7784 31.7757 55.5787 31.3842 55.4639C30.9389 55.3336 30.4786 55.3087 30.0741 55.2965ZM28.7906 51.1209C28.8146 51.3023 28.8244 51.4861 28.8647 51.6637C28.9692 52.124 29.1694 52.5286 29.6274 52.7334C30.165 52.9748 30.8517 52.8712 31.0871 52.1165C31.2483 51.5995 31.2286 51.0862 31.0341 50.5818C30.9474 50.3568 30.8077 50.1665 30.6075 50.0268C30.1406 49.7011 29.2983 49.6579 28.9552 50.3779C28.8436 50.6118 28.8 50.8608 28.7906 51.1209Z" fill="url(#paint2_linear_185_403)"/>
<path fill-rule="evenodd" clip-rule="evenodd" d="M22.1953 49.2366C22.2127 49.3167 22.2473 49.4076 22.2483 49.4991C22.2497 49.673 22.2309 49.8469 22.2211 50.0208V50.1717L22.3683 50.0592C22.7714 49.7273 23.2045 49.4447 23.7089 49.2923C24.6192 49.0181 25.5286 49.5164 25.8253 50.4436C25.9378 50.7961 25.9823 51.1584 25.9866 51.5269C25.9959 52.3453 26.0016 53.1637 26.01 53.9822C26.0128 54.2761 26.0466 54.3286 26.3245 54.4134C26.482 54.4617 26.6447 54.4955 26.8073 54.5208C26.8969 54.5348 26.9353 54.57 26.9306 54.6576L26.9316 54.7383C26.9283 55.0772 26.9048 55.0926 26.5762 55.0917C25.7897 55.0903 25.0036 55.095 24.217 55.1016C23.9826 55.1034 23.9822 55.1105 23.9587 54.8789L23.9541 54.7458C23.9686 54.5461 23.9733 54.548 24.1697 54.5189C24.3019 54.4992 24.4331 54.4687 24.562 54.435C24.6947 54.4008 24.7584 54.3028 24.7762 54.1716C24.7852 54.105 24.7969 54.0384 24.7964 53.9719C24.7851 53.0775 24.7997 52.1822 24.7509 51.2892C24.7116 50.5669 24.1603 50.1366 23.4352 50.1858C23.0794 50.2106 22.7578 50.3292 22.4644 50.5341C22.2708 50.6695 22.2319 50.865 22.2328 51.0755C22.2366 51.9117 22.2445 52.748 22.2534 53.5847C22.2553 53.768 22.2605 53.9512 22.2778 54.1331C22.2961 54.3319 22.3659 54.412 22.5609 54.4551C22.7475 54.4964 22.9378 54.5203 23.137 54.5536L23.1539 54.7073C23.1605 55.0659 23.123 55.0926 22.7747 55.0912C21.9614 55.088 21.1481 55.0931 20.3353 55.102C20.2073 55.1039 20.153 55.0636 20.1562 54.9389L20.1544 54.8855C20.1333 54.5625 20.1427 54.5503 20.4483 54.4978L20.5927 54.4687C20.9236 54.3942 21.0084 54.3061 21.0131 53.97C21.0286 52.9055 21.0342 51.8414 21.045 50.7769C21.0464 50.6241 20.9887 50.5055 20.8462 50.4422C20.6466 50.3541 20.445 50.2701 20.243 50.1872C20.1314 50.1412 20.0039 50.1122 19.9997 49.958C19.9969 49.8492 20.1131 49.7531 20.272 49.7208C20.5912 49.6561 20.9133 49.6022 21.2287 49.523C21.5428 49.4447 21.8512 49.3397 22.1953 49.2366Z" fill="url(#paint3_linear_185_403)"/>
<path fill-rule="evenodd" clip-rule="evenodd" d="M39.7805 52.0172C39.7655 53.0114 39.5072 53.8153 38.8041 54.4186C37.9135 55.184 36.5241 55.4442 35.3883 54.8719C34.9036 54.6276 34.5474 54.2531 34.3153 53.767C33.9596 53.0194 33.8705 52.2333 34.0561 51.4279C34.2399 50.6315 34.7222 50.0545 35.4441 49.6809C36.1866 49.297 36.9685 49.147 37.793 49.3486C38.836 49.6031 39.5855 50.4534 39.7346 51.5362C39.7613 51.7261 39.7716 51.9183 39.7805 52.0172ZM38.5725 52.5558L38.5322 52.5511C38.5322 52.4573 38.5374 52.3636 38.5313 52.2698C38.4971 51.6858 38.3658 51.1294 38.0274 50.6404C37.7063 50.1773 37.2689 49.904 36.6999 49.8642C36.0628 49.8192 35.5275 50.1755 35.3396 50.8261C35.0574 51.803 35.153 52.755 35.6489 53.6498C35.865 54.0398 36.1852 54.3276 36.6141 54.479C37.4546 54.7748 38.1999 54.3919 38.4188 53.5312C38.4994 53.2134 38.5228 52.8811 38.5725 52.5558Z" fill="url(#paint4_linear_185_403)"/>
<path fill-rule="evenodd" clip-rule="evenodd" d="M19.1339 52.0941C19.1166 52.8075 18.9483 53.467 18.5077 54.0403C18.0356 54.6544 17.3869 54.9825 16.6491 55.1208C15.7767 55.2839 14.9574 55.1358 14.2566 54.5503C13.9238 54.2719 13.6964 53.9152 13.5464 53.5092C13.3003 52.8436 13.2389 52.1616 13.3903 51.4664C13.552 50.7225 13.972 50.1539 14.6231 49.7723C15.376 49.3322 16.1883 49.1358 17.056 49.3336C18.1716 49.5886 18.8156 50.3156 19.0538 51.4163C19.1016 51.6384 19.1081 51.8681 19.1339 52.0941ZM17.9124 52.5647L17.88 52.56V52.4259C17.8617 51.7716 17.7338 51.1481 17.3433 50.6044C17.0541 50.2008 16.6669 49.9477 16.1705 49.8769C15.3614 49.7616 14.8327 50.2416 14.6574 50.8936C14.4286 51.7453 14.5003 52.5867 14.8542 53.3944C15.075 53.8978 15.4238 54.2902 15.9595 54.4805C16.7949 54.7772 17.5514 54.3844 17.7628 53.527C17.8406 53.2134 17.8641 52.8863 17.9124 52.5647Z" fill="url(#paint5_linear_185_403)"/>
<path fill-rule="evenodd" clip-rule="evenodd" d="M38.6072 15.7238C39.1824 17.3864 39.5958 19.0838 39.7322 20.8425C39.901 23.025 39.8241 25.1925 39.3638 27.3389L39.3047 27.5105C39.1603 27.5109 39.0132 27.4927 38.8721 27.5147C37.68 27.7022 36.4894 27.8963 35.2983 28.0894C34.0669 28.2891 32.8346 28.4808 31.6055 28.6936C31.17 28.7686 30.631 28.6791 30.4552 29.2809L30.3708 29.3095L30.4303 25.7105L30.3699 17.0264L30.9436 16.928C31.8816 16.7747 32.8196 16.6186 33.7589 16.4691C34.8792 16.2914 36.0005 16.118 37.1217 15.9445C37.6167 15.8686 38.1122 15.7978 38.6072 15.7238Z" fill="url(#paint6_linear_185_403)"/>
<path fill-rule="evenodd" clip-rule="evenodd" d="M29.1867 39.802C28.5815 39.2817 27.9553 38.7844 27.3755 38.2369C24.2545 35.2931 21.9712 31.8276 20.8467 27.6497C20.5369 26.5003 20.3306 25.3317 20.264 24.1439C20.2172 23.3123 20.1501 22.4737 20.2092 21.6464C20.3653 19.4466 20.6836 17.2678 21.3286 15.1486L21.3642 15.0994C21.427 15.1828 21.517 15.2569 21.5489 15.3511C22.1789 17.2055 22.8037 19.0617 23.4258 20.9194C25.38 26.7558 27.3319 32.5936 29.2894 38.4291C29.3278 38.543 29.4267 38.6362 29.498 38.7389L29.1867 39.802Z" fill="url(#paint7_linear_185_403)"/>
<path fill-rule="evenodd" clip-rule="evenodd" d="M38.6072 15.7237C38.1117 15.7973 37.6162 15.8686 37.1217 15.9445C36.0005 16.118 34.8792 16.2914 33.7589 16.469C32.82 16.6181 31.882 16.7742 30.9436 16.928L30.3698 17.0264L30.3651 16.6523C30.3459 16.3448 30.3141 16.0373 30.3098 15.7298L30.2456 9.84514C30.2306 8.61749 30.2081 7.38983 30.1833 6.16264C30.1678 5.39999 30.1514 4.63686 30.1172 3.87514C30.0984 3.46593 30.0323 3.05858 30.0061 2.64936C29.9906 2.41405 30.0112 2.17686 30.0164 1.94061C30.3089 2.50733 30.5953 3.07827 30.8958 3.64077C31.3706 4.52999 32.1276 5.1853 32.8097 5.90014C35.5031 8.72717 37.4151 12.0122 38.6072 15.7237Z" fill="url(#paint8_linear_185_403)"/>
<path fill-rule="evenodd" clip-rule="evenodd" d="M30.3713 29.3095L30.4557 29.2809C30.6314 28.6791 31.1705 28.7686 31.606 28.6936C32.835 28.4808 34.0674 28.2891 35.2988 28.0894C36.4899 27.8967 37.6805 27.7026 38.8725 27.5147C39.0136 27.4926 39.1608 27.5109 39.3052 27.5105C39.0825 28.3055 38.9072 29.1178 38.6246 29.8908C38.3035 30.7673 37.9153 31.6233 37.5033 32.4623C36.8874 33.7162 36.12 34.8862 35.2285 35.9583C34.5413 36.7842 33.7753 37.5487 33.008 38.303C32.5833 38.7197 32.0836 39.0595 31.6177 39.4345L31.4967 39.352L31.0622 38.9808L30.6127 37.9945C30.3028 36.8405 30.1407 35.6658 30.1135 34.4714L30.1219 34.2708L30.1833 33.4017C30.2035 33.105 30.2307 32.8087 30.2433 32.512C30.2883 31.4451 30.3286 30.3773 30.3713 29.3095Z" fill="url(#paint9_linear_185_403)"/>
<path fill-rule="evenodd" clip-rule="evenodd" d="M30.3712 29.3095C30.329 30.3773 30.2887 31.4456 30.2433 32.5134C30.2306 32.8106 30.2039 33.1069 30.1833 33.4031L29.9095 33.5067C29.3011 31.7156 28.6922 29.9433 28.0969 28.1667C27.112 25.2272 26.1394 22.2834 25.1559 19.343C24.3623 16.9702 23.5617 14.5987 22.7569 12.2292C22.7189 12.1186 22.6111 12.0314 22.5361 11.9334L24.2892 8.70984C24.3497 8.81437 24.4289 8.91234 24.4669 9.02484C25.2778 11.4248 26.0873 13.8253 26.8898 16.2281C27.9342 19.3547 28.9715 22.4827 30.015 25.6097C30.0567 25.7344 30.1251 25.8497 30.1908 25.9898L30.4308 25.7105C30.4106 26.9105 30.3909 28.1095 30.3712 29.3095Z" fill="url(#paint10_linear_185_403)"/>
<path fill-rule="evenodd" clip-rule="evenodd" d="M22.5356 11.9334C22.6111 12.0314 22.7189 12.1186 22.7564 12.2292C23.5613 14.5987 24.3619 16.9697 25.1555 19.3429C26.1389 22.2834 27.1116 25.2272 28.0964 28.1667C28.6917 29.9433 29.3006 31.7151 29.9091 33.5067L30.1828 33.4031L30.1214 34.2722L30.0656 34.4723C29.9705 35.4234 29.8903 36.3764 29.7741 37.3256C29.716 37.8014 29.5917 38.2683 29.4975 38.7389C29.4267 38.6362 29.3274 38.5429 29.2889 38.429C27.331 32.5936 25.3795 26.7558 23.4253 20.9193C22.8033 19.0617 22.178 17.2054 21.5485 15.3511C21.5166 15.2568 21.4266 15.1828 21.3638 15.0993L22.5356 11.9334Z" fill="url(#paint11_linear_185_403)"/>
<path fill-rule="evenodd" clip-rule="evenodd" d="M30.4303 25.7105L30.1903 25.9898C30.1247 25.8497 30.0563 25.7344 30.0145 25.6097C28.9711 22.4827 27.9338 19.3547 26.8894 16.2281C26.0869 13.8253 25.2774 11.4248 24.4664 9.02485C24.4284 8.91235 24.3492 8.81438 24.2888 8.70985L26.4567 5.85797C26.5252 5.94891 26.6227 6.03 26.6578 6.13266C27.2597 7.89516 27.8559 9.65907 28.4494 11.4244C29.0034 13.0734 29.5491 14.7244 30.1097 16.3706C30.1472 16.4808 30.278 16.5586 30.3652 16.6523L30.3699 17.0264L30.4303 25.7105Z" fill="url(#paint12_linear_185_403)"/>
<path fill-rule="evenodd" clip-rule="evenodd" d="M30.3652 16.6524C30.2775 16.5591 30.1472 16.4813 30.1097 16.3706C29.5495 14.7244 29.0034 13.0734 28.4494 11.4244C27.8559 9.65907 27.2597 7.89516 26.6578 6.13266C26.6227 6.03001 26.5252 5.94891 26.4567 5.85798C27.1617 5.16751 27.8447 4.4522 28.5783 3.7936C29.2303 3.2086 29.7544 2.58141 29.7788 1.65657L29.8303 1.47235L30.0159 1.94016C30.0113 2.17641 29.9902 2.4136 30.0056 2.64891C30.0324 3.05813 30.0984 3.46548 30.1167 3.8747C30.1509 4.63641 30.1674 5.39954 30.1828 6.1622C30.2077 7.38938 30.2302 8.61704 30.2452 9.8447L30.3094 15.7294C30.3141 16.0374 30.3464 16.3449 30.3652 16.6524Z" fill="url(#paint13_linear_185_403)"/>
<path fill-rule="evenodd" clip-rule="evenodd" d="M29.4979 38.7385C29.5922 38.2678 29.7164 37.801 29.7745 37.3252C29.8908 36.3764 29.9709 35.423 30.0661 34.4719L30.09 34.4681L30.1134 34.4724C30.1406 35.6667 30.3028 36.8414 30.6126 37.9955C30.5493 38.0789 30.4608 38.1525 30.427 38.2463C30.1668 38.9803 29.9212 39.7205 29.6597 40.4541C29.624 40.5544 29.5237 40.6327 29.4539 40.7203L29.1862 39.8016L29.4979 38.7385Z" fill="url(#paint14_linear_185_403)"/>
<path fill-rule="evenodd" clip-rule="evenodd" d="M29.4539 40.7208C29.5238 40.6326 29.6241 40.5548 29.6597 40.4545C29.9213 39.7209 30.1669 38.9808 30.427 38.2467C30.4603 38.1529 30.5494 38.0793 30.6127 37.9959L31.0622 38.9822C30.9736 39.1078 30.8508 39.2217 30.8016 39.3618L29.941 41.8893C29.9053 41.9911 29.7849 42.0623 29.7033 42.1481L29.4539 40.7208Z" fill="url(#paint15_linear_185_403)"/>
<path fill-rule="evenodd" clip-rule="evenodd" d="M29.7033 42.1476C29.7844 42.0618 29.9053 41.9906 29.941 41.8889L30.8016 39.3614C30.8503 39.2212 30.9736 39.1073 31.0622 38.9817L31.4972 39.3525C31.2872 39.5601 31.1705 39.8001 31.2408 40.1034L31.1086 40.5361C31.0486 40.6101 30.9614 40.6748 30.9319 40.7597C30.6314 41.6203 30.345 42.4856 30.0422 43.3458C30.0038 43.4545 29.8974 43.5403 29.8228 43.6368L29.7033 42.1476Z" fill="url(#paint16_linear_185_403)"/>
<path fill-rule="evenodd" clip-rule="evenodd" d="M29.8223 43.6364C29.8973 43.5399 30.0037 43.4541 30.0417 43.3453C30.3445 42.4852 30.6314 41.6199 30.9314 40.7592C30.9609 40.6744 31.0481 40.6102 31.1081 40.5356L30.9258 42.5213C30.877 42.5775 30.8067 42.6267 30.7833 42.6919L30.1767 44.43C30.134 44.5486 30.0525 44.6546 29.9887 44.7656C29.932 44.6916 29.8308 44.6199 29.8261 44.543C29.8083 44.2421 29.8209 43.9388 29.8223 43.6364Z" fill="url(#paint17_linear_185_403)"/>
<path fill-rule="evenodd" clip-rule="evenodd" d="M29.9892 44.7661C30.0529 44.655 30.1345 44.5491 30.1772 44.4305L30.7837 42.6924C30.8072 42.6267 30.8779 42.578 30.9262 42.5217L30.9309 43.8249L30.4945 44.9438L29.9892 44.7661Z" fill="url(#paint18_linear_185_403)"/>
<path fill-rule="evenodd" clip-rule="evenodd" d="M30.4945 44.9437L30.9309 43.8248L31.0209 45.1486L30.4945 44.9437Z" fill="url(#paint19_linear_185_403)"/>
<path fill-rule="evenodd" clip-rule="evenodd" d="M31.2403 40.1034C31.1704 39.8006 31.2867 39.5606 31.4967 39.3525L31.6176 39.435L31.2403 40.1034Z" fill="url(#paint20_linear_185_403)"/>
<path fill-rule="evenodd" clip-rule="evenodd" d="M30.1134 34.4728L30.09 34.4686L30.0661 34.4724L30.1219 34.2722L30.1134 34.4728Z" fill="url(#paint21_linear_185_403)"/>
<defs>
<linearGradient id="paint0_linear_185_403" x1="43.1753" y1="46.4094" x2="45.9458" y2="55.5557" gradientUnits="userSpaceOnUse">
<stop stop-color="#14FFEC"/>
<stop offset="1" stop-color="#8839FF"/>
</linearGradient>
<linearGradient id="paint1_linear_185_403" x1="3.31375" y1="49.2562" x2="5.29506" y2="55.2329" gradientUnits="userSpaceOnUse">
<stop stop-color="#14FFEC"/>
<stop offset="1" stop-color="#8839FF"/>
</linearGradient>
<linearGradient id="paint2_linear_185_403" x1="28.2318" y1="49.2707" x2="33.514" y2="54.8951" gradientUnits="userSpaceOnUse">
<stop stop-color="#14FFEC"/>
<stop offset="1" stop-color="#8839FF"/>
</linearGradient>
<linearGradient id="paint3_linear_185_403" x1="20.9175" y1="49.2173" x2="23.6268" y2="54.5775" gradientUnits="userSpaceOnUse">
<stop stop-color="#14FFEC"/>
<stop offset="1" stop-color="#8839FF"/>
</linearGradient>
<linearGradient id="paint4_linear_185_403" x1="34.7322" y1="49.2589" x2="37.7344" y2="54.2126" gradientUnits="userSpaceOnUse">
<stop stop-color="#14FFEC"/>
<stop offset="1" stop-color="#8839FF"/>
</linearGradient>
<linearGradient id="paint5_linear_185_403" x1="14.0796" y1="49.2566" x2="17.0826" y2="54.2148" gradientUnits="userSpaceOnUse">
<stop stop-color="#14FFEC"/>
<stop offset="1" stop-color="#8839FF"/>
</linearGradient>
<linearGradient id="paint6_linear_185_403" x1="31.6204" y1="15.7238" x2="39.2961" y2="24.6858" gradientUnits="userSpaceOnUse">
<stop stop-color="#14FFEC"/>
<stop offset="1" stop-color="#8839FF"/>
</linearGradient>
<linearGradient id="paint7_linear_185_403" x1="21.419" y1="15.0994" x2="34.1864" y2="23.1828" gradientUnits="userSpaceOnUse">
<stop stop-color="#14FFEC"/>
<stop offset="1" stop-color="#8839FF"/>
</linearGradient>
<linearGradient id="paint8_linear_185_403" x1="31.1401" y1="1.94061" x2="39.7579" y2="10.1985" gradientUnits="userSpaceOnUse">
<stop stop-color="#14FFEC"/>
<stop offset="1" stop-color="#8839FF"/>
</linearGradient>
<linearGradient id="paint9_linear_185_403" x1="31.3305" y1="27.5038" x2="37.9318" y2="36.0457" gradientUnits="userSpaceOnUse">
<stop stop-color="#14FFEC"/>
<stop offset="1" stop-color="#8839FF"/>
</linearGradient>
<linearGradient id="paint10_linear_185_403" x1="23.5814" y1="8.70984" x2="35.373" y2="15.0152" gradientUnits="userSpaceOnUse">
<stop stop-color="#14FFEC"/>
<stop offset="1" stop-color="#8839FF"/>
</linearGradient>
<linearGradient id="paint11_linear_185_403" x1="22.5315" y1="11.9334" x2="35.5078" y2="19.104" gradientUnits="userSpaceOnUse">
<stop stop-color="#14FFEC"/>
<stop offset="1" stop-color="#8839FF"/>
</linearGradient>
<linearGradient id="paint12_linear_185_403" x1="25.102" y1="5.85797" x2="34.4451" y2="10.6452" gradientUnits="userSpaceOnUse">
<stop stop-color="#14FFEC"/>
<stop offset="1" stop-color="#8839FF"/>
</linearGradient>
<linearGradient id="paint13_linear_185_403" x1="26.9742" y1="1.47235" x2="33.2984" y2="4.20723" gradientUnits="userSpaceOnUse">
<stop stop-color="#14FFEC"/>
<stop offset="1" stop-color="#8839FF"/>
</linearGradient>
<linearGradient id="paint14_linear_185_403" x1="29.3751" y1="34.4681" x2="31.764" y2="35.3836" gradientUnits="userSpaceOnUse">
<stop stop-color="#14FFEC"/>
<stop offset="1" stop-color="#8839FF"/>
</linearGradient>
<linearGradient id="paint15_linear_185_403" x1="29.6669" y1="37.9959" x2="31.8373" y2="39.4079" gradientUnits="userSpaceOnUse">
<stop stop-color="#14FFEC"/>
<stop offset="1" stop-color="#8839FF"/>
</linearGradient>
<linearGradient id="paint16_linear_185_403" x1="29.9408" y1="38.9817" x2="32.3691" y2="40.5534" gradientUnits="userSpaceOnUse">
<stop stop-color="#14FFEC"/>
<stop offset="1" stop-color="#8839FF"/>
</linearGradient>
<linearGradient id="paint17_linear_185_403" x1="29.9877" y1="40.5356" x2="31.9517" y2="41.5428" gradientUnits="userSpaceOnUse">
<stop stop-color="#14FFEC"/>
<stop offset="1" stop-color="#8839FF"/>
</linearGradient>
<linearGradient id="paint18_linear_185_403" x1="30.1139" y1="42.5217" x2="31.3819" y2="43.3498" gradientUnits="userSpaceOnUse">
<stop stop-color="#14FFEC"/>
<stop offset="1" stop-color="#8839FF"/>
</linearGradient>
<linearGradient id="paint19_linear_185_403" x1="30.5642" y1="43.8248" x2="31.2634" y2="44.2918" gradientUnits="userSpaceOnUse">
<stop stop-color="#14FFEC"/>
<stop offset="1" stop-color="#8839FF"/>
</linearGradient>
<linearGradient id="paint20_linear_185_403" x1="31.2726" y1="39.3525" x2="31.6991" y2="39.7318" gradientUnits="userSpaceOnUse">
<stop stop-color="#14FFEC"/>
<stop offset="1" stop-color="#8839FF"/>
</linearGradient>
<linearGradient id="paint21_linear_185_403" x1="30.0735" y1="34.2722" x2="30.1614" y2="34.3133" gradientUnits="userSpaceOnUse">
<stop stop-color="#14FFEC"/>
<stop offset="1" stop-color="#8839FF"/>
</linearGradient>
</defs>
</svg>
