<svg width="660" height="49" viewBox="0 0 660 49" fill="none" xmlns="http://www.w3.org/2000/svg">
<path d="M0.544001 48V1.056H11.056V17.616C11.056 20.4 10.888 23.328 10.552 26.4C10.216 29.472 9.928 32.256 9.688 34.752H9.976L14.584 24.456L26.896 1.056H38.128V48H27.688V31.368C27.688 28.584 27.856 25.704 28.192 22.728C28.528 19.752 28.792 16.968 28.984 14.376H28.696L24.088 24.6L11.776 48H0.544001ZM49.2003 48V1.056H59.7843V19.128H75.9843V1.056H86.6403V48H75.9843V28.416H59.7843V48H49.2003ZM106.86 48V9.984H93.9719V1.056H130.404V9.984H117.516V48H106.86ZM137.724 48V1.056H167.1V9.984H148.308V19.416H164.292V28.272H148.308V39.072H167.82V48H137.724ZM177.169 48V1.056H193.297C196.753 1.056 199.873 1.536 202.657 2.496C205.489 3.408 207.745 4.968 209.425 7.176C211.105 9.384 211.945 12.384 211.945 16.176C211.945 19.824 211.105 22.824 209.425 25.176C207.745 27.528 205.513 29.28 202.729 30.432C199.945 31.536 196.897 32.088 193.585 32.088H187.753V48H177.169ZM187.753 23.664H192.937C198.697 23.664 201.577 21.168 201.577 16.176C201.577 13.728 200.809 12 199.273 10.992C197.737 9.984 195.529 9.48 192.649 9.48H187.753V23.664ZM220.06 48V1.056H230.644V19.128H246.844V1.056H257.5V48H246.844V28.416H230.644V48H220.06ZM268.575 48V1.056H297.951V9.984H279.159V19.416H295.143V28.272H279.159V39.072H298.671V48H268.575ZM317.165 48V9.984H304.277V1.056H340.709V9.984H327.821V48H317.165ZM362.442 48V1.056H374.034L381.594 21.936C382.074 23.28 382.53 24.696 382.962 26.184C383.394 27.672 383.85 29.136 384.33 30.576H384.618C385.098 29.136 385.53 27.672 385.914 26.184C386.346 24.696 386.802 23.28 387.282 21.936L394.698 1.056H406.218V48H396.57V30.792C396.57 29.256 396.642 27.552 396.786 25.68C396.978 23.76 397.17 21.84 397.362 19.92C397.602 18 397.794 16.296 397.938 14.808H397.65L393.834 25.968L387.138 43.896H381.306L374.61 25.968L370.866 14.808H370.578C370.77 16.296 370.962 18 371.154 19.92C371.346 21.84 371.514 23.76 371.658 25.68C371.85 27.552 371.946 29.256 371.946 30.792V48H362.442ZM428.302 24.24L427.15 28.56H437.158L436.078 24.24C435.454 21.888 434.806 19.392 434.134 16.752C433.51 14.112 432.886 11.568 432.262 9.12H431.974C431.398 11.616 430.798 14.184 430.174 16.824C429.598 19.416 428.974 21.888 428.302 24.24ZM411.31 48L425.998 1.056H438.742L453.43 48H442.198L439.318 36.84H424.99L422.11 48H411.31ZM458.56 48V1.056H488.152V9.984H469.144V48H458.56ZM502.833 24.24L501.681 28.56H511.689L510.609 24.24C509.985 21.888 509.337 19.392 508.665 16.752C508.041 14.112 507.417 11.568 506.793 9.12H506.505C505.929 11.616 505.329 14.184 504.705 16.824C504.129 19.416 503.505 21.888 502.833 24.24ZM485.841 48L500.529 1.056H513.273L527.961 48H516.729L513.849 36.84H499.521L496.641 48H485.841ZM547.347 48.864C544.275 48.864 541.251 48.384 538.275 47.424C535.299 46.416 532.563 44.736 530.067 42.384L535.683 35.112C537.459 36.744 539.307 37.92 541.227 38.64C543.147 39.36 545.139 39.72 547.203 39.72C549.603 39.72 551.571 39.168 553.107 38.064C554.643 36.96 555.411 35.4 555.411 33.384C555.411 31.416 554.715 29.976 553.323 29.064C551.931 28.152 549.795 27.696 546.915 27.696H540.651V19.848H545.475C548.307 19.848 550.299 19.392 551.451 18.48C552.603 17.52 553.179 16.2 553.179 14.52C553.179 12.696 552.555 11.376 551.307 10.56C550.107 9.744 548.523 9.336 546.555 9.336C544.731 9.336 543.051 9.672 541.515 10.344C539.979 10.968 538.443 11.856 536.907 13.008L531.579 5.952C535.851 2.112 540.963 0.191998 546.915 0.191998C552.339 0.191998 556.467 1.32 559.299 3.576C562.131 5.832 563.547 8.904 563.547 12.792C563.547 15.048 563.043 17.088 562.035 18.912C561.027 20.688 559.539 22.032 557.571 22.944V23.232C559.923 23.856 561.867 25.128 563.403 27.048C564.987 28.968 565.779 31.344 565.779 34.176C565.779 37.392 564.963 40.104 563.331 42.312C561.699 44.472 559.491 46.104 556.707 47.208C553.971 48.312 550.851 48.864 547.347 48.864ZM573.732 48V1.056H584.244V17.616C584.244 20.4 584.076 23.328 583.74 26.4C583.404 29.472 583.116 32.256 582.876 34.752H583.164L587.772 24.456L600.084 1.056H611.316V48H600.876V31.368C600.876 28.584 601.044 25.704 601.38 22.728C601.716 19.752 601.98 16.968 602.172 14.376H601.884L597.276 24.6L584.964 48H573.732ZM622.388 48V1.056H632.972V19.128H649.172V1.056H659.828V48H649.172V28.416H632.972V48H622.388Z" fill="url(#paint0_linear_326_429)" fill-opacity="0.4"/>
<defs>
<linearGradient id="paint0_linear_326_429" x1="83.8478" y1="3" x2="85.3113" y2="46.4056" gradientUnits="userSpaceOnUse">
<stop stop-color="#14FFEC"/>
<stop offset="1" stop-color="#8839FF"/>
</linearGradient>
</defs>
</svg>
