<svg width="50" height="50" viewBox="0 0 50 50" fill="none" xmlns="http://www.w3.org/2000/svg">
<g clip-path="url(#clip0_280_436)">
<g filter="url(#filter0_d_280_436)">
<rect x="6" y="6" width="38" height="38" rx="19" fill="#14FFEC"/>
<rect x="6" y="6" width="38" height="38" rx="19" fill="url(#paint0_radial_280_436)" fill-opacity="0.7"/>
<rect x="6" y="6" width="38" height="38" rx="19" fill="url(#paint1_radial_280_436)"/>
</g>
<path d="M24.5 25.5C27.9531 25.5 30.75 22.7031 30.75 19.25C30.75 15.7969 27.9531 13 24.5 13C21.0469 13 18.25 15.7969 18.25 19.25C18.25 22.7031 21.0469 25.5 24.5 25.5ZM24.5 28.625C20.3281 28.625 12 30.7187 12 34.875V38H37V34.875C37 30.7187 28.6719 28.625 24.5 28.625Z" fill="#15E7D6"/>
</g>
<rect x="0.5" y="0.5" width="49" height="49" rx="24.5" stroke="url(#paint2_linear_280_436)"/>
<defs>
<filter id="filter0_d_280_436" x="-52" y="-18" width="162" height="162" filterUnits="userSpaceOnUse" color-interpolation-filters="sRGB">
<feFlood flood-opacity="0" result="BackgroundImageFix"/>
<feColorMatrix in="SourceAlpha" type="matrix" values="0 0 0 0 0 0 0 0 0 0 0 0 0 0 0 0 0 0 127 0" result="hardAlpha"/>
<feOffset dx="4" dy="38"/>
<feGaussianBlur stdDeviation="31"/>
<feColorMatrix type="matrix" values="0 0 0 0 0 0 0 0 0 0 0 0 0 0 0 0 0 0 0.5 0"/>
<feBlend mode="normal" in2="BackgroundImageFix" result="effect1_dropShadow_280_436"/>
<feBlend mode="normal" in="SourceGraphic" in2="effect1_dropShadow_280_436" result="shape"/>
</filter>
<radialGradient id="paint0_radial_280_436" cx="0" cy="0" r="1" gradientUnits="userSpaceOnUse" gradientTransform="translate(16.0278 13.9167) rotate(51.0441) scale(31.8989)">
<stop stop-color="white" stop-opacity="0.99"/>
<stop offset="0.697917" stop-color="white" stop-opacity="0"/>
<stop offset="1" stop-color="white" stop-opacity="0"/>
</radialGradient>
<radialGradient id="paint1_radial_280_436" cx="0" cy="0" r="1" gradientUnits="userSpaceOnUse" gradientTransform="translate(38.7945 39.25) rotate(-93.6705) scale(32.5251 36.2505)">
<stop stop-opacity="0.36"/>
<stop offset="0.861815" stop-opacity="0"/>
</radialGradient>
<linearGradient id="paint2_linear_280_436" x1="25" y1="0" x2="25" y2="50" gradientUnits="userSpaceOnUse">
<stop stop-color="#8839FF"/>
<stop offset="1" stop-color="#14FFEC"/>
</linearGradient>
<clipPath id="clip0_280_436">
<rect width="50" height="50" rx="25" fill="white"/>
</clipPath>
</defs>
</svg>
