<svg width="323" height="62" viewBox="0 0 323 62" fill="none" xmlns="http://www.w3.org/2000/svg">
<path d="M0.544001 48V1.056H11.128V19.488H16.312L22.432 8.688C24.256 5.472 26.104 3.264 27.976 2.064C29.896 0.815998 32.176 0.191998 34.816 0.191998C35.488 0.191998 36.184 0.239997 36.904 0.335996C37.624 0.431997 38.224 0.599998 38.704 0.839998L36.976 10.416C36.544 10.272 36.136 10.2 35.752 10.2C35.416 10.152 35.128 10.128 34.888 10.128C33.832 10.128 32.92 10.416 32.152 10.992C31.432 11.568 30.592 12.696 29.632 14.376L24.592 23.16L39.928 48H28.768L16.312 28.056H11.128V48H0.544001ZM63.7099 48.864C59.4859 48.864 55.7659 47.88 52.5499 45.912C49.3819 43.944 46.8859 41.136 45.0619 37.488C43.2859 33.792 42.3979 29.4 42.3979 24.312C42.3979 19.176 43.2859 14.832 45.0619 11.28C46.8859 7.68 49.3819 4.944 52.5499 3.072C55.7659 1.152 59.4859 0.191998 63.7099 0.191998C67.9339 0.191998 71.6299 1.152 74.7979 3.072C78.0139 4.944 80.5099 7.68 82.2859 11.28C84.1099 14.88 85.0219 19.224 85.0219 24.312C85.0219 29.4 84.1099 33.792 82.2859 37.488C80.5099 41.136 78.0139 43.944 74.7979 45.912C71.6299 47.88 67.9339 48.864 63.7099 48.864ZM63.7099 39.72C66.9259 39.72 69.4699 38.328 71.3419 35.544C73.2139 32.76 74.1499 29.016 74.1499 24.312C74.1499 19.608 73.2139 15.936 71.3419 13.296C69.4699 10.656 66.9259 9.336 63.7099 9.336C60.4939 9.336 57.9499 10.656 56.0779 13.296C54.2059 15.936 53.2699 19.608 53.2699 24.312C53.2699 29.016 54.2059 32.76 56.0779 35.544C57.9499 38.328 60.4939 39.72 63.7099 39.72ZM93.8487 48V1.056H105.441L113.001 21.936C113.481 23.28 113.937 24.696 114.369 26.184C114.801 27.672 115.257 29.136 115.737 30.576H116.025C116.505 29.136 116.937 27.672 117.321 26.184C117.753 24.696 118.209 23.28 118.689 21.936L126.105 1.056H137.625V48H127.977V30.792C127.977 29.256 128.049 27.552 128.193 25.68C128.385 23.76 128.577 21.84 128.769 19.92C129.009 18 129.201 16.296 129.345 14.808H129.057L125.241 25.968L118.545 43.896H112.713L106.017 25.968L102.273 14.808H101.985C102.177 16.296 102.369 18 102.561 19.92C102.753 21.84 102.921 23.76 103.065 25.68C103.257 27.552 103.353 29.256 103.353 30.792V48H93.8487ZM159.708 24.24L158.556 28.56H168.564L167.484 24.24C166.86 21.888 166.212 19.392 165.54 16.752C164.916 14.112 164.292 11.568 163.668 9.12H163.38C162.804 11.616 162.204 14.184 161.58 16.824C161.004 19.416 160.38 21.888 159.708 24.24ZM142.716 48L157.404 1.056H170.148L184.836 48H173.604L170.724 36.84H156.396L153.516 48H142.716ZM189.966 48V1.056H200.55V19.128H216.75V1.056H227.406V48H216.75V28.416H200.55V48H189.966ZM252.234 24.24C251.61 27.36 250.914 30.168 250.146 32.664C249.378 35.112 248.442 37.248 247.338 39.072H263.898V9.984H254.826C254.49 11.856 254.202 13.512 253.962 14.952C253.722 16.344 253.458 17.76 253.17 19.2C252.93 20.64 252.618 22.32 252.234 24.24ZM244.242 48V61.536H234.81L233.874 45.696V39.072H236.034C236.754 38.832 237.474 38.16 238.194 37.056C238.962 35.952 239.73 34.272 240.498 32.016C241.266 29.712 242.01 26.664 242.73 22.872C243.258 20.088 243.714 17.64 244.098 15.528C244.482 13.368 244.866 11.16 245.25 8.904C245.682 6.648 246.138 4.032 246.618 1.056H274.482V39.072H280.242V45.696L279.306 61.536H269.874V48H244.242ZM297.732 24.24L296.58 28.56H306.588L305.508 24.24C304.884 21.888 304.236 19.392 303.564 16.752C302.94 14.112 302.316 11.568 301.692 9.12H301.404C300.828 11.616 300.228 14.184 299.604 16.824C299.028 19.416 298.404 21.888 297.732 24.24ZM280.74 48L295.428 1.056H308.172L322.86 48H311.628L308.748 36.84H294.42L291.54 48H280.74Z" fill="url(#paint0_linear_148_380)" fill-opacity="0.4"/>
<defs>
<linearGradient id="paint0_linear_148_380" x1="38.4308" y1="3" x2="41.414" y2="46.2492" gradientUnits="userSpaceOnUse">
<stop stop-color="#14FFEC"/>
<stop offset="1" stop-color="#8839FF"/>
</linearGradient>
</defs>
</svg>
