<svg width="71" height="52" viewBox="0 0 71 52" fill="none" xmlns="http://www.w3.org/2000/svg">
<path d="M63.4147 30.9892C63.2538 30.9892 63.0941 30.9473 62.9532 30.8655L61.4833 29.9994C61.2636 29.8773 61.3706 29.8337 61.4433 29.8089C61.7362 29.7072 61.7955 29.6835 62.1078 29.5078C62.1406 29.4896 62.1833 29.4962 62.2171 29.5161L63.3459 30.1839C63.3869 30.2065 63.4452 30.2065 63.4823 30.1839L67.8849 27.6536C67.9265 27.6304 67.9526 27.5834 67.9526 27.5348V22.4752C67.9526 22.4255 67.9265 22.3797 67.8843 22.3543L63.4835 19.8262C63.4424 19.803 63.3886 19.803 63.3476 19.8262L58.9472 22.3548C58.9051 22.3797 58.8779 22.4272 58.8779 22.4752V27.5348C58.8779 27.5834 58.9051 27.6293 58.9472 27.6519L60.1531 28.3462C60.8076 28.6716 61.2087 28.2882 61.2087 27.9027V22.9066C61.2087 22.8365 61.2658 22.7807 61.3363 22.7807H61.8948C61.9642 22.7807 62.0219 22.8365 62.0219 22.9066V27.9027C62.0219 28.7721 61.5465 29.2709 60.7183 29.2709C60.4637 29.2709 60.2635 29.2709 59.7044 28.9969L58.5501 28.3352C58.2644 28.1706 58.0886 27.8635 58.0886 27.5354V22.4758C58.0886 22.1471 58.2644 21.8406 58.5501 21.6771L62.9526 19.1435C63.2311 18.9871 63.601 18.9871 63.8773 19.1435L68.2798 21.6771C68.5649 21.8411 68.7419 22.1477 68.7419 22.4758V27.5354C68.7419 27.864 68.5649 28.1695 68.2798 28.3352L63.8773 30.8661C63.7375 30.9473 63.5783 30.9892 63.4147 30.9892ZM64.7753 27.5033C62.8478 27.5033 62.4445 26.6223 62.4445 25.8838C62.4445 25.8142 62.5017 25.7573 62.5721 25.7573H63.1412C63.205 25.7573 63.2577 25.8026 63.2677 25.8645C63.3531 26.4417 63.6099 26.7328 64.7753 26.7328C65.7022 26.7328 66.0971 26.524 66.0971 26.0335C66.0971 25.7507 65.9851 25.5414 64.544 25.4005C63.3392 25.2818 62.5943 25.0172 62.5943 24.0566C62.5943 23.1723 63.3431 22.6443 64.5978 22.6443C66.0084 22.6443 66.7062 23.132 66.7944 24.1782C66.7977 24.2135 66.785 24.2483 66.7611 24.2754C66.7367 24.3002 66.7034 24.3157 66.6679 24.3157H66.096C66.0367 24.3157 65.9845 24.2743 65.9723 24.2168C65.8348 23.6092 65.502 23.4154 64.5973 23.4154C63.585 23.4154 63.4674 23.7672 63.4674 24.0296C63.4674 24.3483 63.606 24.4411 64.9733 24.6211C66.3262 24.7996 66.9691 25.0514 66.9691 25.9987C66.9697 26.9559 66.1698 27.5033 64.7753 27.5033Z" fill="url(#paint0_linear_185_364)"/>
<path d="M54.3494 24.1848C54.523 24.0837 54.6301 23.8992 54.6301 23.6987V22.3984C54.6301 22.1985 54.5236 22.014 54.3494 21.9129L49.71 19.2307C49.5353 19.1296 49.3201 19.1291 49.1448 19.2296L44.4765 21.9135C44.3024 22.014 44.1948 22.199 44.1948 22.3996V27.7662C44.1948 27.9678 44.3035 28.1545 44.4799 28.2545L49.1187 30.8865C49.2896 30.9842 49.4992 30.9848 49.6717 30.8898L52.4774 29.3366C52.5667 29.2869 52.6221 29.1941 52.6227 29.0935C52.6232 28.9919 52.5689 28.898 52.4807 28.8477L47.7836 26.1633C47.6954 26.113 47.6416 26.0202 47.6416 25.9203V24.2378C47.6416 24.1373 47.6954 24.045 47.7825 23.9953L49.2452 23.1557C49.3317 23.1055 49.4393 23.1055 49.5264 23.1557L50.9891 23.9953C51.0768 24.0456 51.1306 24.1378 51.1306 24.2378V25.5612C51.1306 25.6623 51.1844 25.7551 51.2715 25.8048C51.3591 25.8551 51.4667 25.8551 51.5544 25.8043L54.3494 24.1848Z" fill="url(#paint1_linear_185_364)"/>
<path d="M49.3583 23.9329C49.3922 23.9141 49.4332 23.9141 49.4665 23.9329L50.3623 24.4483C50.3956 24.4676 50.4161 24.5035 50.4161 24.5416V25.5717C50.4161 25.6104 50.3956 25.6458 50.3623 25.6651L49.4665 26.1799C49.4332 26.1992 49.3916 26.1992 49.3583 26.1799L48.4631 25.6651C48.4292 25.6458 48.4087 25.6104 48.4087 25.5717V24.5416C48.4087 24.5035 48.4292 24.4676 48.4631 24.4483L49.3583 23.9329Z" fill="url(#paint2_linear_185_364)"/>
<path d="M37.2101 26.076C37.2101 26.1257 37.1835 26.1721 37.1397 26.1976L35.5367 27.1178C35.4928 27.1432 35.439 27.1432 35.3958 27.1178L33.7927 26.1976C33.7489 26.1721 33.7223 26.1257 33.7223 26.076V24.2323C33.7223 24.1826 33.7495 24.1356 33.7927 24.1102L35.3958 23.1889C35.4396 23.1629 35.4934 23.1629 35.5372 23.1889L37.1408 24.1102C37.1841 24.1356 37.2107 24.1826 37.2107 24.2323V26.076H37.2101ZM37.6434 12.4241C37.5563 12.376 37.4498 12.3771 37.3632 12.4274C37.2773 12.4782 37.224 12.5699 37.224 12.6693V19.803C37.224 19.8725 37.1863 19.9377 37.1258 19.9731C37.0648 20.0079 36.9894 20.0079 36.9284 19.9731L35.7591 19.302C35.5849 19.202 35.3702 19.202 35.1961 19.302L30.5267 21.9853C30.352 22.0858 30.2444 22.2714 30.2444 22.4719V27.8403C30.2444 28.0408 30.352 28.2258 30.5262 28.3269L35.1955 31.0119C35.3697 31.1124 35.5849 31.1124 35.7596 31.0119L40.4301 28.3269C40.6043 28.2258 40.7119 28.0408 40.7119 27.8403V14.4584C40.7119 14.2551 40.601 14.0673 40.4229 13.9679L37.6434 12.4241Z" fill="url(#paint3_linear_185_364)"/>
<path d="M21.2102 19.2009C21.3843 19.1003 21.5995 19.1003 21.7737 19.2009L26.4431 21.8836C26.6173 21.9842 26.7249 22.1698 26.7249 22.3703V27.7402C26.7249 27.9407 26.6173 28.1263 26.4431 28.2269L21.7743 30.9119C21.6001 31.0118 21.3849 31.0118 21.2102 30.9119L16.5425 28.2269C16.3683 28.1263 16.2607 27.9407 16.2607 27.7402V22.3697C16.2607 22.1698 16.3683 21.9842 16.5425 21.8836L21.2102 19.2009Z" fill="url(#paint4_linear_185_364)"/>
<path d="M12.719 22.3255C12.719 22.1234 12.6125 21.9378 12.4372 21.8378L7.76952 19.1628C7.68964 19.1164 7.60144 19.0926 7.51214 19.0893H7.46388C7.37513 19.0926 7.28638 19.1164 7.20651 19.1628L2.53826 21.8378C2.36464 21.9378 2.25592 22.1234 2.25592 22.3255L2.2659 29.5282C2.2659 29.6288 2.3186 29.7221 2.4068 29.7707C2.49333 29.8226 2.60038 29.8226 2.68691 29.7707L5.46035 28.1888C5.63563 28.0849 5.74269 27.9021 5.74269 27.7016V24.3367C5.74269 24.1356 5.84919 23.9506 6.02391 23.85L7.2054 23.1728C7.29304 23.1215 7.38955 23.0972 7.48718 23.0972C7.58369 23.0972 7.68243 23.1215 7.76841 23.1728L8.94878 23.85C9.12351 23.9506 9.23112 24.1356 9.23112 24.3367V27.7016C9.23112 27.9021 9.33928 28.086 9.51345 28.1888L12.2869 29.7707C12.374 29.8226 12.4827 29.8226 12.5687 29.7707C12.6546 29.7216 12.7085 29.6282 12.7085 29.5282L12.719 22.3255Z" fill="url(#paint5_linear_185_364)"/>
<defs>
<linearGradient id="paint0_linear_185_364" x1="59.4992" y1="19.0262" x2="65.8201" y2="28.4805" gradientUnits="userSpaceOnUse">
<stop stop-color="#14FFEC"/>
<stop offset="1" stop-color="#8839FF"/>
</linearGradient>
<linearGradient id="paint1_linear_185_364" x1="45.5765" y1="19.1545" x2="51.8321" y2="28.4415" gradientUnits="userSpaceOnUse">
<stop stop-color="#14FFEC"/>
<stop offset="1" stop-color="#8839FF"/>
</linearGradient>
<linearGradient id="paint2_linear_185_364" x1="48.6745" y1="23.9188" x2="49.8811" y2="25.7067" gradientUnits="userSpaceOnUse">
<stop stop-color="#14FFEC"/>
<stop offset="1" stop-color="#8839FF"/>
</linearGradient>
<linearGradient id="paint3_linear_185_364" x1="31.6304" y1="12.3888" x2="42.3014" y2="22.4222" gradientUnits="userSpaceOnUse">
<stop stop-color="#14FFEC"/>
<stop offset="1" stop-color="#8839FF"/>
</linearGradient>
<linearGradient id="paint4_linear_185_364" x1="17.6463" y1="19.1255" x2="23.9358" y2="28.4449" gradientUnits="userSpaceOnUse">
<stop stop-color="#14FFEC"/>
<stop offset="1" stop-color="#8839FF"/>
</linearGradient>
<linearGradient id="paint5_linear_185_364" x1="3.64135" y1="19.0893" x2="9.09161" y2="28.0238" gradientUnits="userSpaceOnUse">
<stop stop-color="#14FFEC"/>
<stop offset="1" stop-color="#8839FF"/>
</linearGradient>
</defs>
</svg>
