<svg width="66" height="52" viewBox="0 0 66 52" fill="none" xmlns="http://www.w3.org/2000/svg">
<path d="M16.517 31.6145V20.6132H17.1161V22.3439C17.1868 22.2672 17.2522 22.1858 17.3117 22.1001C17.5565 21.5936 17.9411 21.1671 18.4203 20.8706C18.8996 20.5742 19.4537 20.4201 20.0177 20.4264C21.3829 20.3857 22.4914 20.8895 23.1434 22.1001C23.5583 22.8522 23.7866 23.6923 23.8093 24.5503C23.832 25.4083 23.6484 26.2592 23.2738 27.032C22.6666 28.3889 21.1669 29.0632 19.5612 28.8154C19.0616 28.773 18.5805 28.6065 18.162 28.3312C17.7434 28.0559 17.4007 27.6804 17.165 27.2392V31.6145H16.517ZM17.1161 24.5051C17.1691 25.0414 17.1894 25.4232 17.2506 25.797C17.4869 27.2676 18.359 28.1411 19.7283 28.2995C20.3713 28.4048 21.031 28.2847 21.595 27.9595C22.159 27.6343 22.5925 27.1242 22.8214 26.5161C23.0846 25.8906 23.2112 25.2165 23.193 24.5384C23.1747 23.8604 23.0119 23.1941 22.7155 22.5836C22.4711 22.0385 22.0554 21.5876 21.5312 21.2988C21.007 21.0101 20.4028 20.8992 19.8098 20.9829C19.2531 21.0231 18.7228 21.2353 18.2926 21.5899C17.8624 21.9444 17.5537 22.4238 17.4095 22.9614C17.2819 23.4699 17.1839 23.9853 17.1161 24.5051Z" fill="url(#paint0_linear_186_443)"/>
<path d="M36.0293 26.0001C35.9386 26.7746 35.5687 27.49 34.9885 28.0131C34.4083 28.5362 33.6573 28.8314 32.8751 28.8438C30.3647 28.9698 29.187 27.3082 28.9995 25.3907C28.8694 24.3494 29.039 23.2927 29.4886 22.3438C29.8016 21.693 30.3143 21.1583 30.9525 20.8172C31.5906 20.4762 32.3211 20.3464 33.0381 20.4466C33.7198 20.5042 34.3661 20.7742 34.8854 21.2182C35.4046 21.6622 35.7706 22.2578 35.9315 22.9207C36.0591 23.5244 36.153 24.1347 36.2127 24.7488H29.6149C29.4926 26.4876 30.43 27.8851 31.7585 28.2223C33.413 28.6285 34.8271 27.9135 35.3406 26.3454C35.4547 25.9432 35.6626 25.8863 36.0293 26.0001ZM29.6149 24.1923H35.5118C35.4751 22.3398 34.3177 20.9991 32.7488 20.9788C30.972 20.9504 29.6923 22.2423 29.6149 24.1923Z" fill="url(#paint1_linear_186_443)"/>
<path d="M37.2438 26.0406H37.8225C37.8438 26.4651 37.9822 26.8755 38.2223 27.2267C38.4625 27.5779 38.7951 27.8563 39.1836 28.0313C39.6715 28.2501 40.2026 28.3565 40.7374 28.3424C41.2723 28.3284 41.797 28.1942 42.2726 27.95C42.5318 27.8335 42.749 27.6406 42.8947 27.3972C43.0405 27.1539 43.1078 26.8718 43.0877 26.5891C43.1026 26.3164 43.0279 26.0463 42.8749 25.8198C42.722 25.5933 42.4991 25.4226 42.24 25.3338C41.6043 25.0981 40.9278 24.9681 40.2798 24.761C39.6057 24.5696 38.9464 24.3292 38.3074 24.0419C37.2642 23.5341 37.199 21.5556 38.3808 20.93C38.9859 20.5896 39.667 20.4057 40.3617 20.395C41.0565 20.3844 41.7429 20.5474 42.3582 20.8691C42.731 21.0744 43.0321 21.3882 43.2214 21.7685C43.4107 22.1489 43.4792 22.5777 43.4178 22.9978H42.9206C42.9206 22.9735 42.8758 22.9531 42.8758 22.9288C42.8147 21.3485 41.4861 20.861 40.0598 20.9991C39.634 21.0514 39.2204 21.1765 38.8372 21.3688C38.607 21.4737 38.4151 21.6473 38.2881 21.8656C38.1611 22.084 38.1052 22.3362 38.1281 22.5875C38.1288 22.839 38.2075 23.084 38.3534 23.2891C38.4994 23.4942 38.7054 23.6493 38.9432 23.7331C39.5708 23.9606 40.2269 24.1069 40.8708 24.2856C41.3883 24.4278 41.9263 24.5213 42.4275 24.6919C42.7813 24.8075 43.0915 25.0275 43.3171 25.3228C43.5427 25.618 43.673 25.9746 43.6908 26.3453C43.7513 26.7515 43.6819 27.1664 43.4924 27.531C43.303 27.8956 43.0031 28.1915 42.6353 28.3766C41.2742 29.1444 39.0328 28.9413 38.0344 27.9703C37.7813 27.7166 37.5812 27.4155 37.4455 27.0843C37.3098 26.7531 37.2412 26.3984 37.2438 26.0406Z" fill="url(#paint2_linear_186_443)"/>
<path d="M51.0263 22.9979H50.4843C50.4843 22.9247 50.4557 22.8597 50.4476 22.7988C50.4388 22.3938 50.2907 22.0041 50.028 21.6949C49.7654 21.3858 49.4042 21.176 49.0049 21.1007C48.2515 20.8852 47.4479 20.9237 46.7187 21.2104C46.4305 21.2927 46.1768 21.4658 45.9954 21.7038C45.8139 21.9417 45.7146 22.2318 45.7121 22.5307C45.702 22.8242 45.7938 23.1122 45.972 23.3461C46.1502 23.58 46.4038 23.7454 46.6902 23.8144C47.5052 24.0663 48.3407 24.2207 49.1679 24.4482C49.436 24.5123 49.7 24.5923 49.9585 24.6879C50.3446 24.8255 50.68 25.0761 50.9209 25.4068C51.1618 25.7375 51.297 26.133 51.3089 26.5415C51.3208 26.95 51.2088 27.3526 50.9875 27.6967C50.7662 28.0408 50.446 28.3103 50.0686 28.47C49.4935 28.7304 48.8702 28.8681 48.2386 28.8744C47.607 28.8807 46.9811 28.7554 46.4009 28.5066C45.9237 28.3015 45.5211 27.9555 45.2471 27.5154C44.9732 27.0752 44.8411 26.562 44.8686 26.0447H45.0968H45.3983C45.4963 26.5161 45.7081 26.9565 46.0154 27.3279C46.3226 27.6993 46.716 27.9904 47.1616 28.1761C47.6071 28.3618 48.0913 28.4364 48.5723 28.3934C49.0533 28.3505 49.5165 28.1913 49.9219 27.9297C50.1688 27.8018 50.3738 27.606 50.5125 27.3655C50.6511 27.125 50.7177 26.8499 50.7043 26.5729C50.7166 26.3 50.6393 26.0306 50.4841 25.8056C50.3289 25.5805 50.1044 25.412 49.8444 25.3257C49.2087 25.09 48.5322 24.9641 47.8842 24.7569C47.2062 24.5685 46.5429 24.3309 45.8996 24.046C44.8808 23.5463 44.7993 21.5841 45.9607 20.9585C46.5734 20.6038 47.2677 20.4133 47.9761 20.4054C48.6846 20.3976 49.383 20.5727 50.0034 20.9138C50.3582 21.1249 50.6438 21.4343 50.8254 21.8044C51.007 22.1744 51.0768 22.589 51.0263 22.9979Z" fill="url(#paint3_linear_186_443)"/>
<path d="M15.5267 28.6447C15.3134 28.7253 15.0778 28.7251 14.8645 28.6442C14.6513 28.5634 14.4751 28.4075 14.3694 28.206C13.7051 27.2147 12.9715 26.2682 12.2665 25.3013L11.9609 24.895C11.1214 26.0163 10.2819 27.0928 9.51572 28.21C9.4159 28.4026 9.24926 28.5525 9.04684 28.6317C8.84441 28.7109 8.62001 28.7141 8.41541 28.6407L11.5656 24.4278L8.63547 20.6213C8.84639 20.5454 9.07713 20.5443 9.28873 20.6183C9.50033 20.6923 9.67983 20.8369 9.79692 21.0275C10.4775 22.0188 11.2314 22.9653 11.9813 23.9688C12.7352 22.9735 13.4809 22.0228 14.1778 21.0397C14.2782 20.8502 14.4449 20.7042 14.6463 20.6293C14.8477 20.5544 15.0696 20.5558 15.27 20.6335L14.133 22.1366C13.6236 22.8069 13.1223 23.4813 12.5925 24.1353C12.5499 24.1734 12.5157 24.2201 12.4923 24.2722C12.4689 24.3244 12.4569 24.3809 12.4569 24.438C12.4569 24.4951 12.4689 24.5516 12.4923 24.6037C12.5157 24.6559 12.5499 24.7025 12.5925 24.7407C13.5665 26.0285 14.5324 27.3203 15.5267 28.6447Z" fill="url(#paint4_linear_186_443)"/>
<path d="M28.9017 20.5806V21.1494C28.4895 21.1224 28.0763 21.1819 27.6886 21.3241C27.3009 21.4662 26.9474 21.6877 26.651 21.9745C26.3545 22.2612 26.1217 22.6067 25.9674 22.9887C25.8132 23.3707 25.7411 23.7807 25.7556 24.1922C25.7556 25.5301 25.7556 26.868 25.7556 28.2059C25.7556 28.3481 25.7556 28.4903 25.7556 28.6609H25.1729V20.6131H25.7434V22.2625C26.4484 21.06 27.5365 20.6131 28.9017 20.5806Z" fill="url(#paint5_linear_186_443)"/>
<path d="M0.868042 24.375C0.953622 23.9688 1.0066 23.526 1.12478 23.1116C1.8298 20.6131 4.70286 19.5731 6.67935 21.121C7.83673 22.0269 8.12607 23.3106 8.06902 24.7569H1.54861C1.44265 27.3406 3.31319 28.9006 5.70537 28.1044C6.09341 27.966 6.44079 27.7335 6.71613 27.4278C6.99147 27.1221 7.18611 26.7529 7.28249 26.3535C7.40883 25.9472 7.61259 25.8781 7.99974 25.996C7.93597 26.4905 7.76055 26.9643 7.48668 27.3815C7.21281 27.7988 6.84761 28.1487 6.41854 28.405C5.70961 28.7915 4.89625 28.9446 4.09476 28.8424C3.29328 28.7403 2.54472 28.3881 1.95613 27.8363C1.37385 27.1836 1.02176 26.3589 0.953622 25.4881C0.953622 25.35 0.900644 25.2119 0.872117 25.0819C0.8694 24.8409 0.868042 24.6052 0.868042 24.375ZM1.55676 24.2003H7.45365C7.41698 22.3275 6.23108 20.9991 4.64988 20.9869C2.88937 20.9625 1.63011 22.2625 1.55268 24.1922L1.55676 24.2003Z" fill="url(#paint6_linear_186_443)"/>
<path d="M60.3261 29.9893C60.1652 29.9893 60.0055 29.9473 59.8646 29.8655L58.3947 28.9994C58.175 28.8774 58.2821 28.8337 58.3548 28.8089C58.6476 28.7072 58.707 28.6835 59.0193 28.5078C59.052 28.4896 59.0947 28.4962 59.1285 28.5161L60.2573 29.1839C60.2984 29.2066 60.3566 29.2066 60.3938 29.1839L64.7963 26.6536C64.8379 26.6304 64.864 26.5834 64.864 26.5348V21.4753C64.864 21.4256 64.8379 21.3797 64.7958 21.3543L60.3949 18.8262C60.3538 18.803 60.3 18.803 60.259 18.8262L55.8587 21.3549C55.8165 21.3797 55.7893 21.4272 55.7893 21.4753V26.5348C55.7893 26.5834 55.8165 26.6293 55.8587 26.6519L57.0645 27.3462C57.7191 27.6716 58.1201 27.2883 58.1201 26.9027V21.9067C58.1201 21.8365 58.1773 21.7807 58.2477 21.7807H58.8063C58.8756 21.7807 58.9333 21.8365 58.9333 21.9067V26.9027C58.9333 27.7721 58.4579 28.2709 57.6298 28.2709C57.3752 28.2709 57.1749 28.2709 56.6158 27.9969L55.4615 27.3352C55.1758 27.1706 55 26.8635 55 26.5354V21.4758C55 21.1472 55.1758 20.8406 55.4615 20.6771L59.8641 18.1435C60.1425 17.9872 60.5125 17.9872 60.7887 18.1435L65.1913 20.6771C65.4764 20.8412 65.6533 21.1477 65.6533 21.4758V26.5354C65.6533 26.864 65.4764 27.1695 65.1913 27.3352L60.7887 29.8661C60.6489 29.9473 60.4897 29.9893 60.3261 29.9893ZM61.6868 26.5034C59.7592 26.5034 59.356 25.6223 59.356 24.8839C59.356 24.8143 59.4131 24.7574 59.4835 24.7574H60.0526C60.1164 24.7574 60.1691 24.8027 60.1791 24.8645C60.2645 25.4417 60.5214 25.7328 61.6868 25.7328C62.6136 25.7328 63.0086 25.524 63.0086 25.0335C63.0086 24.7507 62.8965 24.5414 61.4555 24.4005C60.2507 24.2818 59.5057 24.0172 59.5057 23.0567C59.5057 22.1723 60.2546 21.6443 61.5093 21.6443C62.9198 21.6443 63.6176 22.132 63.7058 23.1782C63.7091 23.2135 63.6964 23.2483 63.6725 23.2754C63.6481 23.3003 63.6149 23.3157 63.5794 23.3157H63.0075C62.9481 23.3157 62.896 23.2743 62.8838 23.2169C62.7462 22.6093 62.4134 22.4154 61.5087 22.4154C60.4964 22.4154 60.3788 22.7672 60.3788 23.0296C60.3788 23.3483 60.5175 23.4411 61.8848 23.6212C63.2377 23.7996 63.8805 24.0515 63.8805 24.9987C63.8811 25.956 63.0812 26.5034 61.6868 26.5034Z" fill="url(#paint7_linear_186_443)"/>
<defs>
<linearGradient id="paint0_linear_186_443" x1="17.4829" y1="20.4241" x2="23.8551" y2="27.4004" gradientUnits="userSpaceOnUse">
<stop stop-color="#14FFEC"/>
<stop offset="1" stop-color="#8839FF"/>
</linearGradient>
<linearGradient id="paint1_linear_186_443" x1="29.9177" y1="20.4137" x2="34.433" y2="26.9357" gradientUnits="userSpaceOnUse">
<stop stop-color="#14FFEC"/>
<stop offset="1" stop-color="#8839FF"/>
</linearGradient>
<linearGradient id="paint2_linear_186_443" x1="38.1002" y1="20.3945" x2="42.7836" y2="26.4154" gradientUnits="userSpaceOnUse">
<stop stop-color="#14FFEC"/>
<stop offset="1" stop-color="#8839FF"/>
</linearGradient>
<linearGradient id="paint3_linear_186_443" x1="45.7183" y1="20.4052" x2="50.4188" y2="26.4127" gradientUnits="userSpaceOnUse">
<stop stop-color="#14FFEC"/>
<stop offset="1" stop-color="#8839FF"/>
</linearGradient>
<linearGradient id="paint4_linear_186_443" x1="9.35702" y1="20.5636" x2="13.6899" y2="26.9203" gradientUnits="userSpaceOnUse">
<stop stop-color="#14FFEC"/>
<stop offset="1" stop-color="#8839FF"/>
</linearGradient>
<linearGradient id="paint5_linear_186_443" x1="25.6666" y1="20.5806" x2="30.1407" y2="24.0485" gradientUnits="userSpaceOnUse">
<stop stop-color="#14FFEC"/>
<stop offset="1" stop-color="#8839FF"/>
</linearGradient>
<linearGradient id="paint6_linear_186_443" x1="1.82243" y1="20.393" x2="6.37947" y2="26.8984" gradientUnits="userSpaceOnUse">
<stop stop-color="#14FFEC"/>
<stop offset="1" stop-color="#8839FF"/>
</linearGradient>
<linearGradient id="paint7_linear_186_443" x1="56.4106" y1="18.0262" x2="62.7316" y2="27.4805" gradientUnits="userSpaceOnUse">
<stop stop-color="#14FFEC"/>
<stop offset="1" stop-color="#8839FF"/>
</linearGradient>
</defs>
</svg>
