<svg width="40" height="40" viewBox="0 0 40 40" fill="none" xmlns="http://www.w3.org/2000/svg">
<path d="M13.3385 40C15.1067 40 16.8023 39.2976 18.0526 38.0474C19.3028 36.7972 20.0052 35.1015 20.0052 33.3334V26.6667H13.3385C11.5704 26.6667 9.87474 27.3691 8.6245 28.6193C7.37425 29.8696 6.67188 31.5652 6.67188 33.3334C6.67188 35.1015 7.37425 36.7972 8.6245 38.0474C9.87474 39.2976 11.5704 40 13.3385 40Z" fill="url(#paint0_linear_186_453)"/>
<path d="M6.67188 20C6.67188 18.2319 7.37425 16.5362 8.6245 15.2859C9.87474 14.0357 11.5704 13.3333 13.3385 13.3333H20.0052V26.6666H13.3385C11.5704 26.6666 9.87474 25.9643 8.6245 24.714C7.37425 23.4638 6.67188 21.7681 6.67188 20Z" fill="url(#paint1_linear_186_453)"/>
<path d="M6.67188 6.66667C6.67187 4.89946 7.37354 3.20455 8.62265 1.95446C9.87177 0.704369 11.5661 0.00138063 13.3333 0L20 0V13.3333H13.3385C11.5704 13.3333 9.87474 12.631 8.6245 11.3807C7.37425 10.1305 6.67188 8.43477 6.67188 6.66667Z" fill="url(#paint2_linear_186_453)"/>
<path d="M20.0052 0H26.6719C28.44 0 30.1357 0.702379 31.386 1.95262C32.6362 3.20286 33.3386 4.89856 33.3386 6.66667C33.3386 8.43477 32.6362 10.1305 31.386 11.3807C30.1357 12.631 28.44 13.3333 26.6719 13.3333H20.0052V0Z" fill="url(#paint3_linear_186_453)"/>
<path d="M33.3386 20C33.3386 21.7681 32.6362 23.4638 31.386 24.714C30.1357 25.9643 28.44 26.6666 26.6719 26.6666C24.9038 26.6666 23.2081 25.9643 21.9579 24.714C20.7076 23.4638 20.0052 21.7681 20.0052 20C20.0052 18.2319 20.7076 16.5362 21.9579 15.2859C23.2081 14.0357 24.9038 13.3333 26.6719 13.3333C28.44 13.3333 30.1357 14.0357 31.386 15.2859C32.6362 16.5362 33.3386 18.2319 33.3386 20Z" fill="url(#paint4_linear_186_453)"/>
<defs>
<linearGradient id="paint0_linear_186_453" x1="8.43736" y1="26.6667" x2="15.1396" y2="37.9236" gradientUnits="userSpaceOnUse">
<stop stop-color="#14FFEC"/>
<stop offset="1" stop-color="#8839FF"/>
</linearGradient>
<linearGradient id="paint1_linear_186_453" x1="8.43736" y1="13.3333" x2="15.1396" y2="24.5903" gradientUnits="userSpaceOnUse">
<stop stop-color="#14FFEC"/>
<stop offset="1" stop-color="#8839FF"/>
</linearGradient>
<linearGradient id="paint2_linear_186_453" x1="8.43667" y1="5.69869e-07" x2="15.1401" y2="11.2546" gradientUnits="userSpaceOnUse">
<stop stop-color="#14FFEC"/>
<stop offset="1" stop-color="#8839FF"/>
</linearGradient>
<linearGradient id="paint3_linear_186_453" x1="21.7707" y1="5.69869e-07" x2="28.473" y2="11.2569" gradientUnits="userSpaceOnUse">
<stop stop-color="#14FFEC"/>
<stop offset="1" stop-color="#8839FF"/>
</linearGradient>
<linearGradient id="paint4_linear_186_453" x1="21.7707" y1="13.3333" x2="28.473" y2="24.5903" gradientUnits="userSpaceOnUse">
<stop stop-color="#14FFEC"/>
<stop offset="1" stop-color="#8839FF"/>
</linearGradient>
</defs>
</svg>
