<svg width="120" height="120" viewBox="0 0 120 120" fill="none" xmlns="http://www.w3.org/2000/svg">
<path fill-rule="evenodd" clip-rule="evenodd" d="M43.9046 67.0902C44.0381 66.8786 43.8971 66.8525 43.673 66.6355C41.8467 64.8661 30.1899 53.1578 29.7572 53.0018L29.0127 52.9897C28.9319 53.2937 28.8591 53.3133 28.6493 53.5854C24.6629 58.7532 20.5066 64.7075 16.4919 70.0419L14.6526 72.4574L23.9376 84.8722C24.1429 85.1471 24.2838 85.3173 24.4815 85.6046C24.9521 86.2884 28.5789 91.2709 28.9305 91.3673L77.6242 91.3914C78.427 92.5903 81.7888 96.5627 82.0918 97.1355C81.4799 98.0493 78.0786 101.69 77.7305 102.348C63.2286 102.348 48.7268 102.348 34.2249 102.348C32.7513 102.348 30.7357 102.229 29.3298 102.346C28.6844 102.399 28.3548 102.952 27.9755 103.332L15.7961 115.511C15.4477 115.859 14.7792 116.34 14.6526 116.814C15.1898 117.072 48.2112 116.92 51.7761 116.92C64.1861 116.92 76.596 116.92 89.0059 116.92C89.1453 116.323 93.7875 110.26 94.3555 109.506C94.6865 109.066 94.9088 108.701 95.2572 108.28L102.561 98.4574C102.736 98.2234 102.848 98.0818 103.017 97.8501C103.429 97.2825 103.24 97.3645 103.579 97.2418C103.493 96.9209 102.986 96.329 102.752 96.0476L98.304 90.0712C98.116 89.7997 98.0745 89.7869 97.8797 89.5382L93.8779 84.1793C93.5658 83.7203 93.2791 83.405 92.9562 82.9735L89.4314 78.2014H40.5007C40.4198 77.8983 39.1451 76.4118 38.8452 76.0276C38.3175 75.3519 36.3372 73.0321 36.0332 72.4574C36.2213 72.1763 36.3638 72.0998 36.5906 71.8447L40.5007 67.1389L43.9046 67.0902V67.0902Z" fill="url(#paint0_linear_322_476)"/>
<path fill-rule="evenodd" clip-rule="evenodd" d="M29.8215 53.0017C30.2542 53.1577 41.9109 64.8661 43.7373 66.6355C43.9613 66.8525 44.1024 66.8785 43.9688 67.0901C44.2391 67.3399 44.6858 67.2482 45.2452 67.2454L89.6021 67.2451C89.6399 66.7896 89.6268 67.0549 89.705 66.9226L89.85 66.7484C91.1761 65.2635 95.1919 61.3893 96.6491 59.9321C97.8629 58.7183 98.9988 57.5825 100.212 56.3687L102.925 53.6563C103.231 53.3506 103.631 53.1161 103.749 52.6723C91.7649 52.6723 79.7805 52.6723 67.796 52.6723C61.8256 52.6723 55.7731 52.5746 49.813 52.6786C48.5844 52.7 48.9683 52.5277 48.9683 49.0557C48.9683 44.4307 48.8891 17.8287 49.0174 17.6189C49.2085 17.3063 52.7623 17.4635 53.3295 17.4635H89.2829C91.0391 17.4635 91.6513 17.7401 92.2912 17.068C94.1909 15.0729 96.7574 12.7403 98.5119 10.8432C98.7393 10.5973 98.7613 10.4935 98.9859 10.2535L100.017 9.26309C100.031 9.24698 100.053 9.22454 100.068 9.20843C100.083 9.19232 100.105 9.16976 100.12 9.15364C100.328 8.92687 100.464 8.78055 100.691 8.55473L105.765 3.49903C106.06 3.17917 106.035 3.12522 105.47 3.09538C102.673 2.94738 99.3711 3.10338 96.5161 3.10338H47.0536C46.308 3.10338 45.5621 3.10911 44.8165 3.10004C43.7186 3.08679 43.8981 3.22572 43.304 3.82141L29.9614 17.1779C29.8096 17.3104 29.9037 17.1958 29.7894 17.3251C29.5269 17.6217 29.5982 17.685 29.6033 18.2027C29.7091 28.9482 29.6089 40.0681 29.6088 50.864C29.6088 51.9493 29.4633 52.433 29.8215 53.0017V53.0017Z" fill="#FEFEFE"/>
<defs>
<linearGradient id="paint0_linear_322_476" x1="59.1156" y1="52.9897" x2="59.1156" y2="179.453" gradientUnits="userSpaceOnUse">
<stop stop-color="#14FFEC"/>
<stop offset="1" stop-color="#8839FF"/>
</linearGradient>
</defs>
</svg>
