<svg width="100" height="100" viewBox="0 0 100 100" fill="none" xmlns="http://www.w3.org/2000/svg">
<path fill-rule="evenodd" clip-rule="evenodd" d="M39.7192 54.3713C39.8073 54.2317 39.7142 54.2146 39.5665 54.0714C38.3616 52.9041 30.6713 45.1798 30.3859 45.0769L29.8947 45.069C29.8414 45.2695 29.7934 45.2824 29.655 45.462C27.025 48.8713 24.2831 52.7994 21.6345 56.3187L20.421 57.9122L26.5465 66.1025C26.682 66.2839 26.775 66.3962 26.9054 66.5857C27.2158 67.0368 29.6085 70.3239 29.8405 70.3875L61.9648 70.4034C62.4944 71.1943 64.7123 73.815 64.9122 74.1929C64.5085 74.7957 62.2646 77.1976 62.035 77.6315C52.4677 77.6315 42.9005 77.6315 33.3333 77.6315C32.3612 77.6315 31.0314 77.5535 30.1039 77.6302C29.6781 77.6654 29.4607 78.0303 29.2105 78.2806L21.1754 86.3157C20.9456 86.5455 20.5046 86.8625 20.421 87.1753C20.7754 87.3454 42.5604 87.2455 44.9122 87.2455C53.0994 87.2455 61.2864 87.2455 69.4735 87.2455C69.5655 86.851 72.6281 82.8516 73.0028 82.3537C73.2212 82.0635 73.3679 81.8231 73.5977 81.5451L78.4159 75.065C78.5316 74.9106 78.6057 74.8172 78.7169 74.6643C78.989 74.2899 78.864 74.344 79.0876 74.2631C79.031 74.0513 78.6965 73.6609 78.5421 73.4752L75.6077 69.5324C75.4837 69.3533 75.4563 69.3449 75.3278 69.1808L72.6877 65.6454C72.4818 65.3426 72.2927 65.1346 72.0797 64.8499L69.7542 61.7016H37.4736C37.4202 61.5017 36.5793 60.521 36.3814 60.2676C36.0333 59.8218 34.7268 58.2913 34.5263 57.9122C34.6504 57.7268 34.7444 57.6763 34.894 57.508L37.4736 54.4035L39.7192 54.3713Z" fill="url(#paint0_linear_131_504)"/>
<path fill-rule="evenodd" clip-rule="evenodd" d="M30.4283 45.0769C30.7137 45.1798 38.4039 52.904 39.6088 54.0714C39.7566 54.2145 39.8497 54.2317 39.7616 54.3713C39.9399 54.5361 40.2346 54.4756 40.6036 54.4737L69.8669 54.4736C69.8918 54.173 69.8832 54.348 69.9347 54.2608L70.0304 54.1458C70.9053 53.1662 73.5546 50.6103 74.5159 49.649C75.3167 48.8482 76.0661 48.0989 76.8668 47.2981L78.6563 45.5087C78.858 45.307 79.122 45.1523 79.2002 44.8595C71.2937 44.8595 63.3873 44.8595 55.4809 44.8595C51.5421 44.8595 47.5491 44.7951 43.6171 44.8637C42.8065 44.8778 43.0599 44.7641 43.0599 42.4736C43.0599 39.4224 43.0076 21.8725 43.0922 21.734C43.2183 21.5278 45.5628 21.6315 45.937 21.6315H69.6563C70.8149 21.6315 71.2187 21.814 71.6409 21.3706C72.8942 20.0544 74.5874 18.5155 75.7449 17.264C75.8949 17.1018 75.9094 17.0333 76.0576 16.8749L76.7375 16.2215C76.7473 16.2109 76.7618 16.1961 76.7717 16.1855C76.7814 16.1748 76.7959 16.1599 76.8057 16.1493C76.9432 15.9997 77.0327 15.9032 77.1824 15.7542L80.5299 12.4188C80.7248 12.2078 80.708 12.1722 80.3354 12.1525C78.4899 12.0549 76.3117 12.1578 74.4282 12.1578H41.7967C41.3048 12.1578 40.8127 12.1616 40.3208 12.1556C39.5965 12.1469 39.7149 12.2385 39.323 12.6315L30.5206 21.4431C30.4204 21.5305 30.4825 21.4549 30.4071 21.5402C30.2339 21.7358 30.281 21.7777 30.2843 22.1192C30.3541 29.2082 30.288 36.5443 30.288 43.6666C30.288 44.3825 30.192 44.7017 30.4283 45.0769Z" fill="#FEFEFE"/>
<defs>
<linearGradient id="paint0_linear_131_504" x1="49.7543" y1="45.069" x2="49.7543" y2="128.5" gradientUnits="userSpaceOnUse">
<stop stop-color="#14FFEC"/>
<stop offset="1" stop-color="#8839FF"/>
</linearGradient>
</defs>
</svg>
