<svg width="171" height="49" viewBox="0 0 171 49" fill="none" xmlns="http://www.w3.org/2000/svg">
<path d="M0.544001 48V1.056H32.584V9.984H11.128V19.416H17.608C20.92 19.416 23.92 19.848 26.608 20.712C29.344 21.528 31.528 22.944 33.16 24.96C34.792 26.928 35.608 29.64 35.608 33.096C35.608 36.648 34.816 39.528 33.232 41.736C31.648 43.944 29.512 45.552 26.824 46.56C24.184 47.52 21.208 48 17.896 48H0.544001ZM11.128 39.792H16.816C19.648 39.792 21.76 39.264 23.152 38.208C24.544 37.152 25.24 35.496 25.24 33.24C25.24 31.032 24.52 29.472 23.08 28.56C21.64 27.648 19.528 27.192 16.744 27.192H11.128V39.792ZM43.3457 48.864C42.0978 48.864 41.0658 48.816 40.2498 48.72C39.4338 48.624 38.6417 48.432 37.8737 48.144L39.7458 38.64C40.0818 38.688 40.3938 38.76 40.6818 38.856C41.0178 38.904 41.3778 38.928 41.7618 38.928C42.5778 38.928 43.2978 38.688 43.9218 38.208C44.5938 37.728 45.2418 36.696 45.8658 35.112C46.5378 33.528 47.2338 31.056 47.9538 27.696C48.9138 23.328 49.8018 18.936 50.6178 14.52C51.4338 10.056 52.2498 5.568 53.0658 1.056H80.4258V48H69.7698V9.984H61.2018C60.6258 13.296 60.0498 16.488 59.4738 19.56C58.8978 22.632 58.3218 25.728 57.7458 28.848C56.7378 34.08 55.5858 38.16 54.2898 41.088C53.0418 43.968 51.5298 45.984 49.7538 47.136C47.9778 48.288 45.8418 48.864 43.3457 48.864ZM110.538 48.864C106.314 48.864 102.594 47.88 99.3781 45.912C96.2101 43.944 93.7141 41.136 91.8901 37.488C90.1141 33.792 89.2261 29.4 89.2261 24.312C89.2261 19.176 90.1141 14.832 91.8901 11.28C93.7141 7.68 96.2101 4.944 99.3781 3.072C102.594 1.152 106.314 0.191998 110.538 0.191998C114.762 0.191998 118.458 1.152 121.626 3.072C124.842 4.944 127.338 7.68 129.114 11.28C130.938 14.88 131.85 19.224 131.85 24.312C131.85 29.4 130.938 33.792 129.114 37.488C127.338 41.136 124.842 43.944 121.626 45.912C118.458 47.88 114.762 48.864 110.538 48.864ZM110.538 39.72C113.754 39.72 116.298 38.328 118.17 35.544C120.042 32.76 120.978 29.016 120.978 24.312C120.978 19.608 120.042 15.936 118.17 13.296C116.298 10.656 113.754 9.336 110.538 9.336C107.322 9.336 104.778 10.656 102.906 13.296C101.034 15.936 100.098 19.608 100.098 24.312C100.098 29.016 101.034 32.76 102.906 35.544C104.778 38.328 107.322 39.72 110.538 39.72ZM140.677 48V1.056H170.269V9.984H151.261V48H140.677Z" fill="url(#paint0_linear_326_430)" fill-opacity="0.4"/>
<defs>
<linearGradient id="paint0_linear_326_430" x1="18.5692" y1="3" x2="24.0047" y2="45.7641" gradientUnits="userSpaceOnUse">
<stop stop-color="#14FFEC"/>
<stop offset="1" stop-color="#8839FF"/>
</linearGradient>
</defs>
</svg>
