<svg width="414" height="49" viewBox="0 0 414 49" fill="none" xmlns="http://www.w3.org/2000/svg">
<path d="M0.544001 48V1.056H16.672C20.128 1.056 23.248 1.536 26.032 2.496C28.864 3.408 31.12 4.968 32.8 7.176C34.48 9.384 35.32 12.384 35.32 16.176C35.32 19.824 34.48 22.824 32.8 25.176C31.12 27.528 28.888 29.28 26.104 30.432C23.32 31.536 20.272 32.088 16.96 32.088H11.128V48H0.544001ZM11.128 23.664H16.312C22.072 23.664 24.952 21.168 24.952 16.176C24.952 13.728 24.184 12 22.648 10.992C21.112 9.984 18.904 9.48 16.024 9.48H11.128V23.664ZM50.8647 24.24L49.7127 28.56H59.7207L58.6407 24.24C58.0167 21.888 57.3687 19.392 56.6967 16.752C56.0727 14.112 55.4487 11.568 54.8247 9.12H54.5367C53.9607 11.616 53.3607 14.184 52.7367 16.824C52.1607 19.416 51.5367 21.888 50.8647 24.24ZM33.8727 48L48.5607 1.056H61.3047L75.9927 48H64.7607L61.8807 36.84H47.5527L44.6727 48H33.8727ZM95.3781 48.864C92.3061 48.864 89.2821 48.384 86.3061 47.424C83.3301 46.416 80.5941 44.736 78.0981 42.384L83.7141 35.112C85.4901 36.744 87.3381 37.92 89.2581 38.64C91.1781 39.36 93.1701 39.72 95.2341 39.72C97.6341 39.72 99.6021 39.168 101.138 38.064C102.674 36.96 103.442 35.4 103.442 33.384C103.442 31.416 102.746 29.976 101.354 29.064C99.9621 28.152 97.8261 27.696 94.9461 27.696H88.6821V19.848H93.5061C96.3381 19.848 98.3301 19.392 99.4821 18.48C100.634 17.52 101.21 16.2 101.21 14.52C101.21 12.696 100.586 11.376 99.3381 10.56C98.1381 9.744 96.5541 9.336 94.5861 9.336C92.7621 9.336 91.0821 9.672 89.5461 10.344C88.0101 10.968 86.4741 11.856 84.9381 13.008L79.6101 5.952C83.8821 2.112 88.9941 0.191998 94.9461 0.191998C100.37 0.191998 104.498 1.32 107.33 3.576C110.162 5.832 111.578 8.904 111.578 12.792C111.578 15.048 111.074 17.088 110.066 18.912C109.058 20.688 107.57 22.032 105.602 22.944V23.232C107.954 23.856 109.898 25.128 111.434 27.048C113.018 28.968 113.81 31.344 113.81 34.176C113.81 37.392 112.994 40.104 111.362 42.312C109.73 44.472 107.522 46.104 104.738 47.208C102.002 48.312 98.8821 48.864 95.3781 48.864ZM121.763 48V1.056H137.891C141.347 1.056 144.467 1.536 147.251 2.496C150.083 3.408 152.339 4.968 154.019 7.176C155.699 9.384 156.539 12.384 156.539 16.176C156.539 19.824 155.699 22.824 154.019 25.176C152.339 27.528 150.107 29.28 147.323 30.432C144.539 31.536 141.491 32.088 138.179 32.088H132.347V48H121.763ZM132.347 23.664H137.531C143.291 23.664 146.171 21.168 146.171 16.176C146.171 13.728 145.403 12 143.867 10.992C142.331 9.984 140.123 9.48 137.243 9.48H132.347V23.664ZM172.083 24.24L170.931 28.56H180.939L179.859 24.24C179.235 21.888 178.587 19.392 177.915 16.752C177.291 14.112 176.667 11.568 176.043 9.12H175.755C175.179 11.616 174.579 14.184 173.955 16.824C173.379 19.416 172.755 21.888 172.083 24.24ZM155.091 48L169.779 1.056H182.523L197.211 48H185.979L183.099 36.84H168.771L165.891 48H155.091ZM202.341 48V1.056H234.381V9.984H212.925V19.416H219.405C222.717 19.416 225.717 19.848 228.405 20.712C231.141 21.528 233.325 22.944 234.957 24.96C236.589 26.928 237.405 29.64 237.405 33.096C237.405 36.648 236.613 39.528 235.029 41.736C233.445 43.944 231.309 45.552 228.621 46.56C225.981 47.52 223.005 48 219.693 48H202.341ZM212.925 39.792H218.613C221.445 39.792 223.557 39.264 224.949 38.208C226.341 37.152 227.037 35.496 227.037 33.24C227.037 31.032 226.317 29.472 224.877 28.56C223.437 27.648 221.325 27.192 218.541 27.192H212.925V39.792ZM264.593 48.864C260.369 48.864 256.649 47.88 253.433 45.912C250.265 43.944 247.769 41.136 245.945 37.488C244.169 33.792 243.281 29.4 243.281 24.312C243.281 19.176 244.169 14.832 245.945 11.28C247.769 7.68 250.265 4.944 253.433 3.072C256.649 1.152 260.369 0.191998 264.593 0.191998C268.817 0.191998 272.513 1.152 275.681 3.072C278.897 4.944 281.393 7.68 283.169 11.28C284.993 14.88 285.905 19.224 285.905 24.312C285.905 29.4 284.993 33.792 283.169 37.488C281.393 41.136 278.897 43.944 275.681 45.912C272.513 47.88 268.817 48.864 264.593 48.864ZM264.593 39.72C267.809 39.72 270.353 38.328 272.225 35.544C274.097 32.76 275.033 29.016 275.033 24.312C275.033 19.608 274.097 15.936 272.225 13.296C270.353 10.656 267.809 9.336 264.593 9.336C261.377 9.336 258.833 10.656 256.961 13.296C255.089 15.936 254.153 19.608 254.153 24.312C254.153 29.016 255.089 32.76 256.961 35.544C258.833 38.328 261.377 39.72 264.593 39.72ZM301.836 48V9.984H288.948V1.056H325.38V9.984H312.492V48H301.836ZM332.7 48V1.056H343.284V19.488H348.468L354.588 8.688C356.412 5.472 358.26 3.264 360.132 2.064C362.052 0.815998 364.332 0.191998 366.972 0.191998C367.644 0.191998 368.34 0.239997 369.06 0.335996C369.78 0.431997 370.38 0.599998 370.86 0.839998L369.132 10.416C368.7 10.272 368.292 10.2 367.908 10.2C367.572 10.152 367.284 10.128 367.044 10.128C365.988 10.128 365.076 10.416 364.308 10.992C363.588 11.568 362.748 12.696 361.788 14.376L356.748 23.16L372.084 48H360.924L348.468 28.056H343.284V48H332.7ZM388.505 24.24L387.353 28.56H397.361L396.281 24.24C395.657 21.888 395.009 19.392 394.337 16.752C393.713 14.112 393.089 11.568 392.465 9.12H392.177C391.601 11.616 391.001 14.184 390.377 16.824C389.801 19.416 389.177 21.888 388.505 24.24ZM371.513 48L386.201 1.056H398.945L413.633 48H402.401L399.521 36.84H385.193L382.313 48H371.513Z" fill="url(#paint0_linear_148_461)" fill-opacity="0.4"/>
<defs>
<linearGradient id="paint0_linear_148_461" x1="50.4802" y1="3" x2="52.8198" y2="46.3286" gradientUnits="userSpaceOnUse">
<stop stop-color="#14FFEC"/>
<stop offset="1" stop-color="#8839FF"/>
</linearGradient>
</defs>
</svg>
