<svg width="468" height="49" viewBox="0 0 468 49" fill="none" xmlns="http://www.w3.org/2000/svg">
<path d="M0.544001 48V1.056H11.128V39.072H29.704V48H0.544001ZM48.4038 24.24L47.2518 28.56H57.2598L56.1798 24.24C55.5558 21.888 54.9078 19.392 54.2358 16.752C53.6118 14.112 52.9878 11.568 52.3638 9.12H52.0758C51.4998 11.616 50.8998 14.184 50.2758 16.824C49.6998 19.416 49.0758 21.888 48.4038 24.24ZM31.4117 48L46.0998 1.056H58.8438L73.5318 48H62.2998L59.4198 36.84H45.0918L42.2118 48H31.4117ZM78.6612 48V1.056H89.5332L101.773 24.384L106.381 34.752H106.669C106.477 32.256 106.213 29.472 105.877 26.4C105.541 23.328 105.373 20.4 105.373 17.616V1.056H115.453V48H104.581L92.3412 24.6L87.7332 14.376H87.4452C87.6852 16.968 87.9492 19.752 88.2372 22.728C88.5732 25.704 88.7412 28.584 88.7412 31.368V48H78.6612ZM126.544 48V1.056H139.792C144.592 1.056 148.744 1.872 152.248 3.504C155.752 5.136 158.464 7.68 160.384 11.136C162.352 14.544 163.336 18.936 163.336 24.312C163.336 29.688 162.376 34.128 160.456 37.632C158.536 41.136 155.848 43.752 152.392 45.48C148.984 47.16 144.976 48 140.368 48H126.544ZM137.128 39.432H139.144C141.832 39.432 144.16 38.952 146.128 37.992C148.144 37.032 149.704 35.448 150.808 33.24C151.912 31.032 152.464 28.056 152.464 24.312C152.464 20.568 151.912 17.64 150.808 15.528C149.704 13.368 148.144 11.856 146.128 10.992C144.16 10.08 141.832 9.624 139.144 9.624H137.128V39.432ZM172.247 48V1.056H182.831V48H172.247ZM193.903 48V1.056H204.775L217.015 24.384L221.623 34.752H221.911C221.719 32.256 221.455 29.472 221.119 26.4C220.783 23.328 220.615 20.4 220.615 17.616V1.056H230.695V48H219.823L207.583 24.6L202.975 14.376H202.687C202.927 16.968 203.191 19.752 203.479 22.728C203.815 25.704 203.983 28.584 203.983 31.368V48H193.903ZM262.522 48.864C258.25 48.864 254.362 47.952 250.858 46.128C247.402 44.304 244.642 41.616 242.578 38.064C240.562 34.464 239.554 30.048 239.554 24.816C239.554 19.632 240.586 15.216 242.65 11.568C244.762 7.872 247.546 5.064 251.002 3.144C254.458 1.176 258.274 0.191998 262.45 0.191998C265.858 0.191998 268.786 0.815998 271.234 2.064C273.682 3.312 275.674 4.728 277.21 6.312L271.666 13.08C270.466 12.024 269.194 11.136 267.85 10.416C266.506 9.696 264.826 9.336 262.81 9.336C259.162 9.336 256.186 10.68 253.882 13.368C251.578 16.056 250.426 19.752 250.426 24.456C250.426 29.256 251.53 33 253.738 35.688C255.946 38.376 259.234 39.72 263.602 39.72C264.562 39.72 265.498 39.6 266.41 39.36C267.322 39.12 268.066 38.76 268.642 38.28V30.216H260.866V21.576H278.002V43.176C276.37 44.76 274.186 46.104 271.45 47.208C268.762 48.312 265.786 48.864 262.522 48.864ZM285.252 33.528V26.04H302.964V33.528H285.252ZM311.607 48V1.056H327.735C331.191 1.056 334.311 1.536 337.095 2.496C339.927 3.408 342.183 4.968 343.863 7.176C345.543 9.384 346.383 12.384 346.383 16.176C346.383 19.824 345.543 22.824 343.863 25.176C342.183 27.528 339.951 29.28 337.167 30.432C334.383 31.536 331.335 32.088 328.023 32.088H322.191V48H311.607ZM322.191 23.664H327.375C333.135 23.664 336.015 21.168 336.015 16.176C336.015 13.728 335.247 12 333.711 10.992C332.175 9.984 329.967 9.48 327.087 9.48H322.191V23.664ZM361.927 24.24L360.775 28.56H370.783L369.703 24.24C369.079 21.888 368.431 19.392 367.759 16.752C367.135 14.112 366.511 11.568 365.887 9.12H365.599C365.023 11.616 364.423 14.184 363.799 16.824C363.223 19.416 362.599 21.888 361.927 24.24ZM344.935 48L359.623 1.056H372.367L387.055 48H375.823L372.943 36.84H358.615L355.735 48H344.935ZM412.218 48.864C407.946 48.864 404.058 47.952 400.554 46.128C397.098 44.304 394.338 41.616 392.274 38.064C390.258 34.464 389.25 30.048 389.25 24.816C389.25 19.632 390.282 15.216 392.346 11.568C394.458 7.872 397.242 5.064 400.698 3.144C404.154 1.176 407.97 0.191998 412.146 0.191998C415.554 0.191998 418.482 0.815998 420.93 2.064C423.378 3.312 425.37 4.728 426.906 6.312L421.362 13.08C420.162 12.024 418.89 11.136 417.546 10.416C416.202 9.696 414.522 9.336 412.506 9.336C408.858 9.336 405.882 10.68 403.578 13.368C401.274 16.056 400.122 19.752 400.122 24.456C400.122 29.256 401.226 33 403.434 35.688C405.642 38.376 408.93 39.72 413.298 39.72C414.258 39.72 415.194 39.6 416.106 39.36C417.018 39.12 417.762 38.76 418.338 38.28V30.216H410.562V21.576H427.698V43.176C426.066 44.76 423.882 46.104 421.146 47.208C418.458 48.312 415.482 48.864 412.218 48.864ZM437.396 48V1.056H466.772V9.984H447.98V19.416H463.964V28.272H447.98V39.072H467.492V48H437.396Z" fill="url(#paint0_linear_326_428)" fill-opacity="0.4"/>
<defs>
<linearGradient id="paint0_linear_326_428" x1="58.1601" y1="3" x2="60.2166" y2="46.3574" gradientUnits="userSpaceOnUse">
<stop stop-color="#14FFEC"/>
<stop offset="1" stop-color="#8839FF"/>
</linearGradient>
</defs>
</svg>
