<svg width="420" height="66" viewBox="0 0 420 66" fill="none" xmlns="http://www.w3.org/2000/svg">
<path d="M0.392001 64V1.408H49.256V64H35.144V13.312H14.504V64H0.392001ZM64.0483 64V1.408H85.5523C90.1603 1.408 94.3203 2.048 98.0323 3.328C101.808 4.544 104.816 6.624 107.056 9.568C109.296 12.512 110.416 16.512 110.416 21.568C110.416 26.432 109.296 30.432 107.056 33.568C104.816 36.704 101.84 39.04 98.1283 40.576C94.4163 42.048 90.3523 42.784 85.9363 42.784H78.1603V64H64.0483ZM78.1603 31.552H85.0723C92.7523 31.552 96.5923 28.224 96.5923 21.568C96.5923 18.304 95.5683 16 93.5203 14.656C91.4723 13.312 88.5283 12.64 84.6883 12.64H78.1603V31.552ZM146.676 65.152C141.044 65.152 136.084 63.84 131.796 61.216C127.572 58.592 124.244 54.848 121.812 49.984C119.444 45.056 118.26 39.2 118.26 32.416C118.26 25.568 119.444 19.776 121.812 15.04C124.244 10.24 127.572 6.592 131.796 4.096C136.084 1.536 141.044 0.255997 146.676 0.255997C152.308 0.255997 157.236 1.536 161.46 4.096C165.748 6.592 169.076 10.24 171.444 15.04C173.876 19.84 175.092 25.632 175.092 32.416C175.092 39.2 173.876 45.056 171.444 49.984C169.076 54.848 165.748 58.592 161.46 61.216C157.236 63.84 152.308 65.152 146.676 65.152ZM146.676 52.96C150.964 52.96 154.356 51.104 156.852 47.392C159.348 43.68 160.596 38.688 160.596 32.416C160.596 26.144 159.348 21.248 156.852 17.728C154.356 14.208 150.964 12.448 146.676 12.448C142.388 12.448 138.996 14.208 136.5 17.728C134.004 21.248 132.756 26.144 132.756 32.416C132.756 38.688 134.004 43.68 136.5 47.392C138.996 51.104 142.388 52.96 146.676 52.96ZM186.861 64V1.408H226.029V13.312H200.973V25.888H222.285V37.696H200.973V52.096H226.989V64H186.861ZM239.455 64V1.408H253.567V25.984H260.479L268.639 11.584C271.071 7.296 273.535 4.352 276.031 2.752C278.591 1.088 281.631 0.255997 285.151 0.255997C286.047 0.255997 286.975 0.319996 287.935 0.447994C288.895 0.575996 289.695 0.799997 290.335 1.12L288.031 13.888C287.455 13.696 286.911 13.6 286.399 13.6C285.951 13.536 285.567 13.504 285.247 13.504C283.839 13.504 282.623 13.888 281.599 14.656C280.639 15.424 279.519 16.928 278.239 19.168L271.519 30.88L291.967 64H277.087L260.479 37.408H253.567V64H239.455ZM311.365 64V13.312H294.181V1.408H342.757V13.312H325.573V64H311.365ZM352.517 64V1.408H366.629V24.256H372.869C377.605 24.256 381.797 24.928 385.445 26.272C389.157 27.552 392.069 29.6 394.181 32.416C396.293 35.232 397.349 38.944 397.349 43.552C397.349 48.544 396.229 52.544 393.989 55.552C391.813 58.56 388.869 60.736 385.157 62.08C381.445 63.36 377.253 64 372.581 64H352.517ZM366.629 52.768H371.717C375.429 52.768 378.309 52.064 380.357 50.656C382.469 49.248 383.525 46.944 383.525 43.744C383.525 38.24 379.589 35.488 371.717 35.488H366.629V52.768ZM405.509 64V1.408H419.621V64H405.509Z" fill="url(#paint0_linear_127_276)" fill-opacity="0.4"/>
<defs>
<linearGradient id="paint0_linear_127_276" x1="50.4664" y1="11" x2="55.1851" y2="73.5393" gradientUnits="userSpaceOnUse">
<stop stop-color="#14FFEC"/>
<stop offset="1" stop-color="#8839FF"/>
</linearGradient>
</defs>
</svg>
