<svg width="250" height="49" viewBox="0 0 250 49" fill="none" xmlns="http://www.w3.org/2000/svg">
<path d="M11.376 48.864C10.032 48.864 8.856 48.768 7.848 48.576C6.888 48.432 6.072 48.216 5.4 47.928L7.272 38.712C7.704 38.856 8.16 39 8.64 39.144C9.168 39.24 9.888 39.288 10.8 39.288C13.008 39.288 14.52 38.568 15.336 37.128L15.984 35.76L0.072 1.056H11.304L16.776 14.736L20.736 25.968H21.024L24.696 14.736L29.664 1.056H40.32L25.848 37.344C24.408 40.896 22.536 43.704 20.232 45.768C17.976 47.832 15.024 48.864 11.376 48.864ZM64.503 48.864C60.567 48.864 56.943 47.952 53.631 46.128C50.319 44.304 47.655 41.616 45.639 38.064C43.671 34.464 42.687 30.048 42.687 24.816C42.687 19.632 43.695 15.216 45.711 11.568C47.775 7.872 50.487 5.064 53.847 3.144C57.255 1.176 60.927 0.191998 64.863 0.191998C67.887 0.191998 70.599 0.815998 72.999 2.064C75.399 3.264 77.391 4.68 78.975 6.312L73.359 13.08C72.159 11.976 70.887 11.088 69.543 10.416C68.247 9.696 66.759 9.336 65.079 9.336C62.967 9.336 61.023 9.936 59.247 11.136C57.519 12.336 56.127 14.064 55.071 16.32C54.063 18.576 53.559 21.288 53.559 24.456C53.559 29.256 54.591 33 56.655 35.688C58.719 38.376 61.479 39.72 64.935 39.72C66.855 39.72 68.559 39.288 70.047 38.424C71.583 37.56 72.927 36.528 74.079 35.328L79.695 41.952C75.759 46.56 70.695 48.864 64.503 48.864ZM86.0332 48.864C84.7853 48.864 83.7533 48.816 82.9373 48.72C82.1213 48.624 81.3292 48.432 80.5612 48.144L82.4333 38.64C82.7693 38.688 83.0813 38.76 83.3693 38.856C83.7053 38.904 84.0653 38.928 84.4493 38.928C85.2653 38.928 85.9853 38.688 86.6093 38.208C87.2813 37.728 87.9293 36.696 88.5533 35.112C89.2253 33.528 89.9213 31.056 90.6413 27.696C91.6013 23.328 92.4893 18.936 93.3053 14.52C94.1213 10.056 94.9373 5.568 95.7533 1.056H123.113V48H112.457V9.984H103.889C103.313 13.296 102.737 16.488 102.161 19.56C101.585 22.632 101.009 25.728 100.433 28.848C99.4253 34.08 98.2733 38.16 96.9773 41.088C95.7293 43.968 94.2173 45.984 92.4413 47.136C90.6653 48.288 88.5293 48.864 86.0332 48.864ZM139.978 48.864C138.634 48.864 137.458 48.768 136.45 48.576C135.49 48.432 134.674 48.216 134.002 47.928L135.874 38.712C136.306 38.856 136.762 39 137.242 39.144C137.77 39.24 138.49 39.288 139.402 39.288C141.61 39.288 143.122 38.568 143.938 37.128L144.586 35.76L128.674 1.056H139.906L145.378 14.736L149.338 25.968H149.626L153.298 14.736L158.266 1.056H168.922L154.45 37.344C153.01 40.896 151.138 43.704 148.834 45.768C146.578 47.832 143.626 48.864 139.978 48.864ZM174.083 48V1.056H203.675V9.984H184.667V48H174.083ZM211.63 48V1.056H222.142V17.616C222.142 20.4 221.974 23.328 221.638 26.4C221.302 29.472 221.014 32.256 220.774 34.752H221.062L225.67 24.456L237.982 1.056H249.214V48H238.774V31.368C238.774 28.584 238.942 25.704 239.278 22.728C239.614 19.752 239.878 16.968 240.07 14.376H239.782L235.174 24.6L222.862 48H211.63Z" fill="url(#paint0_linear_174_357)" fill-opacity="0.4"/>
<defs>
<linearGradient id="paint0_linear_174_357" x1="42.7688" y1="3" x2="47.0081" y2="54.1082" gradientUnits="userSpaceOnUse">
<stop stop-color="#14FFEC"/>
<stop offset="1" stop-color="#8839FF"/>
</linearGradient>
</defs>
</svg>
