<svg width="530" height="62" viewBox="0 0 530 62" fill="none" xmlns="http://www.w3.org/2000/svg">
<path d="M22.128 61.864C18.192 61.864 14.568 60.952 11.256 59.128C7.944 57.304 5.28 54.616 3.264 51.064C1.296 47.464 0.312 43.048 0.312 37.816C0.312 32.632 1.32 28.216 3.336 24.568C5.4 20.872 8.112 18.064 11.472 16.144C14.88 14.176 18.552 13.192 22.488 13.192C25.512 13.192 28.224 13.816 30.624 15.064C33.024 16.264 35.016 17.68 36.6 19.312L30.984 26.08C29.784 24.976 28.512 24.088 27.168 23.416C25.872 22.696 24.384 22.336 22.704 22.336C20.592 22.336 18.648 22.936 16.872 24.136C15.144 25.336 13.752 27.064 12.696 29.32C11.688 31.576 11.184 34.288 11.184 37.456C11.184 42.256 12.216 46 14.28 48.688C16.344 51.376 19.104 52.72 22.56 52.72C24.48 52.72 26.184 52.288 27.672 51.424C29.208 50.56 30.552 49.528 31.704 48.328L37.32 54.952C33.384 59.56 28.32 61.864 22.128 61.864ZM55.4663 37.24L54.3143 41.56H64.3223L63.2423 37.24C62.6183 34.888 61.9703 32.392 61.2983 29.752C60.6743 27.112 60.0503 24.568 59.4263 22.12H59.1383C58.5623 24.616 57.9623 27.184 57.3383 29.824C56.7623 32.416 56.1383 34.888 55.4663 37.24ZM38.4742 61L53.1623 14.056H65.9063L80.5943 61H69.3623L66.4823 49.84H52.1543L49.2743 61H38.4742ZM85.7237 61V14.056H96.2357V30.616C96.2357 33.4 96.0677 36.328 95.7317 39.4C95.3957 42.472 95.1077 45.256 94.8677 47.752H95.1557L99.7637 37.456L112.076 14.056H123.308V61H112.868V44.368C112.868 41.584 113.036 38.704 113.372 35.728C113.708 32.752 113.972 29.968 114.164 27.376H113.876L109.268 37.6L96.9557 61H85.7237ZM104.804 10.24C100.196 10.24 96.9317 9.304 95.0117 7.432C93.1397 5.56 92.1317 3.184 91.9877 0.303996H100.916C101.012 1.744 101.348 2.872 101.924 3.688C102.548 4.504 103.508 4.912 104.804 4.912C106.1 4.912 107.06 4.504 107.684 3.688C108.308 2.872 108.644 1.744 108.692 0.303996H117.62C117.476 3.184 116.444 5.56 114.524 7.432C112.652 9.304 109.412 10.24 104.804 10.24ZM143.524 61V22.984H130.636V14.056H167.068V22.984H154.18V61H143.524ZM186.354 46.528V39.04H204.066V46.528H186.354ZM227.122 61V14.056H243.178C246.442 14.056 249.37 14.416 251.962 15.136C254.554 15.808 256.618 16.984 258.154 18.664C259.69 20.344 260.458 22.696 260.458 25.72C260.458 27.784 259.906 29.824 258.802 31.84C257.746 33.808 256.258 35.152 254.338 35.872V36.16C256.738 36.784 258.73 38.008 260.314 39.832C261.946 41.608 262.762 44.056 262.762 47.176C262.762 50.392 261.946 53.008 260.314 55.024C258.682 57.04 256.498 58.552 253.762 59.56C251.026 60.52 247.954 61 244.546 61H227.122ZM237.706 32.848H242.674C245.266 32.848 247.138 32.344 248.29 31.336C249.49 30.328 250.09 28.984 250.09 27.304C250.09 25.48 249.49 24.184 248.29 23.416C247.09 22.648 245.242 22.264 242.746 22.264H237.706V32.848ZM237.706 52.792H243.682C249.49 52.792 252.394 50.68 252.394 46.456C252.394 44.392 251.674 42.928 250.234 42.064C248.794 41.152 246.61 40.696 243.682 40.696H237.706V52.792ZM270.716 61V14.056H281.228V30.616C281.228 33.4 281.06 36.328 280.724 39.4C280.388 42.472 280.1 45.256 279.86 47.752H280.148L284.756 37.456L297.068 14.056H308.3V61H297.86V44.368C297.86 41.584 298.028 38.704 298.364 35.728C298.7 32.752 298.964 29.968 299.156 27.376H298.868L294.26 37.6L281.948 61H270.716ZM333.628 61.864C330.556 61.864 327.532 61.384 324.556 60.424C321.58 59.416 318.844 57.736 316.348 55.384L321.964 48.112C323.74 49.744 325.588 50.92 327.508 51.64C329.428 52.36 331.42 52.72 333.484 52.72C335.884 52.72 337.852 52.168 339.388 51.064C340.924 49.96 341.692 48.4 341.692 46.384C341.692 44.416 340.996 42.976 339.604 42.064C338.212 41.152 336.076 40.696 333.196 40.696H326.932V32.848H331.756C334.588 32.848 336.58 32.392 337.732 31.48C338.884 30.52 339.46 29.2 339.46 27.52C339.46 25.696 338.836 24.376 337.588 23.56C336.388 22.744 334.804 22.336 332.836 22.336C331.012 22.336 329.332 22.672 327.796 23.344C326.26 23.968 324.724 24.856 323.188 26.008L317.86 18.952C322.132 15.112 327.244 13.192 333.196 13.192C338.62 13.192 342.748 14.32 345.58 16.576C348.412 18.832 349.828 21.904 349.828 25.792C349.828 28.048 349.324 30.088 348.316 31.912C347.308 33.688 345.82 35.032 343.852 35.944V36.232C346.204 36.856 348.148 38.128 349.684 40.048C351.268 41.968 352.06 44.344 352.06 47.176C352.06 50.392 351.244 53.104 349.612 55.312C347.98 57.472 345.772 59.104 342.988 60.208C340.252 61.312 337.132 61.864 333.628 61.864ZM360.013 61V14.056H370.525V30.616C370.525 33.4 370.357 36.328 370.021 39.4C369.685 42.472 369.397 45.256 369.157 47.752H369.445L374.053 37.456L386.365 14.056H397.597V61H387.157V44.368C387.157 41.584 387.325 38.704 387.661 35.728C387.997 32.752 388.261 29.968 388.453 27.376H388.165L383.557 37.6L371.245 61H360.013ZM417.813 61V22.984H404.925V14.056H441.357V22.984H428.469V61H417.813ZM448.677 61V14.056H459.261V32.488H464.445L470.565 21.688C472.389 18.472 474.237 16.264 476.109 15.064C478.029 13.816 480.309 13.192 482.949 13.192C483.621 13.192 484.317 13.24 485.037 13.336C485.757 13.432 486.357 13.6 486.837 13.84L485.109 23.416C484.677 23.272 484.269 23.2 483.885 23.2C483.549 23.152 483.261 23.128 483.021 23.128C481.965 23.128 481.053 23.416 480.285 23.992C479.565 24.568 478.725 25.696 477.765 27.376L472.725 36.16L488.061 61H476.901L464.445 41.056H459.261V61H448.677ZM504.482 37.24L503.33 41.56H513.338L512.258 37.24C511.634 34.888 510.986 32.392 510.314 29.752C509.69 27.112 509.066 24.568 508.442 22.12H508.154C507.578 24.616 506.978 27.184 506.354 29.824C505.778 32.416 505.154 34.888 504.482 37.24ZM487.49 61L502.178 14.056H514.922L529.61 61H518.378L515.498 49.84H501.17L498.29 61H487.49Z" fill="url(#paint0_linear_326_431)" fill-opacity="0.4"/>
<defs>
<linearGradient id="paint0_linear_326_431" x1="67.5751" y1="16" x2="69.4163" y2="59.3768" gradientUnits="userSpaceOnUse">
<stop stop-color="#14FFEC"/>
<stop offset="1" stop-color="#8839FF"/>
</linearGradient>
</defs>
</svg>
