<svg width="24" height="24" viewBox="0 0 24 24" fill="none" xmlns="http://www.w3.org/2000/svg">
<path d="M6.72229 1.9735L3.25431 2.35883C2.32462 2.46213 1.60764 3.19949 1.70526 4.1298C1.94931 6.45546 3.0987 11.0412 8.02806 15.9705C12.9574 20.8999 17.5437 22.0499 19.8698 22.2944C20.8003 22.3922 21.5379 21.6752 21.6412 20.7453L22.0265 17.2777C22.1146 16.485 21.7233 15.7158 21.0308 15.3202L18.5467 13.9011C17.7636 13.4538 16.7781 13.5859 16.1404 14.2235L15.5031 14.8608C15.0303 15.3337 14.3489 15.5337 13.7445 15.2475C13.0285 14.9083 11.9935 14.2792 10.8572 13.1428C9.7208 12.0064 9.09172 10.9715 8.75252 10.2555C8.46625 9.65113 8.66632 8.96971 9.13917 8.49686L9.77645 7.85957C10.4141 7.2219 10.5462 6.23634 10.0988 5.45329L8.67975 2.9692C8.28415 2.2767 7.51494 1.88543 6.72229 1.9735Z" stroke="#FEFEFE" stroke-width="2" stroke-linecap="round" stroke-linejoin="round"/>
</svg>
