<svg width="40" height="40" viewBox="0 0 40 40" fill="none" xmlns="http://www.w3.org/2000/svg">
<path d="M15.384 11.6688L12.9766 11.9363C12.0469 12.0396 11.3309 12.7788 11.4519 13.7063C11.7138 15.7142 12.7615 19.3806 16.6897 23.3088C20.6179 27.237 24.2848 28.2852 26.293 28.5475C27.2207 28.6686 27.9601 27.9525 28.0635 27.0227L28.3309 24.6157C28.419 23.8231 28.0277 23.0539 27.3352 22.6583L25.6763 21.7106C24.8932 21.2633 23.9077 21.3953 23.27 22.033L23.0451 22.2579C22.5722 22.7307 21.8898 22.9306 21.2936 22.6278C20.7077 22.3302 19.9128 21.8179 19.0473 20.9524C18.1818 20.0869 17.6695 19.292 17.3719 18.7061C17.0691 18.1099 17.2689 17.4275 17.7418 16.9546L17.9667 16.7297C18.6044 16.092 18.7364 15.1064 18.2891 14.3234L17.3414 12.6645C16.9458 11.972 16.1766 11.5807 15.384 11.6688Z" stroke="#FEFEFE" stroke-width="2" stroke-linecap="round" stroke-linejoin="round"/>
<circle cx="20" cy="20" r="19.5" stroke="#46484E"/>
</svg>
