<svg width="475" height="66" viewBox="0 0 475 66" fill="none" xmlns="http://www.w3.org/2000/svg">
<path d="M0.392001 64V1.408H14.504V25.984H21.416L29.576 11.584C32.008 7.296 34.472 4.352 36.968 2.752C39.528 1.088 42.568 0.255997 46.088 0.255997C46.984 0.255997 47.912 0.319996 48.872 0.447994C49.832 0.575996 50.632 0.799997 51.272 1.12L48.968 13.888C48.392 13.696 47.848 13.6 47.336 13.6C46.888 13.536 46.504 13.504 46.184 13.504C44.776 13.504 43.56 13.888 42.536 14.656C41.576 15.424 40.456 16.928 39.176 19.168L32.456 30.88L52.904 64H38.024L21.416 37.408H14.504V64H0.392001ZM84.6133 65.152C78.9813 65.152 74.0213 63.84 69.7333 61.216C65.5093 58.592 62.1813 54.848 59.7493 49.984C57.3813 45.056 56.1973 39.2 56.1973 32.416C56.1973 25.568 57.3813 19.776 59.7493 15.04C62.1813 10.24 65.5093 6.592 69.7333 4.096C74.0213 1.536 78.9813 0.255997 84.6133 0.255997C90.2453 0.255997 95.1733 1.536 99.3973 4.096C103.685 6.592 107.013 10.24 109.381 15.04C111.813 19.84 113.029 25.632 113.029 32.416C113.029 39.2 111.813 45.056 109.381 49.984C107.013 54.848 103.685 58.592 99.3973 61.216C95.1733 63.84 90.2453 65.152 84.6133 65.152ZM84.6133 52.96C88.9013 52.96 92.2933 51.104 94.7893 47.392C97.2853 43.68 98.5333 38.688 98.5333 32.416C98.5333 26.144 97.2853 21.248 94.7893 17.728C92.2933 14.208 88.9013 12.448 84.6133 12.448C80.3253 12.448 76.9333 14.208 74.4373 17.728C71.9413 21.248 70.6933 26.144 70.6933 32.416C70.6933 38.688 71.9413 43.68 74.4373 47.392C76.9333 51.104 80.3253 52.96 84.6133 52.96ZM124.798 64V1.408H138.91V25.504H160.51V1.408H174.718V64H160.51V37.888H138.91V64H124.798ZM201.678 64V13.312H184.494V1.408H233.07V13.312H215.886V64H201.678ZM253.674 32.32L252.138 38.08H265.482L264.042 32.32C263.21 29.184 262.346 25.856 261.45 22.336C260.618 18.816 259.786 15.424 258.954 12.16H258.57C257.802 15.488 257.002 18.912 256.17 22.432C255.402 25.888 254.57 29.184 253.674 32.32ZM231.018 64L250.602 1.408H267.594L287.178 64H272.202L268.362 49.12H249.258L245.418 64H231.018ZM294.017 64V1.408H308.129V25.984H315.041L323.201 11.584C325.633 7.296 328.097 4.352 330.593 2.752C333.153 1.088 336.193 0.255997 339.713 0.255997C340.609 0.255997 341.537 0.319996 342.497 0.447994C343.457 0.575996 344.257 0.799997 344.897 1.12L342.593 13.888C342.017 13.696 341.473 13.6 340.961 13.6C340.513 13.536 340.129 13.504 339.809 13.504C338.401 13.504 337.185 13.888 336.161 14.656C335.201 15.424 334.081 16.928 332.801 19.168L326.081 30.88L346.529 64H331.649L315.041 37.408H308.129V64H294.017ZM365.928 64V13.312H348.744V1.408H397.32V13.312H380.136V64H365.928ZM407.08 64V1.408H421.192V24.256H427.432C432.168 24.256 436.36 24.928 440.008 26.272C443.72 27.552 446.632 29.6 448.744 32.416C450.856 35.232 451.912 38.944 451.912 43.552C451.912 48.544 450.792 52.544 448.552 55.552C446.376 58.56 443.432 60.736 439.72 62.08C436.008 63.36 431.816 64 427.144 64H407.08ZM421.192 52.768H426.28C429.992 52.768 432.872 52.064 434.92 50.656C437.032 49.248 438.088 46.944 438.088 43.744C438.088 38.24 434.152 35.488 426.28 35.488H421.192V52.768ZM460.072 64V1.408H474.184V64H460.072Z" fill="url(#paint0_linear_129_272)" fill-opacity="0.4"/>
<defs>
<linearGradient id="paint0_linear_129_272" x1="57.749" y1="11" x2="59.7552" y2="54.3621" gradientUnits="userSpaceOnUse">
<stop stop-color="#14FFEC"/>
<stop offset="1" stop-color="#8839FF"/>
</linearGradient>
</defs>
</svg>
