<svg width="22" height="14" viewBox="0 0 22 14" fill="none" xmlns="http://www.w3.org/2000/svg">
<path d="M20.0996 0.400024H1.89961C1.18201 0.400024 0.599609 0.921333 0.599609 1.56366V12.0364C0.599609 12.6787 1.18201 13.2 1.89961 13.2H20.0996C20.8172 13.2 21.3996 12.6787 21.3996 12.0364V1.56366C21.3996 0.921333 20.8172 0.400024 20.0996 0.400024ZM18.9329 1.56366L10.9996 8.54548L3.12876 1.56366H18.9329ZM1.89961 12.0364V2.14897L8.13246 7.72802L3.23926 12.0364H1.89961ZM5.13986 12.0364L9.09251 8.58795L10.1195 9.50664C10.6272 9.96104 11.4501 9.96104 11.9584 9.50664L12.9535 8.61588L16.9062 12.0364H5.13986ZM20.0996 12.0364H18.8393L13.9467 7.72802L20.0996 2.21995V12.0364Z" fill="#FEFEFE"/>
</svg>
