<svg width="40" height="40" viewBox="0 0 40 40" fill="none" xmlns="http://www.w3.org/2000/svg">
<circle cx="20" cy="20" r="19.5" stroke="#46484E"/>
<path d="M29.0996 14.4H10.8996C10.182 14.4 9.59961 14.9213 9.59961 15.5637V26.0364C9.59961 26.6787 10.182 27.2 10.8996 27.2H29.0996C29.8172 27.2 30.3996 26.6787 30.3996 26.0364V15.5637C30.3996 14.9213 29.8172 14.4 29.0996 14.4ZM27.9329 15.5637L19.9996 22.5455L12.1288 15.5637H27.9329ZM10.8996 26.0364V16.149L17.1325 21.728L12.2393 26.0364H10.8996ZM14.1399 26.0364L18.0925 22.588L19.1195 23.5066C19.6272 23.961 20.4501 23.961 20.9584 23.5066L21.9535 22.6159L25.9062 26.0364H14.1399ZM29.0996 26.0364H27.8393L22.9467 21.728L29.0996 16.22V26.0364Z" fill="#FEFEFE"/>
</svg>
