<svg width="40" height="40" viewBox="0 0 40 40" fill="none" xmlns="http://www.w3.org/2000/svg">
<circle cx="20" cy="20" r="19.5" stroke="#46484E"/>
<path d="M27.82 10.0013C27.5985 10.0111 27.3828 10.0727 27.1884 10.1506C26.9959 10.2279 25.8877 10.7009 24.2513 11.4006C22.6149 12.1002 20.4877 13.0113 18.3791 13.9147C14.1618 15.7216 10.0175 17.4994 10.0175 17.4994L10.0477 17.4878C10.0477 17.4878 9.79761 17.5714 9.54402 17.7481C9.41723 17.8365 9.28081 17.9505 9.16912 18.1168C9.05743 18.2831 8.97577 18.5187 9.00655 18.768C9.11463 19.6435 10.022 19.8918 10.022 19.8918L10.0255 19.8936L14.0748 21.2795C14.1781 21.6239 15.303 25.3785 15.5504 26.1736C15.6871 26.6132 15.815 26.8668 15.9484 27.0398C16.0152 27.1264 16.0852 27.1934 16.1625 27.2423C16.1933 27.2618 16.2256 27.2764 16.2576 27.2894C16.2583 27.2897 16.2587 27.2891 16.2594 27.2894C16.2633 27.2912 16.267 27.2913 16.2709 27.293L16.2603 27.2903C16.2677 27.2933 16.275 27.2984 16.2825 27.301C16.2969 27.306 16.3058 27.3059 16.3242 27.3099C16.788 27.4718 17.1718 27.1713 17.1718 27.1713L17.1877 27.1588L19.6752 24.8517L23.7121 27.9993L23.7627 28.0224C24.4693 28.3361 25.1083 28.1611 25.4622 27.8731C25.8161 27.5852 25.9553 27.2139 25.9553 27.2139L25.9704 27.1748L28.9367 11.7142C29.0126 11.3683 29.0234 11.0693 28.9518 10.7991C28.8802 10.5289 28.7063 10.2941 28.4881 10.1639C28.2698 10.0337 28.0415 9.99162 27.82 10.0013ZM27.844 10.9262C27.934 10.922 28.0007 10.9323 28.0217 10.9448C28.0427 10.9573 28.0521 10.9557 28.0723 11.0319C28.0925 11.108 28.1034 11.2685 28.0483 11.5196L28.0465 11.5249L25.0971 26.8959C25.0901 26.9113 25.0286 27.0535 24.8883 27.1677C24.7452 27.2842 24.5859 27.3751 24.1634 27.1979L19.749 23.7554L19.6246 23.6577L19.6219 23.6604L18.3018 22.6698L25.7207 13.9414C25.7777 13.8745 25.8142 13.7925 25.8256 13.7053C25.837 13.6182 25.8229 13.5296 25.785 13.4503C25.7471 13.371 25.6871 13.3043 25.6122 13.2584C25.5372 13.2125 25.4506 13.1893 25.3627 13.1916C25.2769 13.1938 25.1934 13.2203 25.122 13.268L14.3866 20.4248L10.3311 19.0363C10.3311 19.0363 9.92843 18.8122 9.90915 18.656C9.90808 18.6474 9.90333 18.6552 9.92425 18.6241C9.94518 18.5929 9.99778 18.5403 10.0637 18.4944C10.1956 18.4025 10.3462 18.3469 10.3462 18.3469L10.3613 18.3416L10.3764 18.3353C10.3764 18.3353 14.5209 16.5574 18.738 14.7507C20.8465 13.8473 22.9734 12.9369 24.6094 12.2374C26.2449 11.5381 27.4268 11.0348 27.5268 10.9946C27.6408 10.9489 27.754 10.9303 27.844 10.9262ZM22.9241 15.8265L17.2979 22.4459L17.2952 22.4486C17.2865 22.4592 17.2782 22.4701 17.2704 22.4815C17.2614 22.4938 17.2531 22.5065 17.2455 22.5197C17.2139 22.5733 17.1936 22.6329 17.186 22.6947C17.186 22.6959 17.186 22.697 17.186 22.6982L16.453 25.9942C16.4409 25.9585 16.4323 25.9455 16.4193 25.9035V25.9027C16.1865 25.1547 15.1252 21.6137 14.9783 21.124L22.9241 15.8265ZM17.9331 23.5306L18.9441 24.2893L17.4587 25.6663L17.9331 23.5306Z" fill="#FEFEFE"/>
</svg>
