<svg width="40" height="40" viewBox="0 0 40 40" fill="none" xmlns="http://www.w3.org/2000/svg">
<circle cx="20" cy="20" r="19.5" stroke="#46484E"/>
<path d="M27.0781 12.9076C26.157 11.9822 25.0602 11.2485 23.8515 10.7493C22.6427 10.2501 21.3463 9.99544 20.0377 10.0001C14.5542 10.0001 10.0854 14.4475 10.0804 19.9075C10.0804 21.6563 10.5399 23.3575 11.4076 24.8638L10 30L15.2788 28.6225C16.7391 29.4136 18.3751 29.8283 20.0377 29.8288H20.0427C25.5274 29.8288 29.995 25.3813 30 19.9163C30.0012 18.6138 29.7436 17.324 29.2419 16.1211C28.7402 14.9183 28.0044 13.8261 27.0768 12.9076H27.0781ZM20.0377 28.1513C18.5547 28.1518 17.0991 27.7545 15.8237 27.0013L15.5223 26.8213L12.3908 27.6388L13.227 24.5975L13.0311 24.2838C12.2022 22.9717 11.7637 21.4526 11.7667 19.9025C11.7667 15.37 15.4797 11.6726 20.0427 11.6726C21.1298 11.6706 22.2065 11.8829 23.2107 12.2972C24.215 12.7114 25.1269 13.3195 25.894 14.0863C26.6638 14.8501 27.274 15.7581 27.6895 16.7578C28.105 17.7576 28.3176 18.8293 28.3149 19.9113C28.3099 24.46 24.5969 28.1513 20.0377 28.1513ZM24.5768 21.9838C24.3295 21.86 23.1077 21.2613 22.8779 21.1763C22.6494 21.095 22.4824 21.0525 22.3192 21.3C22.1522 21.5463 21.675 22.1075 21.5319 22.2688C21.3887 22.435 21.2406 22.4538 20.992 22.3313C20.7446 22.2063 19.9422 21.9463 18.993 21.1C18.2521 20.4438 17.7562 19.6313 17.608 19.385C17.4648 19.1375 17.5942 19.005 17.7185 18.8813C17.8277 18.7713 17.9658 18.5913 18.0902 18.4488C18.2157 18.3063 18.2572 18.2013 18.3388 18.0363C18.4204 17.8688 18.3815 17.7263 18.3199 17.6025C18.2572 17.4788 17.7612 16.2575 17.5515 15.765C17.3506 15.2788 17.1459 15.3463 16.9927 15.34C16.8496 15.3313 16.6826 15.3313 16.5156 15.3313C16.3895 15.3344 16.2654 15.3635 16.151 15.4166C16.0367 15.4697 15.9347 15.5458 15.8513 15.64C15.6228 15.8875 14.9837 16.4863 14.9837 17.7075C14.9837 18.9288 15.8752 20.1025 16.0008 20.2688C16.1238 20.435 17.7511 22.9338 20.2486 24.0088C20.8388 24.265 21.3034 24.4163 21.6662 24.5313C22.2627 24.7213 22.8014 24.6925 23.2308 24.6313C23.7079 24.5588 24.7012 24.0313 24.9108 23.4525C25.1168 22.8725 25.1168 22.3775 25.054 22.2738C24.9925 22.1688 24.8255 22.1075 24.5768 21.9838Z" fill="#FEFEFE"/>
</svg>
